STARTFONT 2.1
FONT -FontForge-STIX Two Math-Book-R-Normal--18-180-72-72-P-123-ISO10646-1
SIZE 18 72 72
FONTBOUNDINGBOX 73 78 -18 -30
COMMENT "Generated by fontforge, http://fontforge.sourceforge.net"
COMMENT "Copyright 2001-2021 The STIX Fonts Project Authors (https://github.com/stipub/stixfonts)"
STARTPROPERTIES 40
FOUNDRY "FontForge"
FAMILY_NAME "STIX Two Math"
WEIGHT_NAME "Book"
SLANT "R"
SETWIDTH_NAME "Normal"
ADD_STYLE_NAME ""
PIXEL_SIZE 18
POINT_SIZE 180
RESOLUTION_X 72
RESOLUTION_Y 72
SPACING "P"
AVERAGE_WIDTH 123
CHARSET_REGISTRY "ISO10646"
CHARSET_ENCODING "1"
FONTNAME_REGISTRY ""
CHARSET_COLLECTIONS "ASCII ISOLatin1Encoding ISO8859-2 ISO8859-5 ISO8859-7 ISO8859-9 ISO8859-4 ISO10646-1"
FONT_NAME "STIXTwoMath-Regular"
FACE_NAME "STIX Two Math Regular"
COPYRIGHT "Copyright 2001-2021 The STIX Fonts Project Authors (https://github.com/stipub/stixfonts)"
FONT_VERSION "2.12 b168a"
FONT_ASCENT 14
FONT_DESCENT 4
UNDERLINE_POSITION -2
UNDERLINE_THICKNESS 1
X_HEIGHT 8
CAP_HEIGHT 11
RAW_ASCENT 762
RAW_DESCENT 238
NORM_SPACE 4
RELATIVE_WEIGHT 40
RELATIVE_SETWIDTH 50
SUPERSCRIPT_X 0
SUPERSCRIPT_Y 9
SUPERSCRIPT_SIZE 9
SUBSCRIPT_X 0
SUBSCRIPT_Y 4
SUBSCRIPT_SIZE 9
FIGURE_WIDTH 9
AVG_LOWERCASE_WIDTH 88
AVG_UPPERCASE_WIDTH 122
ENDPROPERTIES
CHARS 6611
STARTCHAR space
ENCODING 32
SWIDTH 235 0
DWIDTH 4 0
BBX 1 1 0 0
BITMAP
00
ENDCHAR
STARTCHAR exclam
ENCODING 33
SWIDTH 283 0
DWIDTH 5 0
BBX 3 12 1 0
BITMAP
40
40
40
40
40
40
40
40
40
00
E0
40
ENDCHAR
STARTCHAR quotedbl
ENCODING 34
SWIDTH 334 0
DWIDTH 6 0
BBX 4 4 1 9
BITMAP
D0
90
90
A0
ENDCHAR
STARTCHAR numbersign
ENCODING 35
SWIDTH 702 0
DWIDTH 13 0
BBX 11 12 1 0
BITMAP
1880
1080
1100
FFE0
1100
1100
3100
FFC0
2300
2200
2200
2200
ENDCHAR
STARTCHAR dollar
ENCODING 36
SWIDTH 495 0
DWIDTH 9 0
BBX 7 14 1 -1
BITMAP
10
7C
96
92
D0
F0
78
1C
16
92
92
96
FC
10
ENDCHAR
STARTCHAR percent
ENCODING 37
SWIDTH 692 0
DWIDTH 12 0
BBX 11 12 1 0
BITMAP
70C0
CF80
8900
8A00
9200
6400
05C0
0B20
1220
1220
2240
6380
ENDCHAR
STARTCHAR ampersand
ENCODING 38
SWIDTH 736 0
DWIDTH 13 0
BBX 12 12 1 0
BITMAP
1C00
2200
2200
3600
19E0
38C0
4880
8C80
8700
8600
C710
79E0
ENDCHAR
STARTCHAR quotesingle
ENCODING 39
SWIDTH 187 0
DWIDTH 3 0
BBX 2 4 1 9
BITMAP
C0
80
80
80
ENDCHAR
STARTCHAR parenleft
ENCODING 40
SWIDTH 357 0
DWIDTH 6 0
BBX 5 17 1 -4
BITMAP
18
20
60
40
C0
C0
80
80
80
80
80
C0
40
40
20
10
08
ENDCHAR
STARTCHAR parenright
ENCODING 41
SWIDTH 357 0
DWIDTH 6 0
BBX 5 17 1 -4
BITMAP
80
40
20
30
10
10
18
18
18
18
10
10
30
20
40
80
80
ENDCHAR
STARTCHAR asterisk
ENCODING 42
SWIDTH 410 0
DWIDTH 7 0
BBX 6 7 1 6
BITMAP
20
20
AC
78
78
AC
20
ENDCHAR
STARTCHAR plus
ENCODING 43
SWIDTH 720 0
DWIDTH 13 0
BBX 11 11 1 -1
BITMAP
0400
0400
0400
0400
0400
FFE0
0400
0400
0400
0400
0400
ENDCHAR
STARTCHAR comma
ENCODING 44
SWIDTH 245 0
DWIDTH 4 0
BBX 2 5 1 -3
BITMAP
C0
C0
40
40
80
ENDCHAR
STARTCHAR hyphen
ENCODING 45
SWIDTH 315 0
DWIDTH 6 0
BBX 4 1 1 4
BITMAP
F0
ENDCHAR
STARTCHAR period
ENCODING 46
SWIDTH 245 0
DWIDTH 4 0
BBX 2 2 1 0
BITMAP
C0
C0
ENDCHAR
STARTCHAR slash
ENCODING 47
SWIDTH 386 0
DWIDTH 7 0
BBX 5 15 1 -2
BITMAP
08
08
08
10
10
10
20
20
20
40
40
40
80
80
80
ENDCHAR
STARTCHAR zero
ENCODING 48
SWIDTH 495 0
DWIDTH 9 0
BBX 8 12 0 0
BITMAP
1C
22
63
43
41
C1
C1
41
41
63
22
1C
ENDCHAR
STARTCHAR one
ENCODING 49
SWIDTH 495 0
DWIDTH 9 0
BBX 7 12 1 0
BITMAP
30
D0
10
10
10
10
10
10
10
10
10
FE
ENDCHAR
STARTCHAR two
ENCODING 50
SWIDTH 495 0
DWIDTH 9 0
BBX 7 12 1 0
BITMAP
78
84
86
06
06
04
0C
18
30
22
42
FE
ENDCHAR
STARTCHAR three
ENCODING 51
SWIDTH 495 0
DWIDTH 9 0
BBX 7 12 1 0
BITMAP
78
8C
04
04
08
3C
0E
06
02
06
84
F8
ENDCHAR
STARTCHAR four
ENCODING 52
SWIDTH 495 0
DWIDTH 9 0
BBX 9 12 0 0
BITMAP
0600
0600
0E00
1600
1600
2600
4600
4600
FF80
0600
0600
0600
ENDCHAR
STARTCHAR five
ENCODING 53
SWIDTH 495 0
DWIDTH 9 0
BBX 7 12 1 0
BITMAP
3E
3E
40
40
78
7C
06
06
02
02
C4
F8
ENDCHAR
STARTCHAR six
ENCODING 54
SWIDTH 495 0
DWIDTH 9 0
BBX 7 12 1 0
BITMAP
0E
30
60
40
FC
C6
86
82
C2
C2
46
3C
ENDCHAR
STARTCHAR seven
ENCODING 55
SWIDTH 495 0
DWIDTH 9 0
BBX 7 12 1 0
BITMAP
FE
FE
82
04
04
0C
08
08
10
10
30
20
ENDCHAR
STARTCHAR eight
ENCODING 56
SWIDTH 495 0
DWIDTH 9 0
BBX 7 12 1 0
BITMAP
78
C4
86
C4
6C
30
3C
C6
86
82
C6
7C
ENDCHAR
STARTCHAR nine
ENCODING 57
SWIDTH 495 0
DWIDTH 9 0
BBX 7 12 1 0
BITMAP
78
C4
86
86
86
86
C6
7E
04
0C
18
E0
ENDCHAR
STARTCHAR colon
ENCODING 58
SWIDTH 245 0
DWIDTH 4 0
BBX 2 9 1 0
BITMAP
C0
C0
00
00
00
00
00
C0
C0
ENDCHAR
STARTCHAR semicolon
ENCODING 59
SWIDTH 245 0
DWIDTH 4 0
BBX 2 12 1 -3
BITMAP
C0
C0
00
00
00
00
00
C0
C0
40
40
80
ENDCHAR
STARTCHAR less
ENCODING 60
SWIDTH 720 0
DWIDTH 13 0
BBX 11 10 1 0
BITMAP
0020
00C0
0300
0C00
3000
E000
1800
0600
0180
0060
ENDCHAR
STARTCHAR equal
ENCODING 61
SWIDTH 720 0
DWIDTH 13 0
BBX 11 5 1 2
BITMAP
FFE0
0000
0000
0000
FFE0
ENDCHAR
STARTCHAR greater
ENCODING 62
SWIDTH 720 0
DWIDTH 13 0
BBX 11 10 1 0
BITMAP
8000
6000
1800
0600
0180
00E0
0300
0C00
3000
C000
ENDCHAR
STARTCHAR question
ENCODING 63
SWIDTH 411 0
DWIDTH 7 0
BBX 6 12 1 0
BITMAP
78
8C
8C
8C
08
18
10
20
20
00
30
30
ENDCHAR
STARTCHAR at
ENCODING 64
SWIDTH 905 0
DWIDTH 16 0
BBX 14 15 1 -3
BITMAP
07C0
1830
2018
4348
4CC4
C844
8844
9844
9844
C844
48C8
4770
2000
1810
07E0
ENDCHAR
STARTCHAR A
ENCODING 65
SWIDTH 718 0
DWIDTH 13 0
BBX 13 12 0 0
BITMAP
0200
0600
0700
0900
0980
0980
10C0
1FC0
2040
2060
6060
F0F8
ENDCHAR
STARTCHAR B
ENCODING 66
SWIDTH 618 0
DWIDTH 11 0
BBX 10 12 1 0
BITMAP
FF00
6180
6180
6180
6100
7E00
6100
6180
60C0
6080
6180
FF00
ENDCHAR
STARTCHAR C
ENCODING 67
SWIDTH 670 0
DWIDTH 12 0
BBX 10 12 1 0
BITMAP
1FC0
20C0
6040
C040
C000
C000
C000
C000
C000
6040
3040
1F80
ENDCHAR
STARTCHAR D
ENCODING 68
SWIDTH 730 0
DWIDTH 13 0
BBX 11 12 1 0
BITMAP
FF00
61C0
60C0
6060
6060
6060
6060
6060
6060
6040
60C0
FF00
ENDCHAR
STARTCHAR E
ENCODING 69
SWIDTH 626 0
DWIDTH 11 0
BBX 10 12 1 0
BITMAP
FF80
6080
6080
6100
6100
7F00
6100
6000
6040
6040
6080
FF80
ENDCHAR
STARTCHAR F
ENCODING 70
SWIDTH 588 0
DWIDTH 11 0
BBX 9 12 1 0
BITMAP
FF80
6080
6080
6100
6100
7F00
6100
6000
6000
6000
6000
F800
ENDCHAR
STARTCHAR G
ENCODING 71
SWIDTH 720 0
DWIDTH 13 0
BBX 11 12 1 0
BITMAP
1FC0
20C0
6040
C040
C000
C000
C1E0
C0C0
C0C0
60C0
60C0
1F80
ENDCHAR
STARTCHAR H
ENCODING 72
SWIDTH 777 0
DWIDTH 14 0
BBX 13 12 1 0
BITMAP
F9F8
2060
2060
2060
2060
3FE0
2060
2060
2060
2060
2060
F9F8
ENDCHAR
STARTCHAR I
ENCODING 73
SWIDTH 357 0
DWIDTH 6 0
BBX 5 12 1 0
BITMAP
F8
60
60
60
60
60
60
60
60
60
60
F8
ENDCHAR
STARTCHAR J
ENCODING 74
SWIDTH 396 0
DWIDTH 7 0
BBX 7 12 0 0
BITMAP
3E
18
18
18
18
18
18
18
18
18
D8
F0
ENDCHAR
STARTCHAR K
ENCODING 75
SWIDTH 702 0
DWIDTH 13 0
BBX 12 12 1 0
BITMAP
FBE0
6180
6100
6200
6400
6800
7800
6E00
6700
6380
61C0
FBF0
ENDCHAR
STARTCHAR L
ENCODING 76
SWIDTH 585 0
DWIDTH 11 0
BBX 9 12 1 0
BITMAP
F800
6000
6000
6000
6000
6000
6000
6000
6080
6080
6080
FF80
ENDCHAR
STARTCHAR M
ENCODING 77
SWIDTH 895 0
DWIDTH 16 0
BBX 15 12 0 0
BITMAP
700E
381C
381C
2C2C
2C2C
262C
264C
264C
238C
238C
210C
F91E
ENDCHAR
STARTCHAR N
ENCODING 78
SWIDTH 742 0
DWIDTH 13 0
BBX 12 12 1 0
BITMAP
E0F0
7040
7040
5840
4C40
4E40
4740
4340
41C0
40C0
40C0
F040
ENDCHAR
STARTCHAR O
ENCODING 79
SWIDTH 738 0
DWIDTH 13 0
BBX 11 12 1 0
BITMAP
1F00
20C0
6060
C060
C060
C060
C060
C060
C060
6040
20C0
1F00
ENDCHAR
STARTCHAR P
ENCODING 80
SWIDTH 569 0
DWIDTH 10 0
BBX 9 12 1 0
BITMAP
FE00
6300
6180
6180
6180
6300
7C00
6000
6000
6000
6000
F800
ENDCHAR
STARTCHAR Q
ENCODING 81
SWIDTH 737 0
DWIDTH 13 0
BBX 12 15 1 -3
BITMAP
1F00
20C0
6060
C060
C060
C060
C060
C060
C060
6040
60C0
1F00
0700
0380
00F0
ENDCHAR
STARTCHAR R
ENCODING 82
SWIDTH 659 0
DWIDTH 12 0
BBX 11 12 1 0
BITMAP
FE00
6300
6180
6180
6180
6300
7C00
6600
6300
6300
6180
F8E0
ENDCHAR
STARTCHAR S
ENCODING 83
SWIDTH 504 0
DWIDTH 9 0
BBX 7 12 1 0
BITMAP
7E
C6
82
C2
E0
78
1C
06
82
82
86
FC
ENDCHAR
STARTCHAR T
ENCODING 84
SWIDTH 603 0
DWIDTH 11 0
BBX 11 12 0 0
BITMAP
FFC0
8440
8420
0400
0400
0400
0400
0400
0400
0400
0400
1F00
ENDCHAR
STARTCHAR U
ENCODING 85
SWIDTH 752 0
DWIDTH 14 0
BBX 13 12 0 0
BITMAP
FC78
3030
3030
3030
3030
3030
3030
3030
3020
3020
1820
0FC0
ENDCHAR
STARTCHAR V
ENCODING 86
SWIDTH 680 0
DWIDTH 12 0
BBX 12 12 0 0
BITMAP
F870
6020
3060
3040
1840
1880
1880
0D00
0D00
0700
0600
0200
ENDCHAR
STARTCHAR W
ENCODING 87
SWIDTH 944 0
DWIDTH 17 0
BBX 17 12 0 0
BITMAP
F3E780
618300
30C200
30C200
10C200
18E400
196400
0D3400
0E3800
061800
061000
041000
ENDCHAR
STARTCHAR X
ENCODING 88
SWIDTH 664 0
DWIDTH 12 0
BBX 12 12 0 0
BITMAP
F8F0
3040
1880
1900
0D00
0600
0600
0B00
1180
31C0
20C0
F1F0
ENDCHAR
STARTCHAR Y
ENCODING 89
SWIDTH 647 0
DWIDTH 12 0
BBX 12 12 0 0
BITMAP
F8F0
7040
3080
1880
1900
0D00
0600
0600
0600
0600
0600
1F80
ENDCHAR
STARTCHAR Z
ENCODING 90
SWIDTH 594 0
DWIDTH 11 0
BBX 10 12 0 0
BITMAP
7FC0
4180
4180
0300
0600
0600
0C00
1800
1800
3040
6040
FFC0
ENDCHAR
STARTCHAR bracketleft
ENCODING 91
SWIDTH 349 0
DWIDTH 6 0
BBX 3 18 2 -4
BITMAP
E0
80
80
80
80
80
80
80
80
80
80
80
80
80
80
80
80
E0
ENDCHAR
STARTCHAR backslash
ENCODING 92
SWIDTH 385 0
DWIDTH 7 0
BBX 5 15 1 -2
BITMAP
80
80
80
40
40
40
20
20
20
10
10
10
08
08
08
ENDCHAR
STARTCHAR bracketright
ENCODING 93
SWIDTH 349 0
DWIDTH 6 0
BBX 4 18 1 -4
BITMAP
F0
30
30
30
30
30
30
30
30
30
30
30
30
30
30
30
30
F0
ENDCHAR
STARTCHAR asciicircum
ENCODING 94
SWIDTH 480 0
DWIDTH 9 0
BBX 7 7 1 6
BITMAP
10
38
28
48
44
84
82
ENDCHAR
STARTCHAR underscore
ENCODING 95
SWIDTH 512 0
DWIDTH 9 0
BBX 9 1 0 -2
BITMAP
FF80
ENDCHAR
STARTCHAR grave
ENCODING 96
SWIDTH 222 0
DWIDTH 4 0
BBX 2 3 1 10
BITMAP
80
C0
40
ENDCHAR
STARTCHAR a
ENCODING 97
SWIDTH 480 0
DWIDTH 9 0
BBX 8 9 1 0
BITMAP
78
CC
CC
0C
3C
CC
8C
8C
F7
ENDCHAR
STARTCHAR b
ENCODING 98
SWIDTH 522 0
DWIDTH 9 0
BBX 9 13 0 0
BITMAP
E000
6000
6000
6000
6E00
7300
6180
6180
6180
6180
6100
6300
3E00
ENDCHAR
STARTCHAR c
ENCODING 99
SWIDTH 446 0
DWIDTH 8 0
BBX 7 9 1 0
BITMAP
3C
CC
84
80
80
80
C2
C4
78
ENDCHAR
STARTCHAR d
ENCODING 100
SWIDTH 539 0
DWIDTH 10 0
BBX 8 13 1 0
BITMAP
0E
06
06
06
3E
46
86
86
86
86
86
C6
7B
ENDCHAR
STARTCHAR e
ENCODING 101
SWIDTH 464 0
DWIDTH 8 0
BBX 7 9 1 0
BITMAP
78
C4
86
FE
80
80
C2
E4
38
ENDCHAR
STARTCHAR f
ENCODING 102
SWIDTH 307 0
DWIDTH 6 0
BBX 7 13 0 0
BITMAP
1E
26
20
20
FC
20
20
20
20
20
20
20
F8
ENDCHAR
STARTCHAR g
ENCODING 103
SWIDTH 484 0
DWIDTH 9 0
BBX 9 13 0 -4
BITMAP
3F80
6600
6200
6200
6200
3C00
4000
4000
7F00
4100
4100
C100
7E00
ENDCHAR
STARTCHAR h
ENCODING 104
SWIDTH 577 0
DWIDTH 10 0
BBX 10 13 0 0
BITMAP
E000
2000
2000
2000
2F00
3100
2180
2180
2180
2180
2180
2180
7BC0
ENDCHAR
STARTCHAR i
ENCODING 105
SWIDTH 285 0
DWIDTH 5 0
BBX 4 12 1 0
BITMAP
60
60
00
C0
40
40
40
40
40
40
40
F0
ENDCHAR
STARTCHAR j
ENCODING 106
SWIDTH 263 0
DWIDTH 5 0
BBX 6 16 -2 -4
BITMAP
08
1C
00
38
08
08
08
08
08
08
08
08
08
08
C8
70
ENDCHAR
STARTCHAR k
ENCODING 107
SWIDTH 542 0
DWIDTH 10 0
BBX 10 13 0 0
BITMAP
E000
2000
2000
2000
2780
2200
2400
2800
3800
2C00
2600
2300
7BC0
ENDCHAR
STARTCHAR l
ENCODING 108
SWIDTH 283 0
DWIDTH 5 0
BBX 5 13 0 0
BITMAP
E0
20
20
20
20
20
20
20
20
20
20
20
78
ENDCHAR
STARTCHAR m
ENCODING 109
SWIDTH 852 0
DWIDTH 15 0
BBX 14 9 1 0
BITMAP
DEF0
6310
4318
4318
4318
4318
4318
4318
F7BC
ENDCHAR
STARTCHAR n
ENCODING 110
SWIDTH 576 0
DWIDTH 10 0
BBX 9 9 1 0
BITMAP
DE00
6200
4300
4300
4300
4300
4300
4300
F780
ENDCHAR
STARTCHAR o
ENCODING 111
SWIDTH 514 0
DWIDTH 9 0
BBX 8 9 1 0
BITMAP
3C
C6
82
83
83
83
C2
C6
3C
ENDCHAR
STARTCHAR p
ENCODING 112
SWIDTH 537 0
DWIDTH 10 0
BBX 9 13 0 -4
BITMAP
EF00
3100
2180
2180
2180
2180
2180
3100
3E00
2000
2000
2000
F800
ENDCHAR
STARTCHAR q
ENCODING 113
SWIDTH 521 0
DWIDTH 9 0
BBX 8 13 1 -4
BITMAP
3A
46
86
86
86
86
C6
C6
7E
06
06
06
0F
ENDCHAR
STARTCHAR r
ENCODING 114
SWIDTH 380 0
DWIDTH 7 0
BBX 6 9 1 0
BITMAP
CC
5C
60
40
40
40
40
40
F0
ENDCHAR
STARTCHAR s
ENCODING 115
SWIDTH 395 0
DWIDTH 7 0
BBX 6 9 1 0
BITMAP
78
88
88
C0
70
18
8C
88
F8
ENDCHAR
STARTCHAR t
ENCODING 116
SWIDTH 315 0
DWIDTH 6 0
BBX 5 12 1 0
BITMAP
40
40
40
F0
40
40
40
40
40
40
48
70
ENDCHAR
STARTCHAR u
ENCODING 117
SWIDTH 570 0
DWIDTH 10 0
BBX 10 9 0 0
BITMAP
E300
2100
2100
2100
2100
2100
2100
2300
3DC0
ENDCHAR
STARTCHAR v
ENCODING 118
SWIDTH 481 0
DWIDTH 9 0
BBX 9 9 0 0
BITMAP
F380
6100
6200
2200
3200
1400
1400
1800
0800
ENDCHAR
STARTCHAR w
ENCODING 119
SWIDTH 749 0
DWIDTH 13 0
BBX 14 9 0 0
BITMAP
F79C
6308
6310
2310
3390
14A0
1CA0
18C0
0840
ENDCHAR
STARTCHAR x
ENCODING 120
SWIDTH 479 0
DWIDTH 9 0
BBX 9 9 0 0
BITMAP
F700
2200
3400
1800
0800
1C00
2600
4200
E780
ENDCHAR
STARTCHAR y
ENCODING 121
SWIDTH 483 0
DWIDTH 9 0
BBX 9 13 0 -4
BITMAP
F380
6100
6200
3200
3200
1400
1C00
0800
0800
0800
1000
D000
E000
ENDCHAR
STARTCHAR z
ENCODING 122
SWIDTH 458 0
DWIDTH 8 0
BBX 7 9 1 0
BITMAP
FE
8C
98
18
30
20
62
C2
FE
ENDCHAR
STARTCHAR braceleft
ENCODING 123
SWIDTH 327 0
DWIDTH 6 0
BBX 5 18 0 -4
BITMAP
18
20
20
20
20
20
20
20
60
C0
20
20
20
20
20
20
20
18
ENDCHAR
STARTCHAR bar
ENCODING 124
SWIDTH 267 0
DWIDTH 5 0
BBX 1 17 2 -4
BITMAP
80
80
80
80
80
80
80
80
80
80
80
80
80
80
80
80
80
ENDCHAR
STARTCHAR braceright
ENCODING 125
SWIDTH 327 0
DWIDTH 6 0
BBX 4 18 1 -4
BITMAP
C0
60
20
20
20
20
20
20
20
10
20
20
20
20
20
20
20
C0
ENDCHAR
STARTCHAR asciitilde
ENCODING 126
SWIDTH 557 0
DWIDTH 10 0
BBX 8 2 1 4
BITMAP
71
8E
ENDCHAR
STARTCHAR uni00A0
ENCODING 160
SWIDTH 235 0
DWIDTH 4 0
BBX 1 1 0 0
BITMAP
00
ENDCHAR
STARTCHAR exclamdown
ENCODING 161
SWIDTH 282 0
DWIDTH 5 0
BBX 3 13 1 -4
BITMAP
40
E0
00
40
40
40
40
40
40
40
40
40
40
ENDCHAR
STARTCHAR cent
ENCODING 162
SWIDTH 495 0
DWIDTH 9 0
BBX 7 12 1 0
BITMAP
10
10
3C
56
96
90
90
90
D2
52
3C
10
ENDCHAR
STARTCHAR sterling
ENCODING 163
SWIDTH 495 0
DWIDTH 9 0
BBX 9 12 0 0
BITMAP
0F00
1100
1000
3000
3000
7E00
1000
1000
1000
7080
9900
EE00
ENDCHAR
STARTCHAR currency
ENCODING 164
SWIDTH 617 0
DWIDTH 11 0
BBX 9 10 1 0
BITMAP
8080
7F80
6300
4100
4100
4100
4100
6300
DD80
8080
ENDCHAR
STARTCHAR yen
ENCODING 165
SWIDTH 495 0
DWIDTH 9 0
BBX 9 12 0 0
BITMAP
F380
6100
2200
3200
1C00
1C00
7F00
0800
7F00
0800
0C00
3E00
ENDCHAR
STARTCHAR brokenbar
ENCODING 166
SWIDTH 267 0
DWIDTH 5 0
BBX 1 13 2 0
BITMAP
80
80
80
80
80
00
00
00
80
80
80
80
80
ENDCHAR
STARTCHAR section
ENCODING 167
SWIDTH 491 0
DWIDTH 9 0
BBX 6 16 1 -4
BITMAP
38
44
44
60
30
38
4C
C4
44
64
38
18
0C
C4
C4
78
ENDCHAR
STARTCHAR dieresis
ENCODING 168
SWIDTH 392 0
DWIDTH 7 0
BBX 6 2 1 10
BITMAP
DC
88
ENDCHAR
STARTCHAR copyright
ENCODING 169
SWIDTH 781 0
DWIDTH 14 0
BBX 12 13 1 0
BITMAP
0F00
30C0
4020
8F90
9090
9090
9010
9010
9890
8F10
4020
30C0
0F00
ENDCHAR
STARTCHAR ordfeminine
ENCODING 170
SWIDTH 410 0
DWIDTH 7 0
BBX 6 7 1 5
BITMAP
70
88
08
78
88
98
EC
ENDCHAR
STARTCHAR guillemotleft
ENCODING 171
SWIDTH 517 0
DWIDTH 9 0
BBX 7 7 1 1
BITMAP
12
26
4C
98
CC
44
32
ENDCHAR
STARTCHAR logicalnot
ENCODING 172
SWIDTH 720 0
DWIDTH 13 0
BBX 10 6 1 2
BITMAP
FFC0
0040
0040
0040
0040
0040
ENDCHAR
STARTCHAR uni00AD
ENCODING 173
SWIDTH 315 0
DWIDTH 6 0
BBX 4 1 1 4
BITMAP
F0
ENDCHAR
STARTCHAR registered
ENCODING 174
SWIDTH 413 0
DWIDTH 7 0
BBX 6 7 1 7
BITMAP
30
E8
D4
A4
FC
88
70
ENDCHAR
STARTCHAR macron
ENCODING 175
SWIDTH 350 0
DWIDTH 6 0
BBX 5 1 1 10
BITMAP
F8
ENDCHAR
STARTCHAR degree
ENCODING 176
SWIDTH 409 0
DWIDTH 7 0
BBX 5 6 1 7
BITMAP
70
88
88
88
88
70
ENDCHAR
STARTCHAR plusminus
ENCODING 177
SWIDTH 720 0
DWIDTH 13 0
BBX 11 12 1 0
BITMAP
0400
0400
0400
0400
0400
FFE0
0400
0400
0400
0400
0000
FFE0
ENDCHAR
STARTCHAR twosuperior
ENCODING 178
SWIDTH 373 0
DWIDTH 7 0
BBX 6 8 0 5
BITMAP
78
8C
04
08
08
30
44
FC
ENDCHAR
STARTCHAR threesuperior
ENCODING 179
SWIDTH 374 0
DWIDTH 7 0
BBX 5 8 1 5
BITMAP
70
98
10
70
18
08
08
F0
ENDCHAR
STARTCHAR acute
ENCODING 180
SWIDTH 222 0
DWIDTH 4 0
BBX 2 3 1 10
BITMAP
40
C0
80
ENDCHAR
STARTCHAR uni00B5
ENCODING 181
SWIDTH 556 0
DWIDTH 10 0
BBX 9 13 1 -4
BITMAP
C200
C200
C200
C200
8600
8400
CA00
CA80
B300
8000
8000
8000
8000
ENDCHAR
STARTCHAR paragraph
ENCODING 182
SWIDTH 605 0
DWIDTH 11 0
BBX 9 15 1 -3
BITMAP
3F80
CA00
CA00
CA00
CA00
CA00
6A00
1A00
0A00
0A00
0A00
0A00
0A00
0A00
3B80
ENDCHAR
STARTCHAR periodcentered
ENCODING 183
SWIDTH 282 0
DWIDTH 5 0
BBX 3 2 1 4
BITMAP
E0
40
ENDCHAR
STARTCHAR cedilla
ENCODING 184
SWIDTH 247 0
DWIDTH 4 0
BBX 3 4 1 -4
BITMAP
80
E0
20
C0
ENDCHAR
STARTCHAR onesuperior
ENCODING 185
SWIDTH 343 0
DWIDTH 6 0
BBX 4 8 1 5
BITMAP
E0
60
60
60
60
60
60
F0
ENDCHAR
STARTCHAR ordmasculine
ENCODING 186
SWIDTH 432 0
DWIDTH 8 0
BBX 6 7 1 5
BITMAP
78
8C
84
84
84
8C
78
ENDCHAR
STARTCHAR guillemotright
ENCODING 187
SWIDTH 517 0
DWIDTH 9 0
BBX 8 7 1 1
BITMAP
88
44
26
33
22
44
88
ENDCHAR
STARTCHAR onequarter
ENCODING 188
SWIDTH 861 0
DWIDTH 16 0
BBX 14 13 1 0
BITMAP
2020
E040
6080
6080
6100
6118
6218
F238
0458
0898
08FC
1018
3018
ENDCHAR
STARTCHAR onehalf
ENCODING 189
SWIDTH 889 0
DWIDTH 16 0
BBX 15 13 1 0
BITMAP
2020
E040
6040
6080
6100
6138
6244
F204
0404
0408
0810
1022
307C
ENDCHAR
STARTCHAR threequarters
ENCODING 190
SWIDTH 861 0
DWIDTH 16 0
BBX 14 13 1 0
BITMAP
7020
9040
1880
1080
7100
1908
8A18
F238
0458
0898
08FC
1018
3018
ENDCHAR
STARTCHAR questiondown
ENCODING 191
SWIDTH 411 0
DWIDTH 7 0
BBX 6 13 1 -4
BITMAP
30
30
00
20
20
20
40
C0
80
8C
8C
84
78
ENDCHAR
STARTCHAR Agrave
ENCODING 192
SWIDTH 718 0
DWIDTH 13 0
BBX 13 16 0 0
BITMAP
0C00
0600
0100
0000
0200
0600
0700
0900
0980
0980
10C0
1FC0
2040
2060
6060
F0F8
ENDCHAR
STARTCHAR Aacute
ENCODING 193
SWIDTH 718 0
DWIDTH 13 0
BBX 13 16 0 0
BITMAP
0100
0300
0400
0000
0200
0600
0700
0900
0980
0980
10C0
1FC0
2040
2060
6060
F0F8
ENDCHAR
STARTCHAR Acircumflex
ENCODING 194
SWIDTH 718 0
DWIDTH 13 0
BBX 13 16 0 0
BITMAP
0200
0700
0880
0000
0200
0600
0700
0900
0980
0980
10C0
1FC0
2040
2060
6060
F0F8
ENDCHAR
STARTCHAR Atilde
ENCODING 195
SWIDTH 718 0
DWIDTH 13 0
BBX 13 15 0 0
BITMAP
0E40
1380
0000
0200
0600
0700
0900
0980
0980
10C0
1FC0
2040
2060
6060
F0F8
ENDCHAR
STARTCHAR Adieresis
ENCODING 196
SWIDTH 718 0
DWIDTH 13 0
BBX 13 15 0 0
BITMAP
1980
0980
0000
0200
0600
0700
0900
0980
0980
10C0
1FC0
2040
2060
6060
F0F8
ENDCHAR
STARTCHAR Aring
ENCODING 197
SWIDTH 718 0
DWIDTH 13 0
BBX 13 17 0 0
BITMAP
0700
0900
0900
0700
0000
0200
0600
0700
0900
0980
0980
10C0
1FC0
2040
2060
6060
F0F8
ENDCHAR
STARTCHAR AE
ENCODING 198
SWIDTH 894 0
DWIDTH 16 0
BBX 16 12 0 0
BITMAP
07FE
0382
0382
0580
0984
0984
1FFC
1184
2181
2181
4182
E3FE
ENDCHAR
STARTCHAR Ccedilla
ENCODING 199
SWIDTH 670 0
DWIDTH 12 0
BBX 10 16 1 -4
BITMAP
1FC0
20C0
6040
C040
C000
C000
C000
C000
C000
6040
3040
1F80
0400
0E00
0200
0E00
ENDCHAR
STARTCHAR Egrave
ENCODING 200
SWIDTH 626 0
DWIDTH 11 0
BBX 10 16 1 0
BITMAP
1800
0800
0600
0000
FF80
6080
6080
6100
6100
7F00
6100
6000
6040
6040
6080
FF80
ENDCHAR
STARTCHAR Eacute
ENCODING 201
SWIDTH 626 0
DWIDTH 11 0
BBX 10 16 1 0
BITMAP
0600
0C00
1800
0000
FF80
6080
6080
6100
6100
7F00
6100
6000
6040
6040
6080
FF80
ENDCHAR
STARTCHAR Ecircumflex
ENCODING 202
SWIDTH 626 0
DWIDTH 11 0
BBX 10 16 1 0
BITMAP
0800
1C00
3200
0000
FF80
6080
6080
6100
6100
7F00
6100
6000
6040
6040
6080
FF80
ENDCHAR
STARTCHAR Edieresis
ENCODING 203
SWIDTH 626 0
DWIDTH 11 0
BBX 10 15 1 0
BITMAP
3300
3300
0000
FF80
6080
6080
6100
6100
7F00
6100
6000
6040
6040
6080
FF80
ENDCHAR
STARTCHAR Igrave
ENCODING 204
SWIDTH 357 0
DWIDTH 6 0
BBX 5 16 1 0
BITMAP
C0
60
30
00
F8
60
60
60
60
60
60
60
60
60
60
F8
ENDCHAR
STARTCHAR Iacute
ENCODING 205
SWIDTH 357 0
DWIDTH 6 0
BBX 5 16 1 0
BITMAP
30
20
C0
00
F8
60
60
60
60
60
60
60
60
60
60
F8
ENDCHAR
STARTCHAR Icircumflex
ENCODING 206
SWIDTH 357 0
DWIDTH 6 0
BBX 5 16 1 0
BITMAP
20
70
98
00
F8
60
60
60
60
60
60
60
60
60
60
F8
ENDCHAR
STARTCHAR Idieresis
ENCODING 207
SWIDTH 357 0
DWIDTH 6 0
BBX 6 15 0 0
BITMAP
CC
CC
00
7C
30
30
30
30
30
30
30
30
30
30
7C
ENDCHAR
STARTCHAR Eth
ENCODING 208
SWIDTH 737 0
DWIDTH 13 0
BBX 11 12 1 0
BITMAP
FF00
61C0
60C0
6060
6060
FC60
6060
6060
6060
6040
60C0
FF00
ENDCHAR
STARTCHAR Ntilde
ENCODING 209
SWIDTH 742 0
DWIDTH 13 0
BBX 12 15 1 0
BITMAP
0C80
1300
0000
E0F0
7040
7040
5840
4C40
4E40
4740
4340
41C0
40C0
40C0
F040
ENDCHAR
STARTCHAR Ograve
ENCODING 210
SWIDTH 738 0
DWIDTH 13 0
BBX 11 16 1 0
BITMAP
0C00
0C00
0200
0000
1F00
20C0
6060
C060
C060
C060
C060
C060
C060
6040
20C0
1F00
ENDCHAR
STARTCHAR Oacute
ENCODING 211
SWIDTH 738 0
DWIDTH 13 0
BBX 11 16 1 0
BITMAP
0300
0600
0800
0000
1F00
20C0
6060
C060
C060
C060
C060
C060
C060
6040
20C0
1F00
ENDCHAR
STARTCHAR Ocircumflex
ENCODING 212
SWIDTH 738 0
DWIDTH 13 0
BBX 11 16 1 0
BITMAP
0400
0E00
1100
0000
1F00
20C0
6060
C060
C060
C060
C060
C060
C060
6040
20C0
1F00
ENDCHAR
STARTCHAR Otilde
ENCODING 213
SWIDTH 738 0
DWIDTH 13 0
BBX 11 15 1 0
BITMAP
0C80
1300
0000
1F00
20C0
6060
C060
C060
C060
C060
C060
C060
6040
20C0
1F00
ENDCHAR
STARTCHAR Odieresis
ENCODING 214
SWIDTH 738 0
DWIDTH 13 0
BBX 11 15 1 0
BITMAP
1980
1980
0000
1F00
20C0
6060
C060
C060
C060
C060
C060
C060
6040
20C0
1F00
ENDCHAR
STARTCHAR multiply
ENCODING 215
SWIDTH 720 0
DWIDTH 13 0
BBX 11 10 1 0
BITMAP
4040
C060
2180
1300
0E00
0C00
1A00
3100
2080
C060
ENDCHAR
STARTCHAR Oslash
ENCODING 216
SWIDTH 737 0
DWIDTH 13 0
BBX 11 12 1 0
BITMAP
1F40
20C0
60C0
C160
C260
C460
C460
C860
D060
6040
60C0
9F00
ENDCHAR
STARTCHAR Ugrave
ENCODING 217
SWIDTH 752 0
DWIDTH 14 0
BBX 13 16 0 0
BITMAP
0600
0300
0180
0000
FC78
3030
3030
3030
3030
3030
3030
3030
3020
3020
1820
0FC0
ENDCHAR
STARTCHAR Uacute
ENCODING 218
SWIDTH 752 0
DWIDTH 14 0
BBX 13 16 0 0
BITMAP
0180
0100
0600
0000
FC78
3030
3030
3030
3030
3030
3030
3030
3020
3020
1820
0FC0
ENDCHAR
STARTCHAR Ucircumflex
ENCODING 219
SWIDTH 752 0
DWIDTH 14 0
BBX 13 16 0 0
BITMAP
0100
0380
04C0
0000
FC78
3030
3030
3030
3030
3030
3030
3030
3020
3020
1820
0FC0
ENDCHAR
STARTCHAR Udieresis
ENCODING 220
SWIDTH 752 0
DWIDTH 14 0
BBX 13 15 0 0
BITMAP
0CC0
0CC0
0000
FC78
3030
3030
3030
3030
3030
3030
3030
3020
3020
1820
0FC0
ENDCHAR
STARTCHAR Yacute
ENCODING 221
SWIDTH 647 0
DWIDTH 12 0
BBX 12 16 0 0
BITMAP
0300
0200
0C00
0000
F8F0
7040
3080
1880
1900
0D00
0600
0600
0600
0600
0600
1F80
ENDCHAR
STARTCHAR Thorn
ENCODING 222
SWIDTH 572 0
DWIDTH 10 0
BBX 9 12 1 0
BITMAP
F800
6000
7E00
6300
6180
6180
6180
6300
7C00
6000
6000
F800
ENDCHAR
STARTCHAR germandbls
ENCODING 223
SWIDTH 563 0
DWIDTH 10 0
BBX 10 13 0 0
BITMAP
1F00
3100
2100
2100
6200
2600
2100
2180
20C0
20C0
2080
2C80
E700
ENDCHAR
STARTCHAR agrave
ENCODING 224
SWIDTH 480 0
DWIDTH 9 0
BBX 8 13 1 0
BITMAP
60
30
10
00
78
CC
CC
0C
3C
CC
8C
8C
F7
ENDCHAR
STARTCHAR aacute
ENCODING 225
SWIDTH 480 0
DWIDTH 9 0
BBX 8 13 1 0
BITMAP
18
10
20
00
78
CC
CC
0C
3C
CC
8C
8C
F7
ENDCHAR
STARTCHAR acircumflex
ENCODING 226
SWIDTH 480 0
DWIDTH 9 0
BBX 8 13 1 0
BITMAP
30
28
4C
00
78
CC
CC
0C
3C
CC
8C
8C
F7
ENDCHAR
STARTCHAR atilde
ENCODING 227
SWIDTH 480 0
DWIDTH 9 0
BBX 8 12 1 0
BITMAP
64
98
00
78
CC
CC
0C
3C
CC
8C
8C
F7
ENDCHAR
STARTCHAR adieresis
ENCODING 228
SWIDTH 480 0
DWIDTH 9 0
BBX 8 12 1 0
BITMAP
CC
CC
00
78
CC
CC
0C
3C
CC
8C
8C
F7
ENDCHAR
STARTCHAR aring
ENCODING 229
SWIDTH 480 0
DWIDTH 9 0
BBX 8 14 1 0
BITMAP
30
48
48
30
00
78
CC
CC
0C
3C
CC
8C
8C
F7
ENDCHAR
STARTCHAR ae
ENCODING 230
SWIDTH 709 0
DWIDTH 13 0
BBX 11 9 1 0
BITMAP
7BC0
CC60
8C60
1FE0
6C00
CC00
8C20
8E20
F3C0
ENDCHAR
STARTCHAR ccedilla
ENCODING 231
SWIDTH 446 0
DWIDTH 8 0
BBX 7 13 1 -4
BITMAP
3C
4C
84
80
80
80
C2
C4
78
10
18
08
38
ENDCHAR
STARTCHAR egrave
ENCODING 232
SWIDTH 464 0
DWIDTH 8 0
BBX 7 13 1 0
BITMAP
60
30
10
00
78
C4
86
FE
80
80
C2
E4
38
ENDCHAR
STARTCHAR eacute
ENCODING 233
SWIDTH 464 0
DWIDTH 8 0
BBX 7 13 1 0
BITMAP
18
10
30
00
78
C4
86
FE
80
80
C2
E4
38
ENDCHAR
STARTCHAR ecircumflex
ENCODING 234
SWIDTH 464 0
DWIDTH 8 0
BBX 7 13 1 0
BITMAP
30
28
44
00
78
C4
86
FE
80
80
C2
E4
38
ENDCHAR
STARTCHAR edieresis
ENCODING 235
SWIDTH 464 0
DWIDTH 8 0
BBX 7 12 1 0
BITMAP
CC
4C
00
78
C4
86
FE
80
80
C2
E4
38
ENDCHAR
STARTCHAR igrave
ENCODING 236
SWIDTH 285 0
DWIDTH 5 0
BBX 5 13 0 0
BITMAP
C0
60
20
00
60
20
20
20
20
20
20
20
78
ENDCHAR
STARTCHAR iacute
ENCODING 237
SWIDTH 285 0
DWIDTH 5 0
BBX 4 13 1 0
BITMAP
60
40
80
00
C0
40
40
40
40
40
40
40
F0
ENDCHAR
STARTCHAR icircumflex
ENCODING 238
SWIDTH 285 0
DWIDTH 5 0
BBX 5 13 0 0
BITMAP
60
50
90
08
60
20
20
20
20
20
20
20
78
ENDCHAR
STARTCHAR idieresis
ENCODING 239
SWIDTH 285 0
DWIDTH 5 0
BBX 6 12 -1 0
BITMAP
4C
EC
00
30
10
10
10
10
10
10
10
3C
ENDCHAR
STARTCHAR eth
ENCODING 240
SWIDTH 532 0
DWIDTH 10 0
BBX 8 13 1 0
BITMAP
79
0E
36
02
3A
C7
83
83
83
82
C2
C6
7C
ENDCHAR
STARTCHAR ntilde
ENCODING 241
SWIDTH 576 0
DWIDTH 10 0
BBX 9 12 1 0
BITMAP
3900
4E00
0000
DE00
6200
4300
4300
4300
4300
4300
4300
F780
ENDCHAR
STARTCHAR ograve
ENCODING 242
SWIDTH 514 0
DWIDTH 9 0
BBX 8 13 1 0
BITMAP
30
10
18
00
3C
C6
82
83
83
83
C2
C6
3C
ENDCHAR
STARTCHAR oacute
ENCODING 243
SWIDTH 514 0
DWIDTH 9 0
BBX 8 13 1 0
BITMAP
0C
18
10
00
3C
C6
82
83
83
83
C2
C6
3C
ENDCHAR
STARTCHAR ocircumflex
ENCODING 244
SWIDTH 514 0
DWIDTH 9 0
BBX 8 13 1 0
BITMAP
18
28
44
00
3C
C6
82
83
83
83
C2
C6
3C
ENDCHAR
STARTCHAR otilde
ENCODING 245
SWIDTH 514 0
DWIDTH 9 0
BBX 8 12 1 0
BITMAP
32
4C
00
3C
C6
82
83
83
83
C2
C6
3C
ENDCHAR
STARTCHAR odieresis
ENCODING 246
SWIDTH 514 0
DWIDTH 9 0
BBX 8 12 1 0
BITMAP
66
66
00
3C
C6
82
83
83
83
C2
C6
3C
ENDCHAR
STARTCHAR divide
ENCODING 247
SWIDTH 720 0
DWIDTH 13 0
BBX 11 10 1 0
BITMAP
0400
0E00
0000
0000
0000
FFE0
0000
0000
0E00
0400
ENDCHAR
STARTCHAR oslash
ENCODING 248
SWIDTH 514 0
DWIDTH 9 0
BBX 8 9 1 0
BITMAP
3E
C6
8A
8B
93
A3
C2
C6
BC
ENDCHAR
STARTCHAR ugrave
ENCODING 249
SWIDTH 570 0
DWIDTH 10 0
BBX 10 13 0 0
BITMAP
1800
0800
0400
0000
E300
2100
2100
2100
2100
2100
2100
2300
3DC0
ENDCHAR
STARTCHAR uacute
ENCODING 250
SWIDTH 570 0
DWIDTH 10 0
BBX 10 13 0 0
BITMAP
0600
0400
0800
0000
E300
2100
2100
2100
2100
2100
2100
2300
3DC0
ENDCHAR
STARTCHAR ucircumflex
ENCODING 251
SWIDTH 570 0
DWIDTH 10 0
BBX 10 13 0 0
BITMAP
0C00
1E00
3200
0000
E300
2100
2100
2100
2100
2100
2100
2300
3DC0
ENDCHAR
STARTCHAR udieresis
ENCODING 252
SWIDTH 570 0
DWIDTH 10 0
BBX 10 12 0 0
BITMAP
3300
3300
0000
E300
2100
2100
2100
2100
2100
2100
2300
3DC0
ENDCHAR
STARTCHAR yacute
ENCODING 253
SWIDTH 483 0
DWIDTH 9 0
BBX 9 17 0 -4
BITMAP
0600
0C00
0800
0000
F380
6100
6200
3200
3200
1400
1C00
0800
0800
0800
1000
D000
E000
ENDCHAR
STARTCHAR thorn
ENCODING 254
SWIDTH 524 0
DWIDTH 9 0
BBX 9 17 0 -4
BITMAP
E000
6000
6000
6000
6E00
7100
6180
6180
6180
6180
6100
6300
7E00
6000
6000
6000
F800
ENDCHAR
STARTCHAR ydieresis
ENCODING 255
SWIDTH 483 0
DWIDTH 9 0
BBX 9 16 0 -4
BITMAP
3300
3300
0000
F380
6100
6200
3200
3200
1400
1C00
0800
0800
0800
1000
D000
E000
ENDCHAR
STARTCHAR Amacron
ENCODING 256
SWIDTH 718 0
DWIDTH 13 0
BBX 13 14 0 0
BITMAP
0F80
0000
0200
0600
0700
0900
0980
0980
10C0
1FC0
2040
2060
6060
F0F8
ENDCHAR
STARTCHAR amacron
ENCODING 257
SWIDTH 480 0
DWIDTH 9 0
BBX 8 11 1 0
BITMAP
7C
00
78
CC
CC
0C
3C
CC
8C
8C
F7
ENDCHAR
STARTCHAR Abreve
ENCODING 258
SWIDTH 718 0
DWIDTH 13 0
BBX 13 16 0 0
BITMAP
0880
0880
0700
0000
0200
0600
0700
0900
0980
0980
10C0
1FC0
2040
2060
6060
F0F8
ENDCHAR
STARTCHAR abreve
ENCODING 259
SWIDTH 480 0
DWIDTH 9 0
BBX 8 13 1 0
BITMAP
84
44
38
00
78
CC
CC
0C
3C
CC
8C
8C
F7
ENDCHAR
STARTCHAR Aogonek
ENCODING 260
SWIDTH 719 0
DWIDTH 13 0
BBX 13 16 0 -4
BITMAP
0200
0600
0700
0900
0980
0980
10C0
1FC0
2040
2060
6060
F0F8
0100
0300
0300
01C0
ENDCHAR
STARTCHAR aogonek
ENCODING 261
SWIDTH 480 0
DWIDTH 9 0
BBX 8 13 1 -4
BITMAP
78
CC
CC
0C
3C
CC
8C
8D
F6
04
08
09
0E
ENDCHAR
STARTCHAR Cacute
ENCODING 262
SWIDTH 670 0
DWIDTH 12 0
BBX 10 16 1 0
BITMAP
0300
0600
0C00
0000
1FC0
20C0
6040
C040
C000
C000
C000
C000
C000
6040
3040
1F80
ENDCHAR
STARTCHAR cacute
ENCODING 263
SWIDTH 446 0
DWIDTH 8 0
BBX 7 13 1 0
BITMAP
18
10
30
00
3C
CC
84
80
80
80
C2
C4
78
ENDCHAR
STARTCHAR Ccircumflex
ENCODING 264
SWIDTH 670 0
DWIDTH 12 0
BBX 10 16 1 0
BITMAP
0400
0E00
1900
0000
1FC0
20C0
6040
C040
C000
C000
C000
C000
C000
6040
3040
1F80
ENDCHAR
STARTCHAR ccircumflex
ENCODING 265
SWIDTH 446 0
DWIDTH 8 0
BBX 7 13 1 0
BITMAP
30
28
44
00
3C
CC
84
80
80
80
C2
C4
78
ENDCHAR
STARTCHAR Cdotaccent
ENCODING 266
SWIDTH 670 0
DWIDTH 12 0
BBX 10 15 1 0
BITMAP
0600
0600
0000
1FC0
20C0
6040
C040
C000
C000
C000
C000
C000
6040
3040
1F80
ENDCHAR
STARTCHAR cdotaccent
ENCODING 267
SWIDTH 446 0
DWIDTH 8 0
BBX 7 12 1 0
BITMAP
30
30
00
3C
CC
84
80
80
80
C2
C4
78
ENDCHAR
STARTCHAR Ccaron
ENCODING 268
SWIDTH 670 0
DWIDTH 12 0
BBX 10 16 1 0
BITMAP
1080
0B00
0600
0000
1FC0
20C0
6040
C040
C000
C000
C000
C000
C000
6040
3040
1F80
ENDCHAR
STARTCHAR ccaron
ENCODING 269
SWIDTH 446 0
DWIDTH 8 0
BBX 7 13 1 0
BITMAP
44
28
30
00
3C
CC
84
80
80
80
C2
C4
78
ENDCHAR
STARTCHAR Dcaron
ENCODING 270
SWIDTH 730 0
DWIDTH 13 0
BBX 11 16 1 0
BITMAP
2100
1A00
0C00
0000
FF00
61C0
60C0
6060
6060
6060
6060
6060
6060
6040
60C0
FF00
ENDCHAR
STARTCHAR dcaron
ENCODING 271
SWIDTH 626 0
DWIDTH 11 0
BBX 10 13 1 0
BITMAP
0EC0
06C0
0680
0680
3E00
4600
8600
8600
8600
8600
8600
C600
7B00
ENDCHAR
STARTCHAR Dcroat
ENCODING 272
SWIDTH 733 0
DWIDTH 13 0
BBX 11 12 1 0
BITMAP
FF00
61C0
60C0
6060
6060
FC60
6060
6060
6060
6040
60C0
FF00
ENDCHAR
STARTCHAR dcroat
ENCODING 273
SWIDTH 540 0
DWIDTH 10 0
BBX 8 13 1 0
BITMAP
0E
06
1F
06
3E
46
86
86
86
86
86
C6
7B
ENDCHAR
STARTCHAR Emacron
ENCODING 274
SWIDTH 626 0
DWIDTH 11 0
BBX 10 14 1 0
BITMAP
3E00
0000
FF80
6080
6080
6100
6100
7F00
6100
6000
6040
6040
6080
FF80
ENDCHAR
STARTCHAR emacron
ENCODING 275
SWIDTH 464 0
DWIDTH 8 0
BBX 7 11 1 0
BITMAP
7C
00
78
C4
86
FE
80
80
C2
E4
38
ENDCHAR
STARTCHAR Ebreve
ENCODING 276
SWIDTH 626 0
DWIDTH 11 0
BBX 10 16 1 0
BITMAP
2100
2200
1C00
0000
FF80
6080
6080
6100
6100
7F00
6100
6000
6040
6040
6080
FF80
ENDCHAR
STARTCHAR ebreve
ENCODING 277
SWIDTH 464 0
DWIDTH 8 0
BBX 7 13 1 0
BITMAP
44
44
38
00
78
C4
86
FE
80
80
C2
E4
38
ENDCHAR
STARTCHAR Edotaccent
ENCODING 278
SWIDTH 626 0
DWIDTH 11 0
BBX 10 15 1 0
BITMAP
0C00
0C00
0000
FF80
6080
6080
6100
6100
7F00
6100
6000
6040
6040
6080
FF80
ENDCHAR
STARTCHAR edotaccent
ENCODING 279
SWIDTH 464 0
DWIDTH 8 0
BBX 7 12 1 0
BITMAP
30
30
00
78
C4
86
FE
80
80
C2
E4
38
ENDCHAR
STARTCHAR Eogonek
ENCODING 280
SWIDTH 625 0
DWIDTH 11 0
BBX 10 16 1 -4
BITMAP
FF80
6080
6000
6100
6100
7F00
6100
6000
6000
6040
6080
FF80
0100
0200
0240
0380
ENDCHAR
STARTCHAR eogonek
ENCODING 281
SWIDTH 464 0
DWIDTH 8 0
BBX 7 13 1 -4
BITMAP
78
C4
86
FE
80
80
C2
E4
3C
10
20
20
1C
ENDCHAR
STARTCHAR Ecaron
ENCODING 282
SWIDTH 626 0
DWIDTH 11 0
BBX 10 16 1 0
BITMAP
2100
1600
0C00
0000
FF80
6080
6080
6100
6100
7F00
6100
6000
6040
6040
6080
FF80
ENDCHAR
STARTCHAR ecaron
ENCODING 283
SWIDTH 464 0
DWIDTH 8 0
BBX 7 13 1 0
BITMAP
44
28
30
00
78
C4
86
FE
80
80
C2
E4
38
ENDCHAR
STARTCHAR Gcircumflex
ENCODING 284
SWIDTH 720 0
DWIDTH 13 0
BBX 11 16 1 0
BITMAP
0400
0E00
1900
0000
1FC0
20C0
6040
C040
C000
C000
C1E0
C0C0
C0C0
60C0
60C0
1F80
ENDCHAR
STARTCHAR gcircumflex
ENCODING 285
SWIDTH 484 0
DWIDTH 9 0
BBX 9 17 0 -4
BITMAP
1800
1400
2200
0000
3F80
6600
6200
6200
6200
3C00
4000
4000
7F00
4100
4100
C100
7E00
ENDCHAR
STARTCHAR Gbreve
ENCODING 286
SWIDTH 720 0
DWIDTH 13 0
BBX 11 16 1 0
BITMAP
1080
1100
0E00
0000
1FC0
20C0
6040
C040
C000
C000
C1E0
C0C0
C0C0
60C0
60C0
1F80
ENDCHAR
STARTCHAR gbreve
ENCODING 287
SWIDTH 484 0
DWIDTH 9 0
BBX 9 17 0 -4
BITMAP
2200
2200
1C00
0000
3F80
6600
6200
6200
6200
3C00
4000
4000
7F00
4100
4100
C100
7E00
ENDCHAR
STARTCHAR Gdotaccent
ENCODING 288
SWIDTH 720 0
DWIDTH 13 0
BBX 11 15 1 0
BITMAP
0600
0600
0000
1FC0
20C0
6040
C040
C000
C000
C1E0
C0C0
C0C0
60C0
60C0
1F80
ENDCHAR
STARTCHAR gdotaccent
ENCODING 289
SWIDTH 484 0
DWIDTH 9 0
BBX 9 16 0 -4
BITMAP
1800
1800
0000
3F80
6600
6200
6200
6200
3C00
4000
4000
7F00
4100
4100
C100
7E00
ENDCHAR
STARTCHAR Gcommaaccent
ENCODING 290
SWIDTH 720 0
DWIDTH 13 0
BBX 11 17 1 -5
BITMAP
1FC0
20C0
6040
C040
C000
C000
C1E0
C0C0
C0C0
60C0
60C0
1F80
0000
0C00
0E00
0200
0C00
ENDCHAR
STARTCHAR gcommaaccent
ENCODING 291
SWIDTH 484 0
DWIDTH 9 0
BBX 9 18 0 -4
BITMAP
0800
1000
1800
1800
0000
3F80
6600
6200
6200
6200
3C00
4000
4000
7F00
4100
4100
C100
7E00
ENDCHAR
STARTCHAR Hcircumflex
ENCODING 292
SWIDTH 777 0
DWIDTH 14 0
BBX 12 16 1 0
BITMAP
0600
0600
1980
0000
F9F0
6060
6060
6060
6060
7FE0
6060
6060
6060
6060
6060
F9F0
ENDCHAR
STARTCHAR hcircumflex
ENCODING 293
SWIDTH 577 0
DWIDTH 10 0
BBX 10 17 0 0
BITMAP
0C00
1C00
3300
0000
E000
2000
2000
2000
2F00
3100
2180
2180
2180
2180
2180
2180
7BC0
ENDCHAR
STARTCHAR Hbar
ENCODING 294
SWIDTH 788 0
DWIDTH 14 0
BBX 12 12 1 0
BITMAP
F9F0
6060
6060
FFF0
6060
7FE0
6060
6060
6060
6060
6060
F9F0
ENDCHAR
STARTCHAR hbar
ENCODING 295
SWIDTH 579 0
DWIDTH 10 0
BBX 10 13 0 0
BITMAP
E000
2000
FC00
2000
2F00
3100
2180
2180
2180
2180
2180
2180
7BC0
ENDCHAR
STARTCHAR Itilde
ENCODING 296
SWIDTH 357 0
DWIDTH 6 0
BBX 6 15 0 0
BITMAP
74
9C
00
7C
30
30
30
30
30
30
30
30
30
30
7C
ENDCHAR
STARTCHAR itilde
ENCODING 297
SWIDTH 285 0
DWIDTH 5 0
BBX 5 12 0 0
BITMAP
C8
B0
00
60
20
20
20
20
20
20
20
78
ENDCHAR
STARTCHAR Imacron
ENCODING 298
SWIDTH 357 0
DWIDTH 6 0
BBX 5 14 1 0
BITMAP
F8
00
F8
60
60
60
60
60
60
60
60
60
60
F8
ENDCHAR
STARTCHAR imacron
ENCODING 299
SWIDTH 285 0
DWIDTH 5 0
BBX 5 11 0 0
BITMAP
F8
00
60
20
20
20
20
20
20
20
78
ENDCHAR
STARTCHAR Ibreve
ENCODING 300
SWIDTH 357 0
DWIDTH 6 0
BBX 5 16 1 0
BITMAP
88
88
70
00
F8
60
60
60
60
60
60
60
60
60
60
F8
ENDCHAR
STARTCHAR ibreve
ENCODING 301
SWIDTH 285 0
DWIDTH 5 0
BBX 5 13 0 0
BITMAP
88
90
70
00
60
20
20
20
20
20
20
20
78
ENDCHAR
STARTCHAR Iogonek
ENCODING 302
SWIDTH 357 0
DWIDTH 6 0
BBX 5 16 1 -4
BITMAP
F8
60
60
60
60
60
60
60
60
60
60
F8
20
40
40
70
ENDCHAR
STARTCHAR iogonek
ENCODING 303
SWIDTH 285 0
DWIDTH 5 0
BBX 4 17 1 -4
BITMAP
60
60
00
00
C0
40
40
40
40
40
40
40
F0
40
80
90
E0
ENDCHAR
STARTCHAR Idotaccent
ENCODING 304
SWIDTH 357 0
DWIDTH 6 0
BBX 5 15 1 0
BITMAP
60
60
00
F8
60
60
60
60
60
60
60
60
60
60
F8
ENDCHAR
STARTCHAR dotlessi
ENCODING 305
SWIDTH 285 0
DWIDTH 5 0
BBX 4 9 1 0
BITMAP
C0
40
40
40
40
40
40
40
F0
ENDCHAR
STARTCHAR IJ
ENCODING 306
SWIDTH 753 0
DWIDTH 14 0
BBX 12 12 1 0
BITMAP
F9F0
6060
6060
6060
6060
6060
6060
6060
6060
6060
6640
FBC0
ENDCHAR
STARTCHAR ij
ENCODING 307
SWIDTH 548 0
DWIDTH 10 0
BBX 8 16 1 -4
BITMAP
63
63
00
C6
42
42
42
42
42
42
42
F2
02
02
32
1C
ENDCHAR
STARTCHAR Jcircumflex
ENCODING 308
SWIDTH 396 0
DWIDTH 7 0
BBX 7 16 0 0
BITMAP
08
1C
22
00
3E
18
18
18
18
18
18
18
18
18
D8
F0
ENDCHAR
STARTCHAR jcircumflex
ENCODING 309
SWIDTH 263 0
DWIDTH 5 0
BBX 7 17 -2 -4
BITMAP
18
14
22
00
38
08
08
08
08
08
08
08
08
08
08
C8
70
ENDCHAR
STARTCHAR Kcommaaccent
ENCODING 310
SWIDTH 702 0
DWIDTH 13 0
BBX 12 17 1 -5
BITMAP
FBE0
6180
6100
6200
6400
6800
7800
6E00
6700
6380
61C0
FBF0
0000
0C00
0E00
0200
0C00
ENDCHAR
STARTCHAR kcommaaccent
ENCODING 311
SWIDTH 542 0
DWIDTH 10 0
BBX 10 18 0 -5
BITMAP
E000
2000
2000
2000
2780
2200
2400
2800
3800
2C00
2600
2300
7BC0
0000
0C00
0C00
0400
0800
ENDCHAR
STARTCHAR kgreenlandic
ENCODING 312
SWIDTH 542 0
DWIDTH 10 0
BBX 10 9 0 0
BITMAP
E780
2200
2400
2800
3800
2C00
2600
2300
7BC0
ENDCHAR
STARTCHAR Lacute
ENCODING 313
SWIDTH 585 0
DWIDTH 11 0
BBX 9 16 1 0
BITMAP
1800
3000
6000
0000
F800
6000
6000
6000
6000
6000
6000
6000
6080
6080
6080
FF80
ENDCHAR
STARTCHAR lacute
ENCODING 314
SWIDTH 283 0
DWIDTH 5 0
BBX 5 17 0 0
BITMAP
18
30
60
00
E0
20
20
20
20
20
20
20
20
20
20
20
78
ENDCHAR
STARTCHAR Lcommaaccent
ENCODING 315
SWIDTH 585 0
DWIDTH 11 0
BBX 9 17 1 -5
BITMAP
F800
6000
6000
6000
6000
6000
6000
6000
6080
6080
6080
FF80
0000
1800
1800
0800
1800
ENDCHAR
STARTCHAR lcommaaccent
ENCODING 316
SWIDTH 283 0
DWIDTH 5 0
BBX 5 18 0 -5
BITMAP
E0
20
20
20
20
20
20
20
20
20
20
20
78
00
60
70
10
60
ENDCHAR
STARTCHAR Lcaron
ENCODING 317
SWIDTH 585 0
DWIDTH 11 0
BBX 9 12 1 0
BITMAP
F900
6100
6100
6200
6000
6000
6000
6000
6080
6080
6080
FF80
ENDCHAR
STARTCHAR lcaron
ENCODING 318
SWIDTH 366 0
DWIDTH 7 0
BBX 6 13 0 0
BITMAP
E4
24
24
28
20
20
20
20
20
20
20
20
78
ENDCHAR
STARTCHAR Ldot
ENCODING 319
SWIDTH 605 0
DWIDTH 11 0
BBX 9 12 1 0
BITMAP
F800
6000
6000
6000
6000
6180
6180
6000
6080
6080
6080
FF80
ENDCHAR
STARTCHAR ldot
ENCODING 320
SWIDTH 357 0
DWIDTH 6 0
BBX 7 13 0 0
BITMAP
E0
20
20
20
20
20
26
26
20
20
20
20
78
ENDCHAR
STARTCHAR Lslash
ENCODING 321
SWIDTH 590 0
DWIDTH 11 0
BBX 9 12 1 0
BITMAP
F800
6000
6000
6000
6C00
7000
6000
E000
6080
6080
6080
FF80
ENDCHAR
STARTCHAR lslash
ENCODING 322
SWIDTH 290 0
DWIDTH 5 0
BBX 5 13 0 0
BITMAP
60
20
20
20
28
30
60
A0
20
20
20
20
78
ENDCHAR
STARTCHAR Nacute
ENCODING 323
SWIDTH 742 0
DWIDTH 13 0
BBX 12 16 1 0
BITMAP
0300
0600
0C00
0000
E0F0
7040
7040
5840
4C40
4E40
4740
4340
41C0
40C0
40C0
F040
ENDCHAR
STARTCHAR nacute
ENCODING 324
SWIDTH 576 0
DWIDTH 10 0
BBX 9 13 1 0
BITMAP
0C00
0800
1800
0000
DE00
6200
4300
4300
4300
4300
4300
4300
F780
ENDCHAR
STARTCHAR Ncommaaccent
ENCODING 325
SWIDTH 742 0
DWIDTH 13 0
BBX 12 17 1 -5
BITMAP
E0F0
7040
7040
5840
4C40
4E40
4740
4340
41C0
40C0
40C0
F040
0000
0C00
0E00
0200
0C00
ENDCHAR
STARTCHAR ncommaaccent
ENCODING 326
SWIDTH 576 0
DWIDTH 10 0
BBX 9 14 1 -5
BITMAP
DE00
6200
4300
4300
4300
4300
4300
4300
F780
0000
1800
1800
0800
1000
ENDCHAR
STARTCHAR Ncaron
ENCODING 327
SWIDTH 742 0
DWIDTH 13 0
BBX 12 16 1 0
BITMAP
1080
0B00
0600
0000
E0F0
7040
7040
5840
4C40
4E40
4740
4340
41C0
40C0
40C0
F040
ENDCHAR
STARTCHAR ncaron
ENCODING 328
SWIDTH 576 0
DWIDTH 10 0
BBX 9 13 1 0
BITMAP
2200
1400
0800
0000
DE00
6200
4300
4300
4300
4300
4300
4300
F780
ENDCHAR
STARTCHAR napostrophe
ENCODING 329
SWIDTH 576 0
DWIDTH 10 0
BBX 13 13 -3 0
BITMAP
C000
E000
2000
4000
8DE0
0620
0430
0430
0430
0430
0430
0430
0F78
ENDCHAR
STARTCHAR Eng
ENCODING 330
SWIDTH 742 0
DWIDTH 13 0
BBX 12 16 1 -4
BITMAP
E0F0
7040
7040
5840
4C40
4E40
4640
4340
41C0
41C0
40C0
F040
0040
0040
0640
0780
ENDCHAR
STARTCHAR eng
ENCODING 331
SWIDTH 559 0
DWIDTH 10 0
BBX 8 13 1 -4
BITMAP
DE
62
43
43
43
43
43
43
F3
03
03
12
1C
ENDCHAR
STARTCHAR Omacron
ENCODING 332
SWIDTH 738 0
DWIDTH 13 0
BBX 11 14 1 0
BITMAP
1F00
0000
1F00
20C0
6060
C060
C060
C060
C060
C060
C060
6040
20C0
1F00
ENDCHAR
STARTCHAR omacron
ENCODING 333
SWIDTH 514 0
DWIDTH 9 0
BBX 8 11 1 0
BITMAP
7C
00
3C
C6
82
83
83
83
C2
C6
3C
ENDCHAR
STARTCHAR Obreve
ENCODING 334
SWIDTH 738 0
DWIDTH 13 0
BBX 11 16 1 0
BITMAP
1100
1100
0E00
0000
1F00
20C0
6060
C060
C060
C060
C060
C060
C060
6040
20C0
1F00
ENDCHAR
STARTCHAR obreve
ENCODING 335
SWIDTH 514 0
DWIDTH 9 0
BBX 8 13 1 0
BITMAP
44
44
38
00
3C
C6
82
83
83
83
C2
C6
3C
ENDCHAR
STARTCHAR Ohungarumlaut
ENCODING 336
SWIDTH 738 0
DWIDTH 13 0
BBX 11 15 1 0
BITMAP
07C0
0B00
0000
1F00
20C0
6060
C060
C060
C060
C060
C060
C060
6040
20C0
1F00
ENDCHAR
STARTCHAR ohungarumlaut
ENCODING 337
SWIDTH 514 0
DWIDTH 9 0
BBX 8 13 1 0
BITMAP
1E
14
2C
00
3C
C6
82
83
83
83
C2
C6
3C
ENDCHAR
STARTCHAR OE
ENCODING 338
SWIDTH 945 0
DWIDTH 17 0
BBX 16 12 1 0
BITMAP
1FFE
2182
6180
C184
C184
C1F8
C184
C180
C181
6182
2182
1FFE
ENDCHAR
STARTCHAR oe
ENCODING 339
SWIDTH 807 0
DWIDTH 15 0
BBX 13 9 1 0
BITMAP
38E0
C710
8218
83F8
8200
8300
C308
C790
3CE0
ENDCHAR
STARTCHAR Racute
ENCODING 340
SWIDTH 659 0
DWIDTH 12 0
BBX 11 16 1 0
BITMAP
0600
0C00
1000
0000
FE00
6300
6180
6180
6180
6300
7C00
6600
6300
6300
6180
F8E0
ENDCHAR
STARTCHAR racute
ENCODING 341
SWIDTH 380 0
DWIDTH 7 0
BBX 6 13 1 0
BITMAP
18
30
20
00
CC
5C
60
40
40
40
40
40
F0
ENDCHAR
STARTCHAR Rcommaaccent
ENCODING 342
SWIDTH 659 0
DWIDTH 12 0
BBX 11 17 1 -5
BITMAP
FE00
6300
6180
6180
6180
6300
7C00
6600
6300
6300
6180
F8E0
0000
0C00
0C00
0400
0800
ENDCHAR
STARTCHAR rcommaaccent
ENCODING 343
SWIDTH 380 0
DWIDTH 7 0
BBX 6 14 1 -5
BITMAP
CC
5C
60
40
40
40
40
40
F0
00
60
60
20
40
ENDCHAR
STARTCHAR Rcaron
ENCODING 344
SWIDTH 659 0
DWIDTH 12 0
BBX 11 16 1 0
BITMAP
2200
1400
0C00
0000
FE00
6300
6180
6180
6180
6300
7C00
6600
6300
6300
6180
F8E0
ENDCHAR
STARTCHAR rcaron
ENCODING 345
SWIDTH 380 0
DWIDTH 7 0
BBX 6 13 1 0
BITMAP
88
50
20
00
CC
5C
60
40
40
40
40
40
F0
ENDCHAR
STARTCHAR Sacute
ENCODING 346
SWIDTH 504 0
DWIDTH 9 0
BBX 7 16 1 0
BITMAP
08
18
20
00
7E
C6
82
C2
E0
78
1C
06
82
82
86
FC
ENDCHAR
STARTCHAR sacute
ENCODING 347
SWIDTH 394 0
DWIDTH 7 0
BBX 6 13 1 0
BITMAP
18
30
20
00
78
88
88
C0
70
18
8C
88
F8
ENDCHAR
STARTCHAR Scircumflex
ENCODING 348
SWIDTH 504 0
DWIDTH 9 0
BBX 7 16 1 0
BITMAP
10
38
44
00
7E
C6
82
C2
E0
78
1C
06
82
82
86
FC
ENDCHAR
STARTCHAR scircumflex
ENCODING 349
SWIDTH 394 0
DWIDTH 7 0
BBX 6 13 1 0
BITMAP
30
50
88
00
78
88
88
C0
70
18
8C
88
F8
ENDCHAR
STARTCHAR uni015E
ENCODING 350
SWIDTH 504 0
DWIDTH 9 0
BBX 7 16 1 -4
BITMAP
7E
C6
82
C2
E0
78
1C
06
82
82
86
FC
10
18
08
38
ENDCHAR
STARTCHAR uni015F
ENCODING 351
SWIDTH 394 0
DWIDTH 7 0
BBX 6 13 1 -4
BITMAP
78
88
88
C0
70
18
8C
88
F8
20
30
10
70
ENDCHAR
STARTCHAR Scaron
ENCODING 352
SWIDTH 504 0
DWIDTH 9 0
BBX 7 16 1 0
BITMAP
44
28
18
00
7E
C6
82
C2
E0
78
1C
06
82
82
86
FC
ENDCHAR
STARTCHAR scaron
ENCODING 353
SWIDTH 394 0
DWIDTH 7 0
BBX 6 13 1 0
BITMAP
88
50
20
00
78
88
88
C0
70
18
8C
88
F8
ENDCHAR
STARTCHAR uni0162
ENCODING 354
SWIDTH 603 0
DWIDTH 11 0
BBX 11 16 0 -4
BITMAP
FFC0
8440
8420
0400
0400
0400
0400
0400
0400
0400
0400
1F00
0400
0600
0200
0E00
ENDCHAR
STARTCHAR uni0163
ENCODING 355
SWIDTH 315 0
DWIDTH 6 0
BBX 5 16 1 -4
BITMAP
40
40
40
F0
40
40
40
40
40
40
48
70
20
30
10
70
ENDCHAR
STARTCHAR Tcaron
ENCODING 356
SWIDTH 603 0
DWIDTH 11 0
BBX 11 16 0 0
BITMAP
1100
0A00
0C00
0000
FFC0
8440
8420
0400
0400
0400
0400
0400
0400
0400
0400
1F00
ENDCHAR
STARTCHAR tcaron
ENCODING 357
SWIDTH 353 0
DWIDTH 6 0
BBX 5 13 1 0
BITMAP
08
48
48
50
F0
40
40
40
40
40
40
48
70
ENDCHAR
STARTCHAR Tbar
ENCODING 358
SWIDTH 603 0
DWIDTH 11 0
BBX 11 12 0 0
BITMAP
FFC0
8440
8420
0400
0400
3F80
0400
0400
0400
0400
0400
1F00
ENDCHAR
STARTCHAR tbar
ENCODING 359
SWIDTH 328 0
DWIDTH 6 0
BBX 5 12 1 0
BITMAP
40
40
40
F0
40
40
F0
40
40
40
48
70
ENDCHAR
STARTCHAR Utilde
ENCODING 360
SWIDTH 752 0
DWIDTH 14 0
BBX 13 15 0 0
BITMAP
0740
0980
0000
FC78
3030
3030
3030
3030
3030
3030
3030
3020
3020
1820
0FC0
ENDCHAR
STARTCHAR utilde
ENCODING 361
SWIDTH 570 0
DWIDTH 10 0
BBX 10 12 0 0
BITMAP
1900
2600
0000
E300
2100
2100
2100
2100
2100
2100
2300
3DC0
ENDCHAR
STARTCHAR Umacron
ENCODING 362
SWIDTH 752 0
DWIDTH 14 0
BBX 13 14 0 0
BITMAP
07C0
0000
FC78
3030
3030
3030
3030
3030
3030
3030
3020
3020
1820
0FC0
ENDCHAR
STARTCHAR umacron
ENCODING 363
SWIDTH 570 0
DWIDTH 10 0
BBX 10 11 0 0
BITMAP
3F00
0000
E300
2100
2100
2100
2100
2100
2100
2300
3DC0
ENDCHAR
STARTCHAR Ubreve
ENCODING 364
SWIDTH 752 0
DWIDTH 14 0
BBX 13 16 0 0
BITMAP
0840
0440
0380
0000
FC78
3030
3030
3030
3030
3030
3030
3030
3020
3020
1820
0FC0
ENDCHAR
STARTCHAR ubreve
ENCODING 365
SWIDTH 570 0
DWIDTH 10 0
BBX 10 13 0 0
BITMAP
2100
2200
1C00
0000
E300
2100
2100
2100
2100
2100
2100
2300
3DC0
ENDCHAR
STARTCHAR Uring
ENCODING 366
SWIDTH 752 0
DWIDTH 14 0
BBX 13 17 0 0
BITMAP
0300
0480
0480
0300
0000
FC78
3030
3030
3030
3030
3030
3030
3030
3020
3020
1820
0FC0
ENDCHAR
STARTCHAR uring
ENCODING 367
SWIDTH 570 0
DWIDTH 10 0
BBX 10 14 0 0
BITMAP
0C00
1200
1200
0C00
0000
E300
2100
2100
2100
2100
2100
2100
2300
3DC0
ENDCHAR
STARTCHAR Uhungarumlaut
ENCODING 368
SWIDTH 752 0
DWIDTH 14 0
BBX 13 15 0 0
BITMAP
0360
0680
0000
FC78
3030
3030
3030
3030
3030
3030
3030
3020
3020
1820
0FC0
ENDCHAR
STARTCHAR uhungarumlaut
ENCODING 369
SWIDTH 570 0
DWIDTH 10 0
BBX 10 13 0 0
BITMAP
0D00
0B00
1200
0000
E300
2100
2100
2100
2100
2100
2100
2300
3DC0
ENDCHAR
STARTCHAR Uogonek
ENCODING 370
SWIDTH 753 0
DWIDTH 14 0
BBX 13 16 0 -4
BITMAP
FC78
3030
3030
3030
3030
3030
3030
3030
3020
3020
1820
0FC0
0100
0200
0200
03C0
ENDCHAR
STARTCHAR uogonek
ENCODING 371
SWIDTH 570 0
DWIDTH 10 0
BBX 10 13 0 -4
BITMAP
E300
2100
2100
2100
2100
2100
2100
2300
3DC0
0200
0200
0600
0380
ENDCHAR
STARTCHAR Wcircumflex
ENCODING 372
SWIDTH 944 0
DWIDTH 17 0
BBX 17 16 0 0
BITMAP
008000
01C000
022000
000000
F3E780
618300
30C200
30C200
10C200
18E400
196400
0D3400
0E3800
061800
061000
041000
ENDCHAR
STARTCHAR wcircumflex
ENCODING 373
SWIDTH 749 0
DWIDTH 13 0
BBX 14 13 0 0
BITMAP
0300
0500
0880
0000
F79C
6308
6310
2310
3390
14A0
1CA0
18C0
0840
ENDCHAR
STARTCHAR Ycircumflex
ENCODING 374
SWIDTH 647 0
DWIDTH 12 0
BBX 12 16 0 0
BITMAP
0600
0700
1980
0000
F8F0
7040
3080
1880
1900
0D00
0600
0600
0600
0600
0600
1F80
ENDCHAR
STARTCHAR ycircumflex
ENCODING 375
SWIDTH 483 0
DWIDTH 9 0
BBX 9 17 0 -4
BITMAP
0C00
1400
2200
0000
F380
6100
6200
3200
3200
1400
1C00
0800
0800
0800
1000
D000
E000
ENDCHAR
STARTCHAR Ydieresis
ENCODING 376
SWIDTH 647 0
DWIDTH 12 0
BBX 12 15 0 0
BITMAP
1980
1980
0000
F8F0
7040
3080
1880
1900
0D00
0600
0600
0600
0600
0600
1F80
ENDCHAR
STARTCHAR Zacute
ENCODING 377
SWIDTH 594 0
DWIDTH 11 0
BBX 10 16 0 0
BITMAP
0300
0600
0800
0000
7FC0
4180
4180
0300
0600
0600
0C00
1800
1800
3040
6040
FFC0
ENDCHAR
STARTCHAR zacute
ENCODING 378
SWIDTH 458 0
DWIDTH 8 0
BBX 7 13 1 0
BITMAP
18
10
30
00
FE
8C
98
18
30
20
62
C2
FE
ENDCHAR
STARTCHAR Zdotaccent
ENCODING 379
SWIDTH 594 0
DWIDTH 11 0
BBX 10 15 0 0
BITMAP
0600
0600
0000
7FC0
4180
4180
0300
0600
0600
0C00
1800
1800
3040
6040
FFC0
ENDCHAR
STARTCHAR zdotaccent
ENCODING 380
SWIDTH 458 0
DWIDTH 8 0
BBX 7 12 1 0
BITMAP
30
30
00
FE
8C
98
18
30
20
62
C2
FE
ENDCHAR
STARTCHAR Zcaron
ENCODING 381
SWIDTH 594 0
DWIDTH 11 0
BBX 10 16 0 0
BITMAP
1100
0B00
0600
0000
7FC0
4180
4180
0300
0600
0600
0C00
1800
1800
3040
6040
FFC0
ENDCHAR
STARTCHAR zcaron
ENCODING 382
SWIDTH 458 0
DWIDTH 8 0
BBX 7 13 1 0
BITMAP
44
28
30
00
FE
8C
98
18
30
20
62
C2
FE
ENDCHAR
STARTCHAR longs
ENCODING 383
SWIDTH 285 0
DWIDTH 5 0
BBX 7 13 0 0
BITMAP
1E
26
20
20
E0
20
20
20
20
20
20
20
F8
ENDCHAR
STARTCHAR uni0180
ENCODING 384
SWIDTH 522 0
DWIDTH 9 0
BBX 9 13 0 0
BITMAP
E000
6000
FC00
6000
6E00
7300
6180
6180
6180
6180
6100
6300
3E00
ENDCHAR
STARTCHAR uni0188
ENCODING 392
SWIDTH 446 0
DWIDTH 8 0
BBX 9 12 1 0
BITMAP
0300
0580
0400
3C00
CC00
8400
8000
8000
8000
C200
C400
7800
ENDCHAR
STARTCHAR uni0190
ENCODING 400
SWIDTH 518 0
DWIDTH 9 0
BBX 8 12 1 0
BITMAP
7E
C7
C2
C0
40
3C
40
C0
C0
C0
C3
7C
ENDCHAR
STARTCHAR uni0192
ENCODING 402
SWIDTH 301 0
DWIDTH 5 0
BBX 9 17 -2 -4
BITMAP
0700
0980
0800
0800
3E00
0800
0800
0800
0800
0800
0800
0800
0800
0800
0800
C800
7000
ENDCHAR
STARTCHAR uni0195
ENCODING 405
SWIDTH 798 0
DWIDTH 14 0
BBX 14 13 0 0
BITMAP
E000
2000
2000
2000
2F18
3118
2108
2184
2184
2184
2188
2188
78F0
ENDCHAR
STARTCHAR uni0199
ENCODING 409
SWIDTH 538 0
DWIDTH 10 0
BBX 10 13 0 0
BITMAP
1E00
2200
2000
2000
2780
2200
2400
2800
3800
2C00
2600
2300
FBC0
ENDCHAR
STARTCHAR uni019A
ENCODING 410
SWIDTH 287 0
DWIDTH 5 0
BBX 5 13 0 0
BITMAP
E0
20
20
20
20
20
78
20
20
20
20
20
78
ENDCHAR
STARTCHAR uni019B
ENCODING 411
SWIDTH 495 0
DWIDTH 9 0
BBX 9 13 0 0
BITMAP
6000
5600
1800
2800
0800
0C00
1C00
1A00
3200
3200
6100
6100
F380
ENDCHAR
STARTCHAR uni019E
ENCODING 414
SWIDTH 559 0
DWIDTH 10 0
BBX 9 13 1 -4
BITMAP
DE00
6200
4300
4300
4300
4300
4300
4300
F300
0300
0300
0300
0380
ENDCHAR
STARTCHAR Ohorn
ENCODING 416
SWIDTH 737 0
DWIDTH 13 0
BBX 12 15 1 0
BITMAP
0030
0030
0030
1FE0
20C0
6060
C060
C060
C060
C060
C060
C060
6040
20C0
1F00
ENDCHAR
STARTCHAR ohorn
ENCODING 417
SWIDTH 516 0
DWIDTH 9 0
BBX 8 12 1 0
BITMAP
03
01
01
3E
C6
82
83
83
83
C2
C6
3C
ENDCHAR
STARTCHAR uni01A5
ENCODING 421
SWIDTH 522 0
DWIDTH 9 0
BBX 9 17 0 -4
BITMAP
1E00
2600
2000
6000
6E00
7300
6180
6180
6180
6180
6100
6300
7E00
6000
6000
6000
F800
ENDCHAR
STARTCHAR uni01AA
ENCODING 426
SWIDTH 298 0
DWIDTH 5 0
BBX 8 17 -1 -4
BITMAP
70
90
98
98
78
18
18
18
18
18
18
18
18
18
18
09
0F
ENDCHAR
STARTCHAR uni01AB
ENCODING 427
SWIDTH 321 0
DWIDTH 6 0
BBX 5 16 1 -4
BITMAP
40
40
40
F0
40
40
40
40
40
40
48
78
08
08
48
70
ENDCHAR
STARTCHAR uni01AD
ENCODING 429
SWIDTH 315 0
DWIDTH 6 0
BBX 6 13 1 0
BITMAP
3C
44
40
40
F0
40
40
40
40
40
40
48
70
ENDCHAR
STARTCHAR Uhorn
ENCODING 431
SWIDTH 762 0
DWIDTH 14 0
BBX 15 16 0 0
BITMAP
0004
0006
0006
0004
FC78
3030
3030
3030
3030
3030
3030
3030
3020
3020
1820
0FC0
ENDCHAR
STARTCHAR uhorn
ENCODING 432
SWIDTH 574 0
DWIDTH 10 0
BBX 10 12 0 0
BITMAP
0040
0040
0040
E3C0
2100
2100
2100
2100
2100
2100
2300
3DC0
ENDCHAR
STARTCHAR uni01B5
ENCODING 437
SWIDTH 594 0
DWIDTH 11 0
BBX 9 12 1 0
BITMAP
FF80
8300
8300
0600
0C00
7F00
1800
3000
3000
6080
C080
FF80
ENDCHAR
STARTCHAR uni01BA
ENCODING 442
SWIDTH 430 0
DWIDTH 8 0
BBX 6 13 1 -4
BITMAP
FC
98
B0
20
78
0C
0C
0C
18
60
88
88
F8
ENDCHAR
STARTCHAR uni01BB
ENCODING 443
SWIDTH 508 0
DWIDTH 9 0
BBX 8 13 1 0
BITMAP
78
84
86
06
06
04
FF
18
10
20
42
FE
FE
ENDCHAR
STARTCHAR uni01BE
ENCODING 446
SWIDTH 406 0
DWIDTH 7 0
BBX 6 12 1 0
BITMAP
20
40
40
F8
40
70
18
0C
0C
8C
88
F8
ENDCHAR
STARTCHAR uni01C0
ENCODING 448
SWIDTH 250 0
DWIDTH 5 0
BBX 1 13 2 0
BITMAP
80
80
80
80
80
80
80
80
80
80
80
80
80
ENDCHAR
STARTCHAR uni01C1
ENCODING 449
SWIDTH 423 0
DWIDTH 8 0
BBX 4 13 2 0
BITMAP
90
90
90
90
90
90
90
90
90
90
90
90
90
ENDCHAR
STARTCHAR uni01C2
ENCODING 450
SWIDTH 422 0
DWIDTH 8 0
BBX 6 13 1 0
BITMAP
30
30
30
30
FC
30
30
FC
30
30
30
30
30
ENDCHAR
STARTCHAR uni01C3
ENCODING 451
SWIDTH 245 0
DWIDTH 4 0
BBX 2 13 1 0
BITMAP
C0
C0
C0
C0
40
40
40
40
40
40
00
C0
C0
ENDCHAR
STARTCHAR uni01DE
ENCODING 478
SWIDTH 718 0
DWIDTH 13 0
BBX 13 16 0 0
BITMAP
0F80
1980
0980
0000
0200
0600
0700
0900
0980
0980
10C0
1FC0
2040
2060
6060
F0F8
ENDCHAR
STARTCHAR uni01DF
ENCODING 479
SWIDTH 480 0
DWIDTH 9 0
BBX 8 14 1 0
BITMAP
7C
00
CC
CC
00
78
CC
CC
0C
3C
CC
8C
8C
F7
ENDCHAR
STARTCHAR uni01F0
ENCODING 496
SWIDTH 263 0
DWIDTH 5 0
BBX 7 17 -2 -4
BITMAP
22
14
18
00
38
08
08
08
08
08
08
08
08
08
08
C8
70
ENDCHAR
STARTCHAR Aringacute
ENCODING 506
SWIDTH 718 0
DWIDTH 13 0
BBX 13 20 0 0
BITMAP
0100
0300
0400
0700
0900
0900
0700
0000
0200
0600
0700
0900
0980
0980
10C0
1FC0
2040
2060
6060
F0F8
ENDCHAR
STARTCHAR aringacute
ENCODING 507
SWIDTH 480 0
DWIDTH 9 0
BBX 8 17 1 0
BITMAP
18
10
60
30
48
48
30
00
78
CC
CC
0C
3C
CC
8C
8C
F7
ENDCHAR
STARTCHAR AEacute
ENCODING 508
SWIDTH 894 0
DWIDTH 16 0
BBX 16 16 0 0
BITMAP
0030
0020
00C0
0000
07FE
0382
0382
0580
0984
0984
1FFC
1184
2181
2181
4182
E3FE
ENDCHAR
STARTCHAR aeacute
ENCODING 509
SWIDTH 709 0
DWIDTH 13 0
BBX 11 13 1 0
BITMAP
0600
0C00
0800
0000
7BC0
CC60
8C60
1FE0
6C00
CC00
8C20
8E20
F3C0
ENDCHAR
STARTCHAR Oslashacute
ENCODING 510
SWIDTH 737 0
DWIDTH 13 0
BBX 11 16 1 0
BITMAP
0300
0600
0800
0000
1F40
20C0
60C0
C160
C260
C460
C460
C860
D060
6040
60C0
9F00
ENDCHAR
STARTCHAR oslashacute
ENCODING 511
SWIDTH 514 0
DWIDTH 9 0
BBX 8 13 1 0
BITMAP
18
10
30
00
3E
C6
8A
8B
93
A3
C2
C6
BC
ENDCHAR
STARTCHAR uni0218
ENCODING 536
SWIDTH 504 0
DWIDTH 9 0
BBX 7 17 1 -5
BITMAP
7E
C6
82
C2
E0
78
1C
06
82
82
86
FC
00
30
38
08
30
ENDCHAR
STARTCHAR uni0219
ENCODING 537
SWIDTH 394 0
DWIDTH 7 0
BBX 6 14 1 -5
BITMAP
78
88
88
C0
70
18
8C
88
F8
00
60
70
10
60
ENDCHAR
STARTCHAR uni021A
ENCODING 538
SWIDTH 603 0
DWIDTH 11 0
BBX 11 17 0 -5
BITMAP
FFC0
8440
8420
0400
0400
0400
0400
0400
0400
0400
0400
1F00
0000
0C00
0E00
0200
0C00
ENDCHAR
STARTCHAR uni021B
ENCODING 539
SWIDTH 315 0
DWIDTH 6 0
BBX 5 17 1 -5
BITMAP
40
40
40
F0
40
40
40
40
40
40
48
70
00
60
70
10
60
ENDCHAR
STARTCHAR uni0221
ENCODING 545
SWIDTH 674 0
DWIDTH 12 0
BBX 11 16 1 -3
BITMAP
0E00
0600
0600
0600
3E00
4600
8600
8600
8600
8600
8660
C6A0
7BC0
0200
0200
0400
ENDCHAR
STARTCHAR uni0228
ENCODING 552
SWIDTH 626 0
DWIDTH 11 0
BBX 10 16 1 -4
BITMAP
FF80
6080
6080
6100
6100
7F00
6100
6000
6040
6040
6080
FF80
0800
0C00
0200
1C00
ENDCHAR
STARTCHAR uni0229
ENCODING 553
SWIDTH 464 0
DWIDTH 8 0
BBX 7 13 1 -4
BITMAP
78
C4
86
FE
80
80
C2
E4
38
20
38
08
38
ENDCHAR
STARTCHAR uni0234
ENCODING 564
SWIDTH 399 0
DWIDTH 7 0
BBX 7 16 0 -3
BITMAP
E0
60
60
60
60
60
60
60
60
60
66
6A
3C
20
20
40
ENDCHAR
STARTCHAR uni0235
ENCODING 565
SWIDTH 702 0
DWIDTH 13 0
BBX 12 12 1 -3
BITMAP
DE00
6200
4200
4200
4200
4200
4260
4390
F3E0
0100
0200
0200
ENDCHAR
STARTCHAR uni0236
ENCODING 566
SWIDTH 406 0
DWIDTH 7 0
BBX 6 15 1 -3
BITMAP
40
40
40
F0
40
40
40
40
40
4C
54
7C
20
40
40
ENDCHAR
STARTCHAR uni0237
ENCODING 567
SWIDTH 263 0
DWIDTH 5 0
BBX 5 13 -2 -4
BITMAP
38
08
08
08
08
08
08
08
08
08
08
C8
70
ENDCHAR
STARTCHAR uni0250
ENCODING 592
SWIDTH 475 0
DWIDTH 9 0
BBX 8 9 0 0
BITMAP
EE
33
23
22
3C
20
23
22
1C
ENDCHAR
STARTCHAR uni0251
ENCODING 593
SWIDTH 542 0
DWIDTH 10 0
BBX 8 9 1 0
BITMAP
3A
46
86
86
86
86
86
C6
7B
ENDCHAR
STARTCHAR uni0252
ENCODING 594
SWIDTH 544 0
DWIDTH 10 0
BBX 8 9 1 0
BITMAP
DE
63
43
41
41
41
43
62
7C
ENDCHAR
STARTCHAR uni0253
ENCODING 595
SWIDTH 518 0
DWIDTH 9 0
BBX 8 13 1 0
BITMAP
3C
4C
40
C0
FC
C6
C2
C3
C3
C3
C2
C6
78
ENDCHAR
STARTCHAR uni0254
ENCODING 596
SWIDTH 454 0
DWIDTH 8 0
BBX 8 9 0 0
BITMAP
3C
46
82
02
03
02
42
66
3C
ENDCHAR
STARTCHAR uni0255
ENCODING 597
SWIDTH 447 0
DWIDTH 8 0
BBX 6 11 1 -2
BITMAP
3C
4C
84
80
80
8C
D4
E4
7C
40
40
ENDCHAR
STARTCHAR uni0256
ENCODING 598
SWIDTH 528 0
DWIDTH 10 0
BBX 10 17 1 -4
BITMAP
0E00
0600
0600
0600
3E00
4600
8600
8600
8600
8600
8600
C600
7A00
0200
0200
0240
01C0
ENDCHAR
STARTCHAR uni0257
ENCODING 599
SWIDTH 542 0
DWIDTH 10 0
BBX 11 13 1 0
BITMAP
01C0
0260
0200
0600
3E00
4600
8600
8600
8600
8600
8600
C600
7B00
ENDCHAR
STARTCHAR uni0258
ENCODING 600
SWIDTH 466 0
DWIDTH 8 0
BBX 7 9 1 0
BITMAP
78
C4
86
FE
06
06
84
8C
78
ENDCHAR
STARTCHAR uni0259
ENCODING 601
SWIDTH 464 0
DWIDTH 8 0
BBX 7 9 1 0
BITMAP
78
8C
84
06
06
FE
84
C4
78
ENDCHAR
STARTCHAR uni025A
ENCODING 602
SWIDTH 642 0
DWIDTH 12 0
BBX 10 9 1 0
BITMAP
7800
8C80
8740
06C0
0600
FE00
8400
C400
7800
ENDCHAR
STARTCHAR uni025B
ENCODING 603
SWIDTH 399 0
DWIDTH 7 0
BBX 6 9 1 0
BITMAP
78
8C
80
C0
30
C0
80
84
78
ENDCHAR
STARTCHAR uni025C
ENCODING 604
SWIDTH 398 0
DWIDTH 7 0
BBX 7 9 0 0
BITMAP
78
C4
04
04
38
04
06
84
78
ENDCHAR
STARTCHAR uni025D
ENCODING 605
SWIDTH 575 0
DWIDTH 10 0
BBX 10 9 0 0
BITMAP
7800
C400
0740
04C0
3800
0400
0600
8400
7800
ENDCHAR
STARTCHAR uni025E
ENCODING 606
SWIDTH 500 0
DWIDTH 9 0
BBX 7 9 1 0
BITMAP
3C
42
82
86
98
86
82
42
3C
ENDCHAR
STARTCHAR uni025F
ENCODING 607
SWIDTH 272 0
DWIDTH 5 0
BBX 7 13 -2 -4
BITMAP
18
08
08
3E
08
08
08
08
08
08
08
C8
70
ENDCHAR
STARTCHAR uni0260
ENCODING 608
SWIDTH 541 0
DWIDTH 10 0
BBX 11 17 1 -4
BITMAP
01E0
0260
0200
0600
3E00
4600
8600
8600
8600
8600
C600
C600
7E00
0600
0600
C400
7800
ENDCHAR
STARTCHAR uni0261
ENCODING 609
SWIDTH 521 0
DWIDTH 9 0
BBX 7 13 1 -4
BITMAP
3A
46
86
86
86
86
C6
C6
7E
06
06
C4
78
ENDCHAR
STARTCHAR uni0262
ENCODING 610
SWIDTH 535 0
DWIDTH 10 0
BBX 8 9 1 0
BITMAP
3E
42
C1
80
87
82
C2
C2
3C
ENDCHAR
STARTCHAR uni0263
ENCODING 611
SWIDTH 479 0
DWIDTH 9 0
BBX 9 13 0 -4
BITMAP
F380
6100
6200
2200
3200
1400
1C00
1800
0800
1C00
1400
1400
1C00
ENDCHAR
STARTCHAR uni0264
ENCODING 612
SWIDTH 466 0
DWIDTH 8 0
BBX 8 9 0 0
BITMAP
77
89
1C
24
26
26
26
24
1C
ENDCHAR
STARTCHAR uni0265
ENCODING 613
SWIDTH 553 0
DWIDTH 10 0
BBX 10 13 0 -4
BITMAP
E380
2180
2180
2180
2180
2180
2180
2380
1D80
0180
0180
0180
01C0
ENDCHAR
STARTCHAR uni0266
ENCODING 614
SWIDTH 577 0
DWIDTH 10 0
BBX 9 13 1 0
BITMAP
3C00
4400
4000
4000
5E00
6200
4300
4300
4300
4300
4300
4300
F780
ENDCHAR
STARTCHAR uni0267
ENCODING 615
SWIDTH 562 0
DWIDTH 10 0
BBX 8 17 1 -4
BITMAP
3C
44
40
40
5E
62
43
43
43
43
43
43
F3
03
03
12
1C
ENDCHAR
STARTCHAR uni0268
ENCODING 616
SWIDTH 295 0
DWIDTH 5 0
BBX 4 13 1 0
BITMAP
60
60
00
00
C0
40
40
40
F0
40
40
40
F0
ENDCHAR
STARTCHAR uni0269
ENCODING 617
SWIDTH 286 0
DWIDTH 5 0
BBX 6 9 0 0
BITMAP
E0
20
20
20
20
20
20
24
38
ENDCHAR
STARTCHAR uni026A
ENCODING 618
SWIDTH 287 0
DWIDTH 5 0
BBX 4 9 1 0
BITMAP
F0
40
40
40
40
40
40
40
F0
ENDCHAR
STARTCHAR uni026B
ENCODING 619
SWIDTH 290 0
DWIDTH 5 0
BBX 5 13 0 0
BITMAP
E0
20
20
20
20
68
B8
20
20
20
20
20
78
ENDCHAR
STARTCHAR uni026C
ENCODING 620
SWIDTH 318 0
DWIDTH 6 0
BBX 6 13 0 0
BITMAP
70
30
30
30
70
B0
B4
F8
30
30
30
30
78
ENDCHAR
STARTCHAR uni026D
ENCODING 621
SWIDTH 248 0
DWIDTH 4 0
BBX 6 17 0 -4
BITMAP
E0
60
60
60
60
60
60
60
60
60
60
60
60
60
20
24
1C
ENDCHAR
STARTCHAR uni026E
ENCODING 622
SWIDTH 590 0
DWIDTH 11 0
BBX 10 17 0 -4
BITMAP
E000
2000
2000
2000
3FC0
2080
2180
2300
2200
2600
2180
20C0
7840
0040
0040
1880
0F00
ENDCHAR
STARTCHAR uni026F
ENCODING 623
SWIDTH 846 0
DWIDTH 15 0
BBX 15 9 0 0
BITMAP
E318
2108
2108
2108
2108
2108
2108
2318
3DEE
ENDCHAR
STARTCHAR uni0270
ENCODING 624
SWIDTH 826 0
DWIDTH 15 0
BBX 15 13 0 -4
BITMAP
E318
2108
2108
2108
2108
2108
2108
2318
3DE8
0008
0008
0008
000E
ENDCHAR
STARTCHAR uni0271
ENCODING 625
SWIDTH 835 0
DWIDTH 15 0
BBX 13 13 1 -4
BITMAP
DEF0
6310
4318
4318
4318
4318
4318
4318
F798
0018
0010
0090
00E0
ENDCHAR
STARTCHAR uni0272
ENCODING 626
SWIDTH 574 0
DWIDTH 10 0
BBX 12 13 -2 -4
BITMAP
1BC0
0C40
0860
0860
0860
0860
0860
0860
08F0
0800
0800
C800
7000
ENDCHAR
STARTCHAR uni0273
ENCODING 627
SWIDTH 563 0
DWIDTH 10 0
BBX 11 13 1 -4
BITMAP
DE00
6200
4300
4300
4300
4300
4300
4300
F300
0300
0300
0160
01E0
ENDCHAR
STARTCHAR uni0274
ENCODING 628
SWIDTH 568 0
DWIDTH 10 0
BBX 10 9 0 0
BITMAP
E1C0
3080
3880
2C80
2C80
2680
2380
2180
F080
ENDCHAR
STARTCHAR uni0275
ENCODING 629
SWIDTH 514 0
DWIDTH 9 0
BBX 8 9 1 0
BITMAP
3C
C6
C2
83
FF
83
C2
C6
3C
ENDCHAR
STARTCHAR uni0276
ENCODING 630
SWIDTH 732 0
DWIDTH 13 0
BBX 12 9 1 0
BITMAP
3FE0
C620
C620
8640
87C0
8640
C610
C620
3FE0
ENDCHAR
STARTCHAR uni0277
ENCODING 631
SWIDTH 672 0
DWIDTH 12 0
BBX 11 9 1 0
BITMAP
3F00
6180
C0C0
8C40
8C40
8C60
8C40
CCC0
7380
ENDCHAR
STARTCHAR uni0278
ENCODING 632
SWIDTH 658 0
DWIDTH 12 0
BBX 10 17 1 -4
BITMAP
1C00
0C00
0C00
0C00
3F00
4D80
CCC0
8CC0
8C40
8C40
CCC0
CC80
3F00
0C00
0C00
0C00
1E00
ENDCHAR
STARTCHAR uni0279
ENCODING 633
SWIDTH 380 0
DWIDTH 7 0
BBX 6 9 0 0
BITMAP
3C
18
08
08
08
08
18
E8
CC
ENDCHAR
STARTCHAR uni027A
ENCODING 634
SWIDTH 374 0
DWIDTH 7 0
BBX 6 13 0 0
BITMAP
38
18
08
08
08
08
08
08
08
08
18
E8
CC
ENDCHAR
STARTCHAR uni027B
ENCODING 635
SWIDTH 375 0
DWIDTH 7 0
BBX 8 13 0 -4
BITMAP
3C
18
08
08
08
08
18
E8
C8
08
08
09
07
ENDCHAR
STARTCHAR uni027C
ENCODING 636
SWIDTH 378 0
DWIDTH 7 0
BBX 7 13 0 -4
BITMAP
6E
2E
30
20
20
20
20
20
20
20
20
20
F8
ENDCHAR
STARTCHAR uni027D
ENCODING 637
SWIDTH 373 0
DWIDTH 7 0
BBX 7 13 0 -4
BITMAP
EC
36
20
20
20
20
20
20
20
20
20
26
1C
ENDCHAR
STARTCHAR uni027E
ENCODING 638
SWIDTH 371 0
DWIDTH 7 0
BBX 7 9 0 0
BITMAP
1C
26
20
20
20
20
20
20
F8
ENDCHAR
STARTCHAR uni027F
ENCODING 639
SWIDTH 371 0
DWIDTH 7 0
BBX 6 9 0 0
BITMAP
F0
D0
18
18
18
18
18
18
3C
ENDCHAR
STARTCHAR uni0280
ENCODING 640
SWIDTH 494 0
DWIDTH 9 0
BBX 8 9 1 0
BITMAP
FC
46
46
44
78
58
4C
46
F7
ENDCHAR
STARTCHAR uni0281
ENCODING 641
SWIDTH 494 0
DWIDTH 9 0
BBX 8 9 1 0
BITMAP
F7
46
4C
58
78
44
46
44
FC
ENDCHAR
STARTCHAR uni0282
ENCODING 642
SWIDTH 395 0
DWIDTH 7 0
BBX 6 13 1 -4
BITMAP
78
88
88
E0
70
18
8C
88
F8
80
80
B0
60
ENDCHAR
STARTCHAR uni0283
ENCODING 643
SWIDTH 253 0
DWIDTH 5 0
BBX 9 17 -2 -4
BITMAP
0700
0980
0800
0800
0800
0800
0800
0800
0800
0800
0800
0800
0800
0800
0800
D800
F000
ENDCHAR
STARTCHAR uni0284
ENCODING 644
SWIDTH 286 0
DWIDTH 5 0
BBX 9 17 -2 -4
BITMAP
0700
0D80
0800
0800
0800
0800
0800
0800
0800
0800
0800
0800
3E00
0800
0800
C800
7000
ENDCHAR
STARTCHAR uni0285
ENCODING 645
SWIDTH 361 0
DWIDTH 7 0
BBX 8 13 0 -4
BITMAP
F0
D8
08
08
08
08
08
08
08
08
08
09
07
ENDCHAR
STARTCHAR uni0286
ENCODING 646
SWIDTH 253 0
DWIDTH 5 0
BBX 9 17 -2 -4
BITMAP
0700
0980
0800
0800
0800
0800
0800
0800
0800
0800
0800
0800
0800
7800
8E00
9800
7000
ENDCHAR
STARTCHAR uni0287
ENCODING 647
SWIDTH 315 0
DWIDTH 6 0
BBX 5 11 0 -2
BITMAP
70
B0
10
10
10
10
10
10
F8
10
20
ENDCHAR
STARTCHAR uni0288
ENCODING 648
SWIDTH 309 0
DWIDTH 6 0
BBX 6 16 1 -4
BITMAP
40
40
40
F0
40
40
40
40
40
40
40
40
40
40
4C
38
ENDCHAR
STARTCHAR uni0289
ENCODING 649
SWIDTH 580 0
DWIDTH 10 0
BBX 10 9 0 0
BITMAP
E380
2180
2180
FFC0
2180
2180
2180
3380
1DC0
ENDCHAR
STARTCHAR uni028A
ENCODING 650
SWIDTH 548 0
DWIDTH 10 0
BBX 8 9 1 0
BITMAP
E7
42
42
C3
83
83
C3
C2
3C
ENDCHAR
STARTCHAR uni028B
ENCODING 651
SWIDTH 530 0
DWIDTH 10 0
BBX 9 9 0 0
BITMAP
E300
2100
2180
2080
2080
2080
2100
3100
1E00
ENDCHAR
STARTCHAR uni028C
ENCODING 652
SWIDTH 495 0
DWIDTH 9 0
BBX 9 9 0 0
BITMAP
0800
1800
1C00
1400
2600
2600
4200
4300
E780
ENDCHAR
STARTCHAR uni028D
ENCODING 653
SWIDTH 764 0
DWIDTH 14 0
BBX 14 9 0 0
BITMAP
0840
18C0
1CE0
2560
2520
2630
4210
4318
E7BC
ENDCHAR
STARTCHAR uni028E
ENCODING 654
SWIDTH 492 0
DWIDTH 9 0
BBX 9 13 0 0
BITMAP
0380
0580
0400
0800
0800
1800
1C00
2C00
2600
2600
4200
4300
E780
ENDCHAR
STARTCHAR uni028F
ENCODING 655
SWIDTH 454 0
DWIDTH 8 0
BBX 8 9 0 0
BITMAP
E3
62
22
34
14
18
18
18
3C
ENDCHAR
STARTCHAR uni0290
ENCODING 656
SWIDTH 458 0
DWIDTH 8 0
BBX 10 13 1 -4
BITMAP
FE00
8C00
9800
1800
3000
2000
6200
C200
FC00
0200
0200
02C0
0380
ENDCHAR
STARTCHAR uni0291
ENCODING 657
SWIDTH 458 0
DWIDTH 8 0
BBX 7 12 1 -3
BITMAP
FE
8C
98
18
30
20
6E
D2
FC
20
20
40
ENDCHAR
STARTCHAR uni0292
ENCODING 658
SWIDTH 443 0
DWIDTH 8 0
BBX 8 13 0 -4
BITMAP
7E
46
8C
08
18
38
06
02
03
03
42
C6
78
ENDCHAR
STARTCHAR uni0293
ENCODING 659
SWIDTH 443 0
DWIDTH 8 0
BBX 7 16 1 -7
BITMAP
FC
8C
98
10
30
70
0C
04
06
C6
A4
9C
78
08
08
04
ENDCHAR
STARTCHAR uni0294
ENCODING 660
SWIDTH 383 0
DWIDTH 7 0
BBX 7 13 0 0
BITMAP
3C
44
C6
06
06
04
18
20
20
20
20
20
F8
ENDCHAR
STARTCHAR uni0295
ENCODING 661
SWIDTH 383 0
DWIDTH 7 0
BBX 6 13 0 0
BITMAP
3C
44
C4
C0
C0
40
20
18
08
08
08
08
3C
ENDCHAR
STARTCHAR uni0296
ENCODING 662
SWIDTH 408 0
DWIDTH 7 0
BBX 7 13 0 0
BITMAP
60
20
20
20
20
20
18
04
06
06
46
C4
78
ENDCHAR
STARTCHAR uni0297
ENCODING 663
SWIDTH 437 0
DWIDTH 8 0
BBX 7 12 1 -3
BITMAP
3C
4C
84
80
80
80
80
80
80
C2
44
38
ENDCHAR
STARTCHAR uni0298
ENCODING 664
SWIDTH 736 0
DWIDTH 13 0
BBX 12 13 1 0
BITMAP
1F00
20C0
4060
C060
8020
8630
8E30
8030
8020
C060
4060
20C0
1F00
ENDCHAR
STARTCHAR uni0299
ENCODING 665
SWIDTH 485 0
DWIDTH 9 0
BBX 7 9 1 0
BITMAP
FC
46
46
44
7C
46
46
46
FC
ENDCHAR
STARTCHAR uni029A
ENCODING 666
SWIDTH 500 0
DWIDTH 9 0
BBX 7 9 1 0
BITMAP
78
84
82
C2
32
C2
82
84
78
ENDCHAR
STARTCHAR uni029B
ENCODING 667
SWIDTH 536 0
DWIDTH 10 0
BBX 10 12 1 0
BITMAP
01C0
0140
0200
3E00
4200
C100
8000
8700
8200
C200
C200
3C00
ENDCHAR
STARTCHAR uni029C
ENCODING 668
SWIDTH 599 0
DWIDTH 11 0
BBX 9 9 1 0
BITMAP
F780
4300
4300
4300
7F00
4300
4300
4300
F780
ENDCHAR
STARTCHAR uni029D
ENCODING 669
SWIDTH 263 0
DWIDTH 5 0
BBX 6 16 -1 -4
BITMAP
10
38
00
70
10
10
10
10
10
10
10
10
70
9C
90
E0
ENDCHAR
STARTCHAR uni029E
ENCODING 670
SWIDTH 542 0
DWIDTH 10 0
BBX 9 13 0 -4
BITMAP
F780
3300
1300
1B00
0F00
0700
0B00
1300
7B00
0300
0300
0300
0380
ENDCHAR
STARTCHAR uni029F
ENCODING 671
SWIDTH 440 0
DWIDTH 8 0
BBX 8 9 0 0
BITMAP
F8
20
20
20
20
20
21
21
FE
ENDCHAR
STARTCHAR uni02A0
ENCODING 672
SWIDTH 541 0
DWIDTH 10 0
BBX 11 17 1 -4
BITMAP
01E0
0260
0200
0600
3E00
4600
8600
8600
8600
8600
C600
C600
7E00
0600
0600
0600
0F00
ENDCHAR
STARTCHAR uni02A1
ENCODING 673
SWIDTH 393 0
DWIDTH 7 0
BBX 6 13 1 0
BITMAP
78
8C
8C
0C
0C
08
18
60
40
F0
40
40
F0
ENDCHAR
STARTCHAR uni02A2
ENCODING 674
SWIDTH 393 0
DWIDTH 7 0
BBX 7 13 0 0
BITMAP
3C
44
C6
C0
C0
40
60
18
08
3E
08
08
3E
ENDCHAR
STARTCHAR uni02A3
ENCODING 675
SWIDTH 830 0
DWIDTH 15 0
BBX 13 13 1 0
BITMAP
0E00
0600
0600
0600
3FF8
4618
8630
8620
8660
86C0
8688
C788
7BF8
ENDCHAR
STARTCHAR uni02A4
ENCODING 676
SWIDTH 838 0
DWIDTH 15 0
BBX 14 17 1 -4
BITMAP
0E00
0600
0600
0600
3FF8
4618
8630
8630
8660
8640
86F0
C618
7B0C
000C
000C
0308
01F0
ENDCHAR
STARTCHAR uni02A5
ENCODING 677
SWIDTH 829 0
DWIDTH 15 0
BBX 14 16 1 -3
BITMAP
0E00
0600
0600
0600
3FF8
4618
8630
8620
8660
86C0
8698
C7A4
7BF8
0040
0080
0080
ENDCHAR
STARTCHAR uni02A6
ENCODING 678
SWIDTH 614 0
DWIDTH 11 0
BBX 10 12 1 0
BITMAP
4000
4000
4000
FF80
4880
4880
4C00
4700
4180
40C0
6080
3F00
ENDCHAR
STARTCHAR uni02A7
ENCODING 679
SWIDTH 513 0
DWIDTH 9 0
BBX 10 17 1 -4
BITMAP
03C0
0240
4600
4600
FE00
4600
4600
4600
4600
4600
4600
4E00
7600
0600
0600
2400
3C00
ENDCHAR
STARTCHAR uni02A8
ENCODING 680
SWIDTH 687 0
DWIDTH 12 0
BBX 11 12 1 0
BITMAP
4000
4000
4000
F3C0
4460
4C00
4800
4800
4CC0
4F20
4620
7BC0
ENDCHAR
STARTCHAR uni02A9
ENCODING 681
SWIDTH 866 0
DWIDTH 16 0
BBX 14 17 0 -4
BITMAP
1E00
2600
2000
2000
FFB8
21CC
2184
2184
2184
2184
2184
2184
FBC4
0004
0004
0064
0038
ENDCHAR
STARTCHAR uni02AA
ENCODING 682
SWIDTH 595 0
DWIDTH 11 0
BBX 10 13 0 0
BITMAP
E000
6000
6000
6000
67C0
6440
6C40
6600
6380
60C0
6040
20C0
1F80
ENDCHAR
STARTCHAR uni02AB
ENCODING 683
SWIDTH 580 0
DWIDTH 10 0
BBX 10 13 0 0
BITMAP
E000
2000
2000
2000
3FC0
2180
2100
2300
2600
2600
2C40
2840
7FC0
ENDCHAR
STARTCHAR uni02AC
ENCODING 684
SWIDTH 599 0
DWIDTH 11 0
BBX 11 13 0 0
BITMAP
EEE0
6440
2680
3A80
1300
1100
EEE0
4440
6640
2A80
3A80
1B00
1100
ENDCHAR
STARTCHAR uni02AD
ENCODING 685
SWIDTH 479 0
DWIDTH 9 0
BBX 6 12 1 0
BITMAP
FC
84
84
84
84
84
00
FC
84
84
84
84
ENDCHAR
STARTCHAR uni02AE
ENCODING 686
SWIDTH 595 0
DWIDTH 11 0
BBX 12 13 -1 -4
BITMAP
70C0
D840
0840
0840
0840
0840
0840
08C0
0F40
0040
0040
0040
0070
ENDCHAR
STARTCHAR uni02AF
ENCODING 687
SWIDTH 600 0
DWIDTH 11 0
BBX 14 13 -1 -4
BITMAP
70C0
D840
0840
0840
0840
0840
0840
08C0
0F40
0040
0040
004C
0038
ENDCHAR
STARTCHAR uni02B0
ENCODING 688
SWIDTH 488 0
DWIDTH 9 0
BBX 8 10 0 5
BITMAP
E0
20
20
3E
22
22
22
22
22
F7
ENDCHAR
STARTCHAR uni02B1
ENCODING 689
SWIDTH 488 0
DWIDTH 9 0
BBX 8 11 0 5
BITMAP
1C
24
20
20
3E
22
22
22
22
22
F7
ENDCHAR
STARTCHAR uni02B2
ENCODING 690
SWIDTH 222 0
DWIDTH 4 0
BBX 4 13 -1 2
BITMAP
30
30
00
70
10
10
10
10
10
10
10
B0
E0
ENDCHAR
STARTCHAR uni02B3
ENCODING 691
SWIDTH 325 0
DWIDTH 6 0
BBX 6 7 0 5
BITMAP
6C
38
20
20
20
20
F0
ENDCHAR
STARTCHAR uni02B4
ENCODING 692
SWIDTH 325 0
DWIDTH 6 0
BBX 6 7 0 5
BITMAP
3C
18
18
18
18
58
FC
ENDCHAR
STARTCHAR uni02B5
ENCODING 693
SWIDTH 325 0
DWIDTH 6 0
BBX 7 9 0 3
BITMAP
3C
18
18
18
18
78
D8
08
0E
ENDCHAR
STARTCHAR uni02B6
ENCODING 694
SWIDTH 443 0
DWIDTH 8 0
BBX 7 7 1 5
BITMAP
E6
48
58
70
4C
4C
F8
ENDCHAR
STARTCHAR uni02B7
ENCODING 695
SWIDTH 653 0
DWIDTH 12 0
BBX 12 7 0 5
BITMAP
EE70
6620
2640
2740
3940
1980
1180
ENDCHAR
STARTCHAR uni02B8
ENCODING 696
SWIDTH 427 0
DWIDTH 8 0
BBX 8 10 0 2
BITMAP
E7
62
24
34
18
18
18
10
50
E0
ENDCHAR
STARTCHAR uni02B9
ENCODING 697
SWIDTH 296 0
DWIDTH 5 0
BBX 3 6 1 7
BITMAP
20
60
40
40
80
80
ENDCHAR
STARTCHAR uni02BA
ENCODING 698
SWIDTH 456 0
DWIDTH 8 0
BBX 6 6 1 7
BITMAP
24
6C
48
48
90
90
ENDCHAR
STARTCHAR uni02BB
ENCODING 699
SWIDTH 245 0
DWIDTH 4 0
BBX 3 5 1 9
BITMAP
20
40
80
E0
C0
ENDCHAR
STARTCHAR uni02BC
ENCODING 700
SWIDTH 244 0
DWIDTH 4 0
BBX 2 5 1 8
BITMAP
C0
C0
40
40
80
ENDCHAR
STARTCHAR uni02BD
ENCODING 701
SWIDTH 244 0
DWIDTH 4 0
BBX 3 5 1 8
BITMAP
E0
C0
80
40
20
ENDCHAR
STARTCHAR uni02BE
ENCODING 702
SWIDTH 203 0
DWIDTH 4 0
BBX 2 4 1 9
BITMAP
C0
40
40
80
ENDCHAR
STARTCHAR uni02BF
ENCODING 703
SWIDTH 203 0
DWIDTH 4 0
BBX 3 4 0 9
BITMAP
60
80
40
60
ENDCHAR
STARTCHAR uni02C0
ENCODING 704
SWIDTH 364 0
DWIDTH 7 0
BBX 5 7 1 7
BITMAP
70
98
18
18
10
60
40
ENDCHAR
STARTCHAR uni02C1
ENCODING 705
SWIDTH 364 0
DWIDTH 7 0
BBX 5 7 1 7
BITMAP
70
98
80
80
C0
30
30
ENDCHAR
STARTCHAR uni02C2
ENCODING 706
SWIDTH 324 0
DWIDTH 6 0
BBX 4 6 1 8
BITMAP
10
30
C0
C0
60
10
ENDCHAR
STARTCHAR uni02C3
ENCODING 707
SWIDTH 324 0
DWIDTH 6 0
BBX 4 6 1 8
BITMAP
80
C0
20
30
40
80
ENDCHAR
STARTCHAR uni02C4
ENCODING 708
SWIDTH 324 0
DWIDTH 6 0
BBX 6 5 0 9
BITMAP
20
30
70
48
8C
ENDCHAR
STARTCHAR uni02C5
ENCODING 709
SWIDTH 324 0
DWIDTH 6 0
BBX 6 5 0 9
BITMAP
84
48
48
30
20
ENDCHAR
STARTCHAR circumflex
ENCODING 710
SWIDTH 342 0
DWIDTH 6 0
BBX 5 3 1 10
BITMAP
60
70
98
ENDCHAR
STARTCHAR caron
ENCODING 711
SWIDTH 342 0
DWIDTH 6 0
BBX 5 3 1 10
BITMAP
98
70
60
ENDCHAR
STARTCHAR uni02C8
ENCODING 712
SWIDTH 284 0
DWIDTH 5 0
BBX 1 5 2 9
BITMAP
80
80
80
80
80
ENDCHAR
STARTCHAR uni02C9
ENCODING 713
SWIDTH 350 0
DWIDTH 6 0
BBX 5 1 1 10
BITMAP
F8
ENDCHAR
STARTCHAR uni02CA
ENCODING 714
SWIDTH 222 0
DWIDTH 4 0
BBX 2 3 1 10
BITMAP
40
C0
80
ENDCHAR
STARTCHAR uni02CB
ENCODING 715
SWIDTH 222 0
DWIDTH 4 0
BBX 2 3 1 10
BITMAP
80
C0
40
ENDCHAR
STARTCHAR uni02CC
ENCODING 716
SWIDTH 284 0
DWIDTH 5 0
BBX 1 5 2 -4
BITMAP
80
80
80
80
80
ENDCHAR
STARTCHAR uni02CD
ENCODING 717
SWIDTH 342 0
DWIDTH 6 0
BBX 6 1 0 -3
BITMAP
FC
ENDCHAR
STARTCHAR uni02CE
ENCODING 718
SWIDTH 222 0
DWIDTH 4 0
BBX 2 3 1 -3
BITMAP
80
C0
40
ENDCHAR
STARTCHAR uni02CF
ENCODING 719
SWIDTH 223 0
DWIDTH 4 0
BBX 2 3 1 -3
BITMAP
40
C0
80
ENDCHAR
STARTCHAR uni02D0
ENCODING 720
SWIDTH 341 0
DWIDTH 6 0
BBX 3 8 2 0
BITMAP
E0
C0
C0
00
00
C0
C0
E0
ENDCHAR
STARTCHAR uni02D1
ENCODING 721
SWIDTH 341 0
DWIDTH 6 0
BBX 3 3 2 6
BITMAP
E0
C0
C0
ENDCHAR
STARTCHAR uni02D2
ENCODING 722
SWIDTH 341 0
DWIDTH 6 0
BBX 4 6 1 1
BITMAP
E0
30
10
10
30
E0
ENDCHAR
STARTCHAR uni02D3
ENCODING 723
SWIDTH 341 0
DWIDTH 6 0
BBX 4 6 1 1
BITMAP
30
40
80
80
40
30
ENDCHAR
STARTCHAR uni02D4
ENCODING 724
SWIDTH 341 0
DWIDTH 6 0
BBX 4 4 1 3
BITMAP
20
20
20
F0
ENDCHAR
STARTCHAR uni02D5
ENCODING 725
SWIDTH 341 0
DWIDTH 6 0
BBX 4 4 1 3
BITMAP
F0
20
20
20
ENDCHAR
STARTCHAR uni02D6
ENCODING 726
SWIDTH 341 0
DWIDTH 6 0
BBX 4 4 1 3
BITMAP
20
20
F0
20
ENDCHAR
STARTCHAR uni02D7
ENCODING 727
SWIDTH 341 0
DWIDTH 6 0
BBX 4 1 1 4
BITMAP
F0
ENDCHAR
STARTCHAR breve
ENCODING 728
SWIDTH 353 0
DWIDTH 6 0
BBX 5 3 1 10
BITMAP
88
88
70
ENDCHAR
STARTCHAR dotaccent
ENCODING 729
SWIDTH 194 0
DWIDTH 3 0
BBX 2 2 1 10
BITMAP
C0
C0
ENDCHAR
STARTCHAR ring
ENCODING 730
SWIDTH 265 0
DWIDTH 5 0
BBX 3 4 1 10
BITMAP
E0
A0
A0
E0
ENDCHAR
STARTCHAR ogonek
ENCODING 731
SWIDTH 277 0
DWIDTH 5 0
BBX 3 4 1 -4
BITMAP
40
80
A0
E0
ENDCHAR
STARTCHAR tilde
ENCODING 732
SWIDTH 381 0
DWIDTH 7 0
BBX 5 2 1 10
BITMAP
E8
B8
ENDCHAR
STARTCHAR hungarumlaut
ENCODING 733
SWIDTH 350 0
DWIDTH 6 0
BBX 5 3 1 10
BITMAP
58
90
A0
ENDCHAR
STARTCHAR uni02DE
ENCODING 734
SWIDTH 205 0
DWIDTH 4 0
BBX 4 3 -1 4
BITMAP
40
D0
30
ENDCHAR
STARTCHAR uni02DF
ENCODING 735
SWIDTH 302 0
DWIDTH 5 0
BBX 4 4 1 9
BITMAP
90
60
60
90
ENDCHAR
STARTCHAR uni02E0
ENCODING 736
SWIDTH 413 0
DWIDTH 7 0
BBX 7 10 0 2
BITMAP
E6
64
24
24
38
18
18
28
28
18
ENDCHAR
STARTCHAR uni02E1
ENCODING 737
SWIDTH 244 0
DWIDTH 4 0
BBX 4 10 0 5
BITMAP
E0
20
20
20
20
20
20
20
20
70
ENDCHAR
STARTCHAR uni02E2
ENCODING 738
SWIDTH 337 0
DWIDTH 6 0
BBX 5 7 1 5
BITMAP
F0
90
C0
70
90
98
F0
ENDCHAR
STARTCHAR uni02E3
ENCODING 739
SWIDTH 445 0
DWIDTH 8 0
BBX 8 7 0 5
BITMAP
76
24
18
18
1C
24
EF
ENDCHAR
STARTCHAR uni02E4
ENCODING 740
SWIDTH 364 0
DWIDTH 7 0
BBX 6 10 1 5
BITMAP
78
8C
80
80
C0
60
10
10
10
78
ENDCHAR
STARTCHAR uni02E5
ENCODING 741
SWIDTH 423 0
DWIDTH 8 0
BBX 6 12 1 1
BITMAP
FC
04
04
04
04
04
04
04
04
04
04
04
ENDCHAR
STARTCHAR uni02E6
ENCODING 742
SWIDTH 414 0
DWIDTH 7 0
BBX 6 13 1 0
BITMAP
04
04
04
04
FC
04
04
04
04
04
04
04
04
ENDCHAR
STARTCHAR uni02E7
ENCODING 743
SWIDTH 414 0
DWIDTH 7 0
BBX 6 13 1 0
BITMAP
04
04
04
04
04
04
FC
04
04
04
04
04
04
ENDCHAR
STARTCHAR uni02E8
ENCODING 744
SWIDTH 414 0
DWIDTH 7 0
BBX 6 12 1 0
BITMAP
04
04
04
04
04
04
04
04
FC
04
04
04
ENDCHAR
STARTCHAR uni02E9
ENCODING 745
SWIDTH 414 0
DWIDTH 7 0
BBX 6 13 1 0
BITMAP
04
04
04
04
04
04
04
04
04
04
04
04
FC
ENDCHAR
STARTCHAR uni02EC
ENCODING 748
SWIDTH 341 0
DWIDTH 6 0
BBX 6 4 0 -3
BITMAP
CC
68
30
10
ENDCHAR
STARTCHAR uni02ED
ENCODING 749
SWIDTH 380 0
DWIDTH 7 0
BBX 5 3 1 10
BITMAP
F8
00
F8
ENDCHAR
STARTCHAR uni02F7
ENCODING 759
SWIDTH 381 0
DWIDTH 7 0
BBX 5 2 1 -3
BITMAP
E8
B8
ENDCHAR
STARTCHAR uni0300
ENCODING 768
SWIDTH 0 0
DWIDTH 0 0
BBX 3 3 -6 10
BITMAP
C0
40
20
ENDCHAR
STARTCHAR uni0301
ENCODING 769
SWIDTH 0 0
DWIDTH 0 0
BBX 3 3 -5 10
BITMAP
60
40
80
ENDCHAR
STARTCHAR uni0302
ENCODING 770
SWIDTH 0 0
DWIDTH 0 0
BBX 5 3 -7 10
BITMAP
30
50
C8
ENDCHAR
STARTCHAR uni0303
ENCODING 771
SWIDTH 0 0
DWIDTH 0 0
BBX 6 2 -7 10
BITMAP
64
98
ENDCHAR
STARTCHAR uni0304
ENCODING 772
SWIDTH 0 0
DWIDTH 0 0
BBX 5 1 -7 10
BITMAP
F8
ENDCHAR
STARTCHAR uni0305
ENCODING 773
SWIDTH 0 0
DWIDTH 0 0
BBX 7 1 -7 10
BITMAP
FE
ENDCHAR
STARTCHAR uni0306
ENCODING 774
SWIDTH 0 0
DWIDTH 0 0
BBX 5 3 -7 10
BITMAP
88
88
70
ENDCHAR
STARTCHAR uni0307
ENCODING 775
SWIDTH 0 0
DWIDTH 0 0
BBX 2 2 -5 10
BITMAP
C0
C0
ENDCHAR
STARTCHAR uni0308
ENCODING 776
SWIDTH 0 0
DWIDTH 0 0
BBX 6 2 -7 10
BITMAP
CC
CC
ENDCHAR
STARTCHAR uni0309
ENCODING 777
SWIDTH 0 0
DWIDTH 0 0
BBX 4 4 -6 10
BITMAP
60
90
30
40
ENDCHAR
STARTCHAR uni030A
ENCODING 778
SWIDTH 0 0
DWIDTH 0 0
BBX 4 4 -6 10
BITMAP
60
90
90
60
ENDCHAR
STARTCHAR uni030B
ENCODING 779
SWIDTH 0 0
DWIDTH 0 0
BBX 5 3 -6 10
BITMAP
68
58
90
ENDCHAR
STARTCHAR uni030C
ENCODING 780
SWIDTH 0 0
DWIDTH 0 0
BBX 5 3 -7 10
BITMAP
C8
50
30
ENDCHAR
STARTCHAR uni030D
ENCODING 781
SWIDTH 0 0
DWIDTH 0 0
BBX 1 4 -5 10
BITMAP
80
80
80
80
ENDCHAR
STARTCHAR uni030E
ENCODING 782
SWIDTH 0 0
DWIDTH 0 0
BBX 4 4 -6 10
BITMAP
90
90
90
90
ENDCHAR
STARTCHAR uni030F
ENCODING 783
SWIDTH 0 0
DWIDTH 0 0
BBX 6 3 -8 10
BITMAP
D8
68
2C
ENDCHAR
STARTCHAR uni0310
ENCODING 784
SWIDTH 0 0
DWIDTH 0 0
BBX 5 4 -7 10
BITMAP
30
B8
88
70
ENDCHAR
STARTCHAR uni0311
ENCODING 785
SWIDTH 0 0
DWIDTH 0 0
BBX 5 3 -7 10
BITMAP
70
88
88
ENDCHAR
STARTCHAR uni0312
ENCODING 786
SWIDTH 0 0
DWIDTH 0 0
BBX 2 4 -5 10
BITMAP
C0
80
C0
C0
ENDCHAR
STARTCHAR uni0313
ENCODING 787
SWIDTH 0 0
DWIDTH 0 0
BBX 2 4 -5 10
BITMAP
C0
C0
40
80
ENDCHAR
STARTCHAR uni0314
ENCODING 788
SWIDTH 0 0
DWIDTH 0 0
BBX 2 4 -5 10
BITMAP
C0
C0
80
40
ENDCHAR
STARTCHAR uni0315
ENCODING 789
SWIDTH 0 0
DWIDTH 0 0
BBX 1 4 -4 9
BITMAP
80
80
80
80
ENDCHAR
STARTCHAR uni0316
ENCODING 790
SWIDTH 0 0
DWIDTH 0 0
BBX 3 3 -6 -4
BITMAP
C0
40
20
ENDCHAR
STARTCHAR uni0317
ENCODING 791
SWIDTH 0 0
DWIDTH 0 0
BBX 3 3 -5 -4
BITMAP
60
40
80
ENDCHAR
STARTCHAR uni0318
ENCODING 792
SWIDTH 0 0
DWIDTH 0 0
BBX 2 4 -5 -5
BITMAP
40
40
C0
40
ENDCHAR
STARTCHAR uni0319
ENCODING 793
SWIDTH 0 0
DWIDTH 0 0
BBX 2 4 -5 -5
BITMAP
80
80
C0
80
ENDCHAR
STARTCHAR uni031A
ENCODING 794
SWIDTH 0 0
DWIDTH 0 0
BBX 4 3 -6 10
BITMAP
F0
10
10
ENDCHAR
STARTCHAR uni031B
ENCODING 795
SWIDTH 0 0
DWIDTH 0 0
BBX 3 4 -3 8
BITMAP
60
60
20
C0
ENDCHAR
STARTCHAR uni031C
ENCODING 796
SWIDTH 0 0
DWIDTH 0 0
BBX 3 4 -6 -5
BITMAP
60
80
80
60
ENDCHAR
STARTCHAR uni031D
ENCODING 797
SWIDTH 0 0
DWIDTH 0 0
BBX 4 3 -6 -4
BITMAP
40
40
F0
ENDCHAR
STARTCHAR uni031E
ENCODING 798
SWIDTH 0 0
DWIDTH 0 0
BBX 4 3 -6 -4
BITMAP
F0
40
40
ENDCHAR
STARTCHAR uni031F
ENCODING 799
SWIDTH 0 0
DWIDTH 0 0
BBX 4 4 -6 -5
BITMAP
40
40
F0
40
ENDCHAR
STARTCHAR uni0320
ENCODING 800
SWIDTH 0 0
DWIDTH 0 0
BBX 4 1 -6 -3
BITMAP
F0
ENDCHAR
STARTCHAR uni0321
ENCODING 801
SWIDTH 0 0
DWIDTH 0 0
BBX 5 5 -8 -4
BITMAP
08
08
08
C8
70
ENDCHAR
STARTCHAR uni0322
ENCODING 802
SWIDTH 0 0
DWIDTH 0 0
BBX 5 5 -4 -4
BITMAP
80
80
80
98
70
ENDCHAR
STARTCHAR uni0323
ENCODING 803
SWIDTH 0 0
DWIDTH 0 0
BBX 2 2 -5 -3
BITMAP
C0
C0
ENDCHAR
STARTCHAR uni0324
ENCODING 804
SWIDTH 0 0
DWIDTH 0 0
BBX 6 2 -7 -3
BITMAP
CC
CC
ENDCHAR
STARTCHAR uni0325
ENCODING 805
SWIDTH 0 0
DWIDTH 0 0
BBX 4 4 -6 -5
BITMAP
60
90
90
60
ENDCHAR
STARTCHAR uni0326
ENCODING 806
SWIDTH 0 0
DWIDTH 0 0
BBX 2 4 -5 -5
BITMAP
C0
C0
40
80
ENDCHAR
STARTCHAR uni0327
ENCODING 807
SWIDTH 0 0
DWIDTH 0 0
BBX 4 4 -6 -4
BITMAP
40
60
10
E0
ENDCHAR
STARTCHAR uni0328
ENCODING 808
SWIDTH 0 0
DWIDTH 0 0
BBX 4 4 -6 -4
BITMAP
60
80
90
E0
ENDCHAR
STARTCHAR uni0329
ENCODING 809
SWIDTH 0 0
DWIDTH 0 0
BBX 1 3 -5 -4
BITMAP
80
80
80
ENDCHAR
STARTCHAR uni032A
ENCODING 810
SWIDTH 0 0
DWIDTH 0 0
BBX 4 2 -6 -3
BITMAP
F0
90
ENDCHAR
STARTCHAR uni032B
ENCODING 811
SWIDTH 0 0
DWIDTH 0 0
BBX 6 3 -7 -3
BITMAP
A4
A4
78
ENDCHAR
STARTCHAR uni032C
ENCODING 812
SWIDTH 0 0
DWIDTH 0 0
BBX 5 3 -7 -4
BITMAP
C8
50
30
ENDCHAR
STARTCHAR uni032D
ENCODING 813
SWIDTH 0 0
DWIDTH 0 0
BBX 5 3 -7 -4
BITMAP
30
50
C8
ENDCHAR
STARTCHAR uni032E
ENCODING 814
SWIDTH 0 0
DWIDTH 0 0
BBX 5 3 -7 -4
BITMAP
88
88
70
ENDCHAR
STARTCHAR uni032F
ENCODING 815
SWIDTH 0 0
DWIDTH 0 0
BBX 5 2 -7 -3
BITMAP
78
88
ENDCHAR
STARTCHAR uni0330
ENCODING 816
SWIDTH 0 0
DWIDTH 0 0
BBX 6 2 -7 -3
BITMAP
64
98
ENDCHAR
STARTCHAR uni0331
ENCODING 817
SWIDTH 0 0
DWIDTH 0 0
BBX 5 1 -7 -3
BITMAP
F8
ENDCHAR
STARTCHAR uni0332
ENCODING 818
SWIDTH 0 0
DWIDTH 0 0
BBX 9 1 -9 -3
BITMAP
FF80
ENDCHAR
STARTCHAR uni0333
ENCODING 819
SWIDTH 0 0
DWIDTH 0 0
BBX 9 3 -9 -5
BITMAP
FF80
0000
FF80
ENDCHAR
STARTCHAR uni0334
ENCODING 820
SWIDTH 0 0
DWIDTH 0 0
BBX 6 2 -7 4
BITMAP
64
98
ENDCHAR
STARTCHAR uni0335
ENCODING 821
SWIDTH 0 0
DWIDTH 0 0
BBX 6 1 -7 4
BITMAP
FC
ENDCHAR
STARTCHAR uni0336
ENCODING 822
SWIDTH 0 0
DWIDTH 0 0
BBX 9 1 -9 4
BITMAP
FF80
ENDCHAR
STARTCHAR uni0337
ENCODING 823
SWIDTH 0 0
DWIDTH 0 0
BBX 5 4 -7 5
BITMAP
08
18
20
C0
ENDCHAR
STARTCHAR uni0338
ENCODING 824
SWIDTH 0 0
DWIDTH 0 0
BBX 8 16 -8 -3
BITMAP
01
02
02
02
04
04
08
08
10
10
10
20
20
40
40
80
ENDCHAR
STARTCHAR uni0339
ENCODING 825
SWIDTH 0 0
DWIDTH 0 0
BBX 2 4 -5 -5
BITMAP
C0
40
40
C0
ENDCHAR
STARTCHAR uni033A
ENCODING 826
SWIDTH 0 0
DWIDTH 0 0
BBX 4 3 -6 -3
BITMAP
90
90
F0
ENDCHAR
STARTCHAR uni033B
ENCODING 827
SWIDTH 0 0
DWIDTH 0 0
BBX 3 4 -6 -4
BITMAP
E0
A0
A0
E0
ENDCHAR
STARTCHAR uni033C
ENCODING 828
SWIDTH 0 0
DWIDTH 0 0
BBX 6 2 -7 -3
BITMAP
DC
20
ENDCHAR
STARTCHAR uni033D
ENCODING 829
SWIDTH 0 0
DWIDTH 0 0
BBX 4 3 -6 10
BITMAP
B0
40
B0
ENDCHAR
STARTCHAR uni033E
ENCODING 830
SWIDTH 0 0
DWIDTH 0 0
BBX 2 6 -5 9
BITMAP
C0
80
80
40
40
80
ENDCHAR
STARTCHAR uni033F
ENCODING 831
SWIDTH 0 0
DWIDTH 0 0
BBX 7 3 -8 9
BITMAP
FE
00
FE
ENDCHAR
STARTCHAR uni0346
ENCODING 838
SWIDTH 0 0
DWIDTH 0 0
BBX 5 2 -7 10
BITMAP
F8
88
ENDCHAR
STARTCHAR uni0347
ENCODING 839
SWIDTH 0 0
DWIDTH 0 0
BBX 6 3 -7 -4
BITMAP
FC
00
FC
ENDCHAR
STARTCHAR uni034C
ENCODING 844
SWIDTH 0 0
DWIDTH 0 0
BBX 6 4 -7 10
BITMAP
FC
00
64
98
ENDCHAR
STARTCHAR uni034D
ENCODING 845
SWIDTH 0 0
DWIDTH 0 0
BBX 9 3 -9 -5
BITMAP
2300
FF80
2300
ENDCHAR
STARTCHAR uni0359
ENCODING 857
SWIDTH 0 0
DWIDTH 0 0
BBX 5 6 -7 -7
BITMAP
20
E8
58
70
E8
20
ENDCHAR
STARTCHAR uni035C
ENCODING 860
SWIDTH 0 0
DWIDTH 0 0
BBX 12 3 -6 -4
BITMAP
8010
4020
3FC0
ENDCHAR
STARTCHAR uni0360
ENCODING 864
SWIDTH 0 0
DWIDTH 0 0
BBX 10 2 -5 10
BITMAP
7840
8780
ENDCHAR
STARTCHAR uni0361
ENCODING 865
SWIDTH 0 0
DWIDTH 0 0
BBX 8 2 -4 11
BITMAP
7E
81
ENDCHAR
STARTCHAR uni0362
ENCODING 866
SWIDTH 0 0
DWIDTH 0 0
BBX 14 3 -7 -5
BITMAP
0008
FFFC
0008
ENDCHAR
STARTCHAR uni037E
ENCODING 894
SWIDTH 261 0
DWIDTH 5 0
BBX 3 12 1 -3
BITMAP
40
C0
00
00
00
00
00
40
E0
20
40
80
ENDCHAR
STARTCHAR tonos
ENCODING 900
SWIDTH 165 0
DWIDTH 3 0
BBX 1 3 1 10
BITMAP
80
80
80
ENDCHAR
STARTCHAR dieresistonos
ENCODING 901
SWIDTH 426 0
DWIDTH 8 0
BBX 6 3 1 10
BITMAP
B4
AC
20
ENDCHAR
STARTCHAR Alphatonos
ENCODING 902
SWIDTH 718 0
DWIDTH 13 0
BBX 13 12 0 0
BITMAP
6200
4600
4700
0900
0980
0980
10C0
1FC0
2040
2060
6060
F0F8
ENDCHAR
STARTCHAR anoteleia
ENCODING 903
SWIDTH 261 0
DWIDTH 5 0
BBX 2 2 1 7
BITMAP
40
C0
ENDCHAR
STARTCHAR Epsilontonos
ENCODING 904
SWIDTH 745 0
DWIDTH 13 0
BBX 13 12 0 0
BITMAP
DFF0
8C10
8408
0420
0420
07E0
0420
0400
0408
0408
0C18
1FF0
ENDCHAR
STARTCHAR Etatonos
ENCODING 905
SWIDTH 896 0
DWIDTH 16 0
BBX 16 12 0 0
BITMAP
DF3F
8C0C
840C
040C
040C
07FC
040C
040C
040C
040C
0C0C
1F3F
ENDCHAR
STARTCHAR Iotatonos
ENCODING 906
SWIDTH 478 0
DWIDTH 9 0
BBX 8 12 0 0
BITMAP
DF
8C
84
04
04
04
04
04
04
04
0C
1F
ENDCHAR
STARTCHAR Omicrontonos
ENCODING 908
SWIDTH 806 0
DWIDTH 15 0
BBX 14 12 0 0
BITMAP
C7C0
8C30
9818
1018
3008
300C
300C
3008
1018
1818
0C30
07C0
ENDCHAR
STARTCHAR Upsilontonos
ENCODING 910
SWIDTH 787 0
DWIDTH 14 0
BBX 15 12 -1 0
BITMAP
5F1E
460C
8308
0310
0190
00E0
00C0
0040
0040
0040
00C0
01F0
ENDCHAR
STARTCHAR Omegatonos
ENCODING 911
SWIDTH 830 0
DWIDTH 15 0
BBX 14 12 0 0
BITMAP
C7E0
8FF0
9818
1818
300C
300C
1008
1818
0810
2C24
3E7C
3E7C
ENDCHAR
STARTCHAR iotadieresistonos
ENCODING 912
SWIDTH 259 0
DWIDTH 5 0
BBX 6 13 -1 0
BITMAP
10
D4
A4
00
30
30
30
30
20
20
20
34
18
ENDCHAR
STARTCHAR Alpha
ENCODING 913
SWIDTH 718 0
DWIDTH 13 0
BBX 13 12 0 0
BITMAP
0200
0600
0700
0900
0980
0980
10C0
1FC0
2040
2060
6060
F0F8
ENDCHAR
STARTCHAR Beta
ENCODING 914
SWIDTH 618 0
DWIDTH 11 0
BBX 10 12 1 0
BITMAP
FF00
6180
6180
6180
6100
7E00
6100
6180
60C0
6080
6180
FF00
ENDCHAR
STARTCHAR Gamma
ENCODING 915
SWIDTH 569 0
DWIDTH 10 0
BBX 9 12 1 0
BITMAP
FF80
6080
6080
6000
6000
6000
6000
6000
6000
6000
6000
F800
ENDCHAR
STARTCHAR Delta
ENCODING 916
SWIDTH 667 0
DWIDTH 12 0
BBX 11 12 0 0
BITMAP
0600
0600
0600
0B00
0900
1180
1180
20C0
20C0
4040
4060
FFE0
ENDCHAR
STARTCHAR Epsilon
ENCODING 917
SWIDTH 626 0
DWIDTH 11 0
BBX 10 12 1 0
BITMAP
FF80
6080
6080
6100
6100
7F00
6100
6000
6040
6040
6080
FF80
ENDCHAR
STARTCHAR Zeta
ENCODING 918
SWIDTH 594 0
DWIDTH 11 0
BBX 10 12 0 0
BITMAP
7FC0
4180
4180
0300
0600
0600
0C00
1800
1800
3040
6040
FFC0
ENDCHAR
STARTCHAR Eta
ENCODING 919
SWIDTH 777 0
DWIDTH 14 0
BBX 12 12 1 0
BITMAP
F9F0
6060
6060
6060
6060
7FE0
6060
6060
6060
6060
6060
F9F0
ENDCHAR
STARTCHAR Theta
ENCODING 920
SWIDTH 738 0
DWIDTH 13 0
BBX 11 12 1 0
BITMAP
1F00
3FC0
60C0
C060
D160
DF60
DF60
D160
C060
60E0
3FC0
1F00
ENDCHAR
STARTCHAR Iota
ENCODING 921
SWIDTH 357 0
DWIDTH 6 0
BBX 5 12 1 0
BITMAP
F8
60
60
60
60
60
60
60
60
60
60
F8
ENDCHAR
STARTCHAR Kappa
ENCODING 922
SWIDTH 702 0
DWIDTH 13 0
BBX 12 12 1 0
BITMAP
FBE0
6180
6100
6200
6400
6800
7800
6E00
6700
6380
61C0
FBF0
ENDCHAR
STARTCHAR Lambda
ENCODING 923
SWIDTH 710 0
DWIDTH 13 0
BBX 13 12 0 0
BITMAP
0200
0600
0700
0B00
0980
0980
1080
10C0
20C0
2060
6060
F0F8
ENDCHAR
STARTCHAR Mu
ENCODING 924
SWIDTH 895 0
DWIDTH 16 0
BBX 15 12 0 0
BITMAP
700E
381C
381C
2C2C
2C2C
262C
264C
264C
238C
238C
210C
F91E
ENDCHAR
STARTCHAR Nu
ENCODING 925
SWIDTH 742 0
DWIDTH 13 0
BBX 12 12 1 0
BITMAP
E0F0
7040
7040
5840
4C40
4E40
4740
4340
41C0
40C0
40C0
F040
ENDCHAR
STARTCHAR Xi
ENCODING 926
SWIDTH 648 0
DWIDTH 12 0
BBX 10 12 1 0
BITMAP
FF80
FF80
8040
2100
2100
3F00
3F00
0000
8040
8040
FFC0
FFC0
ENDCHAR
STARTCHAR Omicron
ENCODING 927
SWIDTH 738 0
DWIDTH 13 0
BBX 11 12 1 0
BITMAP
1F00
20C0
6060
C060
C060
C060
C060
C060
C060
6040
20C0
1F00
ENDCHAR
STARTCHAR Pi
ENCODING 928
SWIDTH 759 0
DWIDTH 14 0
BBX 12 12 1 0
BITMAP
FFF0
6040
6040
6040
6040
6040
6040
6040
6040
6040
6040
F9F0
ENDCHAR
STARTCHAR Rho
ENCODING 929
SWIDTH 569 0
DWIDTH 10 0
BBX 9 12 1 0
BITMAP
FE00
6300
6180
6180
6180
6300
7C00
6000
6000
6000
6000
F800
ENDCHAR
STARTCHAR Sigma
ENCODING 931
SWIDTH 604 0
DWIDTH 11 0
BBX 9 12 1 0
BITMAP
FF80
E080
6080
3000
1800
0C00
0800
1000
2080
4080
FF80
FF80
ENDCHAR
STARTCHAR Tau
ENCODING 932
SWIDTH 603 0
DWIDTH 11 0
BBX 11 12 0 0
BITMAP
FFC0
8440
8420
0400
0400
0400
0400
0400
0400
0400
0400
1F00
ENDCHAR
STARTCHAR Upsilon
ENCODING 933
SWIDTH 647 0
DWIDTH 12 0
BBX 12 12 0 0
BITMAP
F8F0
7040
3080
1880
1900
0D00
0600
0600
0600
0600
0600
1F80
ENDCHAR
STARTCHAR Phi
ENCODING 934
SWIDTH 718 0
DWIDTH 13 0
BBX 11 12 1 0
BITMAP
1F00
0400
7FC0
C460
C460
8460
C460
C460
E440
3F80
0400
1F00
ENDCHAR
STARTCHAR Chi
ENCODING 935
SWIDTH 664 0
DWIDTH 12 0
BBX 12 12 0 0
BITMAP
F8F0
3040
1880
1900
0D00
0600
0600
0B00
1180
31C0
20C0
F1F0
ENDCHAR
STARTCHAR Psi
ENCODING 936
SWIDTH 720 0
DWIDTH 13 0
BBX 13 12 0 0
BITMAP
CF98
6230
6230
6230
6230
6230
3260
3FE0
0700
0200
0200
0F80
ENDCHAR
STARTCHAR Omega
ENCODING 937
SWIDTH 777 0
DWIDTH 14 0
BBX 12 12 1 0
BITMAP
1F80
3FC0
6060
6060
C030
C030
4020
6060
2040
B0D0
F9F0
F9F0
ENDCHAR
STARTCHAR Iotadieresis
ENCODING 938
SWIDTH 357 0
DWIDTH 6 0
BBX 6 15 0 0
BITMAP
CC
CC
00
7C
30
30
30
30
30
30
30
30
30
30
7C
ENDCHAR
STARTCHAR Upsilondieresis
ENCODING 939
SWIDTH 647 0
DWIDTH 12 0
BBX 12 15 0 0
BITMAP
1980
1980
0000
F8F0
7040
3080
1880
1900
0D00
0600
0600
0600
0600
0600
1F80
ENDCHAR
STARTCHAR alphatonos
ENCODING 940
SWIDTH 561 0
DWIDTH 10 0
BBX 9 13 1 0
BITMAP
0800
1800
1000
0000
3980
4B00
8600
8600
8400
8400
8A00
DA80
7300
ENDCHAR
STARTCHAR epsilontonos
ENCODING 941
SWIDTH 381 0
DWIDTH 7 0
BBX 5 13 1 0
BITMAP
18
10
10
00
78
F8
80
80
70
80
80
F8
78
ENDCHAR
STARTCHAR etatonos
ENCODING 942
SWIDTH 510 0
DWIDTH 9 0
BBX 8 17 0 -4
BITMAP
06
04
04
00
66
EF
31
31
21
21
21
21
61
01
03
03
03
ENDCHAR
STARTCHAR iotatonos
ENCODING 943
SWIDTH 259 0
DWIDTH 5 0
BBX 4 13 1 0
BITMAP
60
40
40
00
C0
C0
C0
C0
80
80
80
D0
60
ENDCHAR
STARTCHAR upsilondieresistonos
ENCODING 944
SWIDTH 491 0
DWIDTH 9 0
BBX 8 13 0 0
BITMAP
08
7E
52
00
66
E2
21
21
21
41
23
3E
3C
ENDCHAR
STARTCHAR alpha
ENCODING 945
SWIDTH 561 0
DWIDTH 10 0
BBX 9 9 1 0
BITMAP
3980
4B00
8600
8600
8400
8400
8A00
DA80
7300
ENDCHAR
STARTCHAR beta
ENCODING 946
SWIDTH 530 0
DWIDTH 10 0
BBX 8 18 1 -4
BITMAP
1E
3E
22
42
42
44
D8
96
82
81
C1
C3
BE
9C
80
C0
C0
80
ENDCHAR
STARTCHAR gamma
ENCODING 947
SWIDTH 466 0
DWIDTH 8 0
BBX 8 13 0 -4
BITMAP
63
E3
16
16
14
14
18
18
10
10
10
30
30
ENDCHAR
STARTCHAR delta
ENCODING 948
SWIDTH 479 0
DWIDTH 9 0
BBX 7 14 1 0
BITMAP
38
7E
44
20
10
38
7C
86
82
82
82
86
FC
78
ENDCHAR
STARTCHAR epsilon
ENCODING 949
SWIDTH 381 0
DWIDTH 7 0
BBX 5 9 1 0
BITMAP
78
F8
80
80
70
80
80
F8
78
ENDCHAR
STARTCHAR zeta
ENCODING 950
SWIDTH 386 0
DWIDTH 7 0
BBX 6 18 1 -5
BITMAP
20
64
2C
18
20
40
C0
80
80
80
80
80
F8
3C
04
04
38
30
ENDCHAR
STARTCHAR eta
ENCODING 951
SWIDTH 510 0
DWIDTH 9 0
BBX 8 13 0 -4
BITMAP
66
EF
31
31
21
21
21
21
61
01
03
03
03
ENDCHAR
STARTCHAR theta
ENCODING 952
SWIDTH 514 0
DWIDTH 9 0
BBX 7 14 1 0
BITMAP
38
7C
42
82
82
82
FE
FE
82
82
82
42
7C
38
ENDCHAR
STARTCHAR iota
ENCODING 953
SWIDTH 259 0
DWIDTH 5 0
BBX 4 9 1 0
BITMAP
C0
C0
C0
C0
80
80
80
D0
60
ENDCHAR
STARTCHAR kappa
ENCODING 954
SWIDTH 495 0
DWIDTH 9 0
BBX 9 9 0 0
BITMAP
6100
E700
2400
2800
3800
3800
2400
2780
2300
ENDCHAR
STARTCHAR lambda
ENCODING 955
SWIDTH 506 0
DWIDTH 9 0
BBX 9 14 0 0
BITMAP
1000
3800
4800
0800
0400
0C00
0C00
1C00
1400
3400
2400
6600
6380
C300
ENDCHAR
STARTCHAR mu
ENCODING 956
SWIDTH 552 0
DWIDTH 10 0
BBX 9 13 1 -4
BITMAP
C200
C200
C200
C200
8400
8400
CA00
CA80
B300
8000
8000
8000
8000
ENDCHAR
STARTCHAR nu
ENCODING 957
SWIDTH 453 0
DWIDTH 8 0
BBX 8 9 0 0
BITMAP
62
E3
23
23
12
16
14
18
18
ENDCHAR
STARTCHAR xi
ENCODING 958
SWIDTH 390 0
DWIDTH 7 0
BBX 6 17 1 -4
BITMAP
40
4C
38
40
80
48
78
80
80
80
C0
F8
3C
04
04
3C
30
ENDCHAR
STARTCHAR omicron
ENCODING 959
SWIDTH 475 0
DWIDTH 9 0
BBX 7 9 1 0
BITMAP
38
7C
82
82
82
82
86
FC
78
ENDCHAR
STARTCHAR pi
ENCODING 960
SWIDTH 591 0
DWIDTH 11 0
BBX 10 9 0 0
BITMAP
3FC0
7FC0
9100
1100
1100
1300
3300
23C0
6180
ENDCHAR
STARTCHAR rho
ENCODING 961
SWIDTH 515 0
DWIDTH 9 0
BBX 8 13 1 -4
BITMAP
3C
7E
42
81
81
81
C2
BE
BC
80
C0
C0
C0
ENDCHAR
STARTCHAR uni03C2
ENCODING 962
SWIDTH 377 0
DWIDTH 7 0
BBX 6 13 1 -4
BITMAP
3C
F8
80
80
80
80
C0
78
3C
04
04
38
30
ENDCHAR
STARTCHAR sigma
ENCODING 963
SWIDTH 545 0
DWIDTH 10 0
BBX 9 9 1 0
BITMAP
3F80
7F80
8400
8200
8200
8200
8600
FC00
7800
ENDCHAR
STARTCHAR tau
ENCODING 964
SWIDTH 392 0
DWIDTH 7 0
BBX 7 9 0 0
BITMAP
7E
FE
90
10
10
10
10
1C
1C
ENDCHAR
STARTCHAR upsilon
ENCODING 965
SWIDTH 491 0
DWIDTH 9 0
BBX 8 9 0 0
BITMAP
66
E2
21
21
21
41
23
3E
3C
ENDCHAR
STARTCHAR phi
ENCODING 966
SWIDTH 603 0
DWIDTH 11 0
BBX 9 13 1 -4
BITMAP
7700
CF80
8880
8880
8880
8880
C980
7F00
3C00
1800
1800
1800
1000
ENDCHAR
STARTCHAR chi
ENCODING 967
SWIDTH 462 0
DWIDTH 8 0
BBX 10 13 -1 -4
BITMAP
70C0
7180
0900
0B00
0A00
0400
0C00
0C00
1400
3400
2200
63C0
C180
ENDCHAR
STARTCHAR psi
ENCODING 968
SWIDTH 620 0
DWIDTH 11 0
BBX 10 17 0 -4
BITMAP
0600
0600
0600
0400
6480
E440
2440
2440
2440
2440
24C0
3F80
1F00
0400
0400
0400
0400
ENDCHAR
STARTCHAR omega
ENCODING 969
SWIDTH 660 0
DWIDTH 12 0
BBX 10 9 1 0
BITMAP
6180
E080
8C40
8C40
8C40
8840
8840
F7C0
7380
ENDCHAR
STARTCHAR iotadieresis
ENCODING 970
SWIDTH 259 0
DWIDTH 5 0
BBX 6 12 -1 0
BITMAP
CC
44
00
30
30
30
30
20
20
20
34
18
ENDCHAR
STARTCHAR upsilondieresis
ENCODING 971
SWIDTH 491 0
DWIDTH 9 0
BBX 8 12 0 0
BITMAP
66
22
00
66
E2
21
21
21
41
23
3E
3C
ENDCHAR
STARTCHAR omicrontonos
ENCODING 972
SWIDTH 475 0
DWIDTH 9 0
BBX 7 13 1 0
BITMAP
08
18
10
00
38
7C
82
82
82
82
86
FC
78
ENDCHAR
STARTCHAR upsilontonos
ENCODING 973
SWIDTH 491 0
DWIDTH 9 0
BBX 8 13 0 0
BITMAP
0C
08
08
00
66
E2
21
21
21
41
23
3E
3C
ENDCHAR
STARTCHAR omegatonos
ENCODING 974
SWIDTH 660 0
DWIDTH 12 0
BBX 10 13 1 0
BITMAP
0400
0400
0800
0000
6180
E080
8C40
8C40
8C40
8840
8840
F7C0
7380
ENDCHAR
STARTCHAR uni03D0
ENCODING 976
SWIDTH 438 0
DWIDTH 8 0
BBX 7 14 1 0
BITMAP
1C
3C
42
42
64
BC
88
90
FC
C4
C4
C4
7C
38
ENDCHAR
STARTCHAR uni03D1
ENCODING 977
SWIDTH 541 0
DWIDTH 10 0
BBX 9 14 0 0
BITMAP
1C00
1E00
2300
2100
2100
2100
1180
0F80
6300
F100
3100
1100
1F00
1E00
ENDCHAR
STARTCHAR uni03D2
ENCODING 978
SWIDTH 616 0
DWIDTH 11 0
BBX 11 12 0 0
BITMAP
70E0
F9E0
0960
0E00
0E00
0600
0400
0400
0400
0400
0400
1F00
ENDCHAR
STARTCHAR uni03D5
ENCODING 981
SWIDTH 575 0
DWIDTH 10 0
BBX 9 17 1 -4
BITMAP
0C00
0800
0800
0800
3E00
7F00
8900
8880
8880
8880
8900
FF00
7E00
1800
1800
1800
1000
ENDCHAR
STARTCHAR uni03D6
ENCODING 982
SWIDTH 821 0
DWIDTH 15 0
BBX 15 9 0 0
BITMAP
7FFE
FFFE
9008
1188
2188
2108
1118
1EF0
0EF0
ENDCHAR
STARTCHAR uni03D8
ENCODING 984
SWIDTH 627 0
DWIDTH 11 0
BBX 10 12 1 0
BITMAP
3E00
7F80
C180
C0C0
C0C0
C0C0
C080
4180
3E00
0800
0800
3E00
ENDCHAR
STARTCHAR uni03D9
ENCODING 985
SWIDTH 475 0
DWIDTH 9 0
BBX 7 13 1 -4
BITMAP
38
7C
86
82
82
82
82
EC
78
10
30
30
30
ENDCHAR
STARTCHAR uni03DA
ENCODING 986
SWIDTH 578 0
DWIDTH 10 0
BBX 9 12 1 0
BITMAP
3F80
7F80
C180
C080
8000
C000
C000
7C00
3C00
0400
0400
1F00
ENDCHAR
STARTCHAR uni03DB
ENCODING 987
SWIDTH 490 0
DWIDTH 9 0
BBX 8 13 1 -4
BITMAP
3F
7F
80
80
80
80
C0
70
38
04
04
78
30
ENDCHAR
STARTCHAR uni03DC
ENCODING 988
SWIDTH 588 0
DWIDTH 11 0
BBX 9 12 1 0
BITMAP
FF80
6080
6080
6100
6100
7F00
6100
6000
6000
6000
6000
F800
ENDCHAR
STARTCHAR uni03DD
ENCODING 989
SWIDTH 386 0
DWIDTH 7 0
BBX 9 14 -2 -5
BITMAP
1F80
1F80
1800
0800
0800
0F00
0A00
1000
1000
1000
1000
1000
E000
4000
ENDCHAR
STARTCHAR uni03DE
ENCODING 990
SWIDTH 525 0
DWIDTH 9 0
BBX 9 12 0 0
BITMAP
3C00
1800
1000
2000
4000
7F80
FF00
0100
0200
0200
0400
1E00
ENDCHAR
STARTCHAR uni03DF
ENCODING 991
SWIDTH 434 0
DWIDTH 8 0
BBX 9 12 -1 0
BITMAP
6000
F000
1000
1000
1100
2E00
3E00
2200
0200
0400
0780
0300
ENDCHAR
STARTCHAR uni03E0
ENCODING 992
SWIDTH 697 0
DWIDTH 13 0
BBX 13 12 0 0
BITMAP
0C00
0600
0600
0700
0700
0980
1180
12C0
26C0
2460
4860
D8F8
ENDCHAR
STARTCHAR uni03E1
ENCODING 993
SWIDTH 458 0
DWIDTH 8 0
BBX 8 17 0 -5
BITMAP
C0
E0
70
18
0C
0C
76
62
02
0E
3A
02
03
02
02
02
02
ENDCHAR
STARTCHAR uni03F0
ENCODING 1008
SWIDTH 504 0
DWIDTH 9 0
BBX 9 9 0 0
BITMAP
6180
E300
2200
1600
2C00
1C00
3400
3280
6380
ENDCHAR
STARTCHAR uni03F1
ENCODING 1009
SWIDTH 467 0
DWIDTH 8 0
BBX 7 13 1 -4
BITMAP
3C
7C
82
82
82
C6
FC
90
60
30
08
78
30
ENDCHAR
STARTCHAR uni03F4
ENCODING 1012
SWIDTH 737 0
DWIDTH 13 0
BBX 11 12 1 0
BITMAP
1F00
3FC0
60E0
C060
C060
FFE0
C060
C060
C060
60C0
3FC0
1F00
ENDCHAR
STARTCHAR uni03F5
ENCODING 1013
SWIDTH 380 0
DWIDTH 7 0
BBX 5 9 1 0
BITMAP
78
F8
80
F0
F0
80
80
F8
78
ENDCHAR
STARTCHAR uni03F6
ENCODING 1014
SWIDTH 382 0
DWIDTH 7 0
BBX 6 9 0 0
BITMAP
F0
78
04
3C
3C
04
04
FC
78
ENDCHAR
STARTCHAR uni0400
ENCODING 1024
SWIDTH 626 0
DWIDTH 11 0
BBX 10 16 1 0
BITMAP
1800
0800
0600
0000
FF80
6080
6080
6100
6100
7F00
6100
6000
6040
6040
6080
FF80
ENDCHAR
STARTCHAR uni0401
ENCODING 1025
SWIDTH 626 0
DWIDTH 11 0
BBX 10 15 1 0
BITMAP
3300
3300
0000
FF80
6080
6080
6100
6100
7F00
6100
6000
6040
6040
6080
FF80
ENDCHAR
STARTCHAR uni0402
ENCODING 1026
SWIDTH 731 0
DWIDTH 13 0
BBX 13 12 0 0
BITMAP
7FE0
8420
8420
0400
0400
07E0
0430
0418
0418
0418
0590
1CE0
ENDCHAR
STARTCHAR uni0403
ENCODING 1027
SWIDTH 548 0
DWIDTH 10 0
BBX 9 16 1 0
BITMAP
0600
0C00
1000
0000
FF00
6100
6080
6080
6000
6000
6000
6000
6000
6000
6000
F800
ENDCHAR
STARTCHAR uni0404
ENCODING 1028
SWIDTH 668 0
DWIDTH 12 0
BBX 10 12 1 0
BITMAP
1FC0
20C0
4040
C040
C000
FF00
C000
C000
C000
6040
60C0
1F00
ENDCHAR
STARTCHAR uni0405
ENCODING 1029
SWIDTH 504 0
DWIDTH 9 0
BBX 7 12 1 0
BITMAP
7E
C6
82
C2
E0
78
1C
06
82
82
86
FC
ENDCHAR
STARTCHAR uni0406
ENCODING 1030
SWIDTH 357 0
DWIDTH 6 0
BBX 5 12 1 0
BITMAP
F8
60
60
60
60
60
60
60
60
60
60
F8
ENDCHAR
STARTCHAR uni0407
ENCODING 1031
SWIDTH 357 0
DWIDTH 6 0
BBX 6 15 0 0
BITMAP
CC
CC
00
7C
30
30
30
30
30
30
30
30
30
30
7C
ENDCHAR
STARTCHAR uni0408
ENCODING 1032
SWIDTH 396 0
DWIDTH 7 0
BBX 7 12 0 0
BITMAP
3E
18
18
18
18
18
18
18
18
18
D8
F0
ENDCHAR
STARTCHAR uni0409
ENCODING 1033
SWIDTH 924 0
DWIDTH 17 0
BBX 16 12 0 0
BITMAP
3FF0
08C0
08C0
08C0
08C0
08FC
08C6
10C3
10C3
10C3
E0C2
E1FC
ENDCHAR
STARTCHAR uni040A
ENCODING 1034
SWIDTH 1013 0
DWIDTH 18 0
BBX 17 12 1 0
BITMAP
F9F000
604000
604000
604000
604000
7FFE00
604300
604180
604180
604180
604300
F9FE00
ENDCHAR
STARTCHAR uni040B
ENCODING 1035
SWIDTH 761 0
DWIDTH 14 0
BBX 13 12 0 0
BITMAP
7FE0
8420
8420
0400
0400
07E0
0430
0430
0430
0430
0430
1F78
ENDCHAR
STARTCHAR uni040C
ENCODING 1036
SWIDTH 658 0
DWIDTH 12 0
BBX 11 16 1 0
BITMAP
0300
0600
0800
0000
F8C0
61E0
6100
6200
6200
7C00
6600
6300
6300
6180
6180
F8E0
ENDCHAR
STARTCHAR uni040D
ENCODING 1037
SWIDTH 780 0
DWIDTH 14 0
BBX 12 16 1 0
BITMAP
1800
0800
0600
0000
F9F0
6060
6060
60E0
6160
6260
6460
6860
7060
7060
6060
F9F0
ENDCHAR
STARTCHAR uni040E
ENCODING 1038
SWIDTH 625 0
DWIDTH 11 0
BBX 12 17 0 0
BITMAP
0900
1980
1880
0F00
0000
F8F0
6040
3040
1080
1880
0900
0D00
0600
0600
0400
7C00
3800
ENDCHAR
STARTCHAR uni040F
ENCODING 1039
SWIDTH 759 0
DWIDTH 14 0
BBX 12 16 1 -4
BITMAP
F9F0
6040
6040
6040
6040
6040
6040
6040
6040
6040
6040
FFF0
0400
0600
0600
0600
ENDCHAR
STARTCHAR uni0410
ENCODING 1040
SWIDTH 718 0
DWIDTH 13 0
BBX 13 12 0 0
BITMAP
0200
0600
0700
0900
0980
0980
10C0
1FC0
2040
2060
6060
F0F8
ENDCHAR
STARTCHAR uni0411
ENCODING 1041
SWIDTH 617 0
DWIDTH 11 0
BBX 9 12 1 0
BITMAP
FF80
6080
6080
6000
6000
7E00
6180
6180
6080
6180
6180
FE00
ENDCHAR
STARTCHAR uni0412
ENCODING 1042
SWIDTH 618 0
DWIDTH 11 0
BBX 10 12 1 0
BITMAP
FF00
6180
6180
6180
6100
7E00
6100
6180
60C0
6080
6180
FF00
ENDCHAR
STARTCHAR uni0413
ENCODING 1043
SWIDTH 548 0
DWIDTH 10 0
BBX 9 12 1 0
BITMAP
FF00
6100
6080
6080
6000
6000
6000
6000
6000
6000
6000
F800
ENDCHAR
STARTCHAR uni0414
ENCODING 1044
SWIDTH 663 0
DWIDTH 12 0
BBX 11 15 0 -3
BITMAP
3FE0
08C0
08C0
10C0
10C0
10C0
10C0
10C0
20C0
20C0
60C0
FFE0
8020
8020
8020
ENDCHAR
STARTCHAR uni0415
ENCODING 1045
SWIDTH 626 0
DWIDTH 11 0
BBX 10 12 1 0
BITMAP
FF80
6080
6080
6100
6100
7F00
6100
6000
6040
6040
6080
FF80
ENDCHAR
STARTCHAR uni0416
ENCODING 1046
SWIDTH 937 0
DWIDTH 17 0
BBX 17 12 0 0
BITMAP
63E300
F08780
108400
088800
088800
07F000
0C9800
188800
188C00
308600
308600
E3E380
ENDCHAR
STARTCHAR uni0417
ENCODING 1047
SWIDTH 545 0
DWIDTH 10 0
BBX 8 12 1 0
BITMAP
FC
C6
83
83
06
38
06
03
03
83
83
7C
ENDCHAR
STARTCHAR uni0418
ENCODING 1048
SWIDTH 780 0
DWIDTH 14 0
BBX 12 12 1 0
BITMAP
F9F0
6060
6060
60E0
6160
6260
6460
6860
7060
7060
6060
F9F0
ENDCHAR
STARTCHAR uni0419
ENCODING 1049
SWIDTH 780 0
DWIDTH 14 0
BBX 12 16 1 0
BITMAP
1980
1080
0F00
0000
F9F0
6060
6060
60E0
6160
6260
6460
6860
7060
7060
6060
F9F0
ENDCHAR
STARTCHAR uni041A
ENCODING 1050
SWIDTH 658 0
DWIDTH 12 0
BBX 11 12 1 0
BITMAP
F8C0
61E0
6100
6200
6200
7C00
6600
6300
6300
6180
6180
F8E0
ENDCHAR
STARTCHAR uni041B
ENCODING 1051
SWIDTH 684 0
DWIDTH 12 0
BBX 12 12 0 0
BITMAP
3FF0
08C0
08C0
08C0
08C0
08C0
08C0
10C0
10C0
10C0
E0C0
E3F0
ENDCHAR
STARTCHAR uni041C
ENCODING 1052
SWIDTH 895 0
DWIDTH 16 0
BBX 15 12 0 0
BITMAP
700E
381C
381C
2C2C
2C2C
262C
264C
264C
238C
238C
210C
F91E
ENDCHAR
STARTCHAR uni041D
ENCODING 1053
SWIDTH 777 0
DWIDTH 14 0
BBX 12 12 1 0
BITMAP
F9F0
6060
6060
6060
6060
7FE0
6060
6060
6060
6060
6060
F9F0
ENDCHAR
STARTCHAR uni041E
ENCODING 1054
SWIDTH 738 0
DWIDTH 13 0
BBX 11 12 1 0
BITMAP
1F00
20C0
6060
C060
C060
C060
C060
C060
C060
6040
20C0
1F00
ENDCHAR
STARTCHAR uni041F
ENCODING 1055
SWIDTH 759 0
DWIDTH 14 0
BBX 12 12 1 0
BITMAP
FFF0
6040
6040
6040
6040
6040
6040
6040
6040
6040
6040
F9F0
ENDCHAR
STARTCHAR uni0420
ENCODING 1056
SWIDTH 569 0
DWIDTH 10 0
BBX 9 12 1 0
BITMAP
FE00
6300
6180
6180
6180
6300
7C00
6000
6000
6000
6000
F800
ENDCHAR
STARTCHAR uni0421
ENCODING 1057
SWIDTH 670 0
DWIDTH 12 0
BBX 10 12 1 0
BITMAP
1FC0
20C0
6040
C040
C000
C000
C000
C000
C000
6040
3040
1F80
ENDCHAR
STARTCHAR uni0422
ENCODING 1058
SWIDTH 603 0
DWIDTH 11 0
BBX 11 12 0 0
BITMAP
FFC0
8440
8420
0400
0400
0400
0400
0400
0400
0400
0400
1F00
ENDCHAR
STARTCHAR uni0423
ENCODING 1059
SWIDTH 625 0
DWIDTH 11 0
BBX 12 12 0 0
BITMAP
F8F0
6040
3040
1080
1880
0900
0D00
0600
0600
0400
7C00
3800
ENDCHAR
STARTCHAR uni0424
ENCODING 1060
SWIDTH 725 0
DWIDTH 13 0
BBX 11 12 1 0
BITMAP
1F00
0400
3F80
C460
C460
8420
8420
C460
4440
3F80
0400
1F00
ENDCHAR
STARTCHAR uni0425
ENCODING 1061
SWIDTH 664 0
DWIDTH 12 0
BBX 12 12 0 0
BITMAP
F8F0
3040
1880
1900
0D00
0600
0600
0B00
1180
31C0
20C0
F1F0
ENDCHAR
STARTCHAR uni0426
ENCODING 1062
SWIDTH 756 0
DWIDTH 14 0
BBX 12 15 1 -3
BITMAP
F9F0
60C0
6040
6040
6040
6040
6040
6040
6040
6040
6040
FFF0
0030
0010
0010
ENDCHAR
STARTCHAR uni0427
ENCODING 1063
SWIDTH 650 0
DWIDTH 12 0
BBX 11 12 0 0
BITMAP
FBE0
6080
2080
2080
2080
3080
1F80
0080
0080
0080
0080
03E0
ENDCHAR
STARTCHAR uni0428
ENCODING 1064
SWIDTH 1053 0
DWIDTH 19 0
BBX 17 12 1 0
BITMAP
FBEF80
608300
608300
608300
608300
608300
608300
608300
608300
608300
608300
FFFF80
ENDCHAR
STARTCHAR uni0429
ENCODING 1065
SWIDTH 1044 0
DWIDTH 19 0
BBX 17 15 1 -3
BITMAP
FBEF80
618200
608200
608200
608200
608200
608200
608200
608200
608200
608200
FFFF80
000080
000080
000080
ENDCHAR
STARTCHAR uni042A
ENCODING 1066
SWIDTH 723 0
DWIDTH 13 0
BBX 12 12 0 0
BITMAP
FF00
8400
8400
0400
0400
07E0
0430
0430
0410
0410
0430
1FE0
ENDCHAR
STARTCHAR uni042B
ENCODING 1067
SWIDTH 887 0
DWIDTH 16 0
BBX 14 12 1 0
BITMAP
F87C
6018
6018
6018
6018
7E18
6318
6198
6198
6198
6118
FE7C
ENDCHAR
STARTCHAR uni042C
ENCODING 1068
SWIDTH 606 0
DWIDTH 11 0
BBX 9 12 1 0
BITMAP
F800
6000
6000
6000
6000
7E00
6180
6180
6080
6180
6180
FE00
ENDCHAR
STARTCHAR uni042D
ENCODING 1069
SWIDTH 667 0
DWIDTH 12 0
BBX 10 12 1 0
BITMAP
FE00
C180
8080
80C0
00C0
3FC0
00C0
00C0
00C0
8180
C100
3E00
ENDCHAR
STARTCHAR uni042E
ENCODING 1070
SWIDTH 1042 0
DWIDTH 19 0
BBX 17 12 1 0
BITMAP
F87C00
618600
610300
630180
630180
7F0180
630180
630180
630100
610300
618200
F87C00
ENDCHAR
STARTCHAR uni042F
ENCODING 1071
SWIDTH 654 0
DWIDTH 12 0
BBX 11 12 0 0
BITMAP
0FE0
3080
3080
3080
3080
1880
0F80
0880
1880
3080
3080
E3E0
ENDCHAR
STARTCHAR uni0430
ENCODING 1072
SWIDTH 480 0
DWIDTH 9 0
BBX 8 9 1 0
BITMAP
78
CC
CC
0C
3C
CC
8C
8C
F7
ENDCHAR
STARTCHAR uni0431
ENCODING 1073
SWIDTH 520 0
DWIDTH 9 0
BBX 8 14 1 0
BITMAP
01
06
3C
60
C0
BC
C6
C2
83
83
C3
C2
46
3C
ENDCHAR
STARTCHAR uni0432
ENCODING 1074
SWIDTH 505 0
DWIDTH 9 0
BBX 7 9 1 0
BITMAP
FC
46
42
46
7C
46
42
42
FC
ENDCHAR
STARTCHAR uni0433
ENCODING 1075
SWIDTH 429 0
DWIDTH 8 0
BBX 6 9 1 0
BITMAP
FC
44
44
40
40
40
40
40
F0
ENDCHAR
STARTCHAR uni0434
ENCODING 1076
SWIDTH 530 0
DWIDTH 10 0
BBX 9 12 0 -3
BITMAP
3F80
1300
1300
1300
1300
2300
2300
4300
FF80
8080
8080
8080
ENDCHAR
STARTCHAR uni0435
ENCODING 1077
SWIDTH 464 0
DWIDTH 8 0
BBX 7 9 1 0
BITMAP
78
C4
86
FE
80
80
C2
E4
38
ENDCHAR
STARTCHAR uni0436
ENCODING 1078
SWIDTH 754 0
DWIDTH 14 0
BBX 14 9 0 0
BITMAP
E798
6328
1320
1340
0FC0
1360
3320
2330
E79C
ENDCHAR
STARTCHAR uni0437
ENCODING 1079
SWIDTH 435 0
DWIDTH 8 0
BBX 7 9 0 0
BITMAP
7C
46
46
04
1C
06
06
86
7C
ENDCHAR
STARTCHAR uni0438
ENCODING 1080
SWIDTH 609 0
DWIDTH 11 0
BBX 9 9 1 0
BITMAP
F780
4100
4300
4500
4900
5100
6100
4100
F780
ENDCHAR
STARTCHAR uni0439
ENCODING 1081
SWIDTH 609 0
DWIDTH 11 0
BBX 9 13 1 0
BITMAP
2200
6300
3C00
0000
F780
4100
4300
4500
4900
5100
6100
4100
F780
ENDCHAR
STARTCHAR uni043A
ENCODING 1082
SWIDTH 521 0
DWIDTH 9 0
BBX 9 9 1 0
BITMAP
F300
4500
4400
4800
7800
4C00
4C00
4600
F380
ENDCHAR
STARTCHAR uni043B
ENCODING 1083
SWIDTH 553 0
DWIDTH 10 0
BBX 9 9 0 0
BITMAP
3F80
1100
1100
1100
1100
1100
1100
E100
C780
ENDCHAR
STARTCHAR uni043C
ENCODING 1084
SWIDTH 697 0
DWIDTH 13 0
BBX 12 9 0 0
BITMAP
F070
30E0
38E0
3960
2960
2D60
2660
2660
F4F0
ENDCHAR
STARTCHAR uni043D
ENCODING 1085
SWIDTH 605 0
DWIDTH 11 0
BBX 9 9 1 0
BITMAP
F780
4100
4100
4100
7F00
4100
4100
4100
F780
ENDCHAR
STARTCHAR uni043E
ENCODING 1086
SWIDTH 514 0
DWIDTH 9 0
BBX 8 9 1 0
BITMAP
3C
C6
82
83
83
83
C2
C6
3C
ENDCHAR
STARTCHAR uni043F
ENCODING 1087
SWIDTH 591 0
DWIDTH 11 0
BBX 9 9 1 0
BITMAP
FF80
4300
4300
4300
4300
4300
4300
4300
F780
ENDCHAR
STARTCHAR uni0440
ENCODING 1088
SWIDTH 537 0
DWIDTH 10 0
BBX 9 13 0 -4
BITMAP
EF00
3100
2180
2180
2180
2180
2180
3100
3E00
2000
2000
2000
F800
ENDCHAR
STARTCHAR uni0441
ENCODING 1089
SWIDTH 446 0
DWIDTH 8 0
BBX 7 9 1 0
BITMAP
3C
CC
84
80
80
80
C2
C4
78
ENDCHAR
STARTCHAR uni0442
ENCODING 1090
SWIDTH 456 0
DWIDTH 8 0
BBX 8 9 0 0
BITMAP
FF
99
99
18
18
18
18
18
3C
ENDCHAR
STARTCHAR uni0443
ENCODING 1091
SWIDTH 483 0
DWIDTH 9 0
BBX 9 13 0 -4
BITMAP
F380
6100
6200
3200
3200
1400
1C00
0800
0800
0800
1000
D000
E000
ENDCHAR
STARTCHAR uni0444
ENCODING 1092
SWIDTH 710 0
DWIDTH 13 0
BBX 11 17 1 -4
BITMAP
1C00
0400
0400
0400
75C0
CE40
8460
8460
8460
8460
8460
CC40
77C0
0400
0400
0400
1F00
ENDCHAR
STARTCHAR uni0445
ENCODING 1093
SWIDTH 479 0
DWIDTH 9 0
BBX 9 9 0 0
BITMAP
F700
2200
3400
1800
0800
1C00
2600
4200
E780
ENDCHAR
STARTCHAR uni0446
ENCODING 1094
SWIDTH 590 0
DWIDTH 11 0
BBX 9 12 1 -3
BITMAP
F780
4300
4300
4300
4300
4300
4300
4300
FF80
0080
0080
0080
ENDCHAR
STARTCHAR uni0447
ENCODING 1095
SWIDTH 535 0
DWIDTH 10 0
BBX 9 9 0 0
BITMAP
F780
6300
6300
6300
6300
3F00
0300
0300
0780
ENDCHAR
STARTCHAR uni0448
ENCODING 1096
SWIDTH 812 0
DWIDTH 15 0
BBX 13 9 1 0
BITMAP
EF78
4230
4230
4230
4230
4230
4230
4230
FFF8
ENDCHAR
STARTCHAR uni0449
ENCODING 1097
SWIDTH 814 0
DWIDTH 15 0
BBX 13 12 1 -3
BITMAP
EF78
4230
4230
4230
4230
4230
4230
4230
FFF8
0008
0008
0008
ENDCHAR
STARTCHAR uni044A
ENCODING 1098
SWIDTH 568 0
DWIDTH 10 0
BBX 10 9 0 0
BITMAP
FC00
9800
9800
1800
1F00
18C0
18C0
18C0
3F80
ENDCHAR
STARTCHAR uni044B
ENCODING 1099
SWIDTH 728 0
DWIDTH 13 0
BBX 12 9 1 0
BITMAP
F0F0
4040
4040
4040
7C40
4640
4640
4640
FCF0
ENDCHAR
STARTCHAR uni044C
ENCODING 1100
SWIDTH 489 0
DWIDTH 9 0
BBX 7 9 1 0
BITMAP
F0
40
40
40
7C
46
42
46
FC
ENDCHAR
STARTCHAR uni044D
ENCODING 1101
SWIDTH 467 0
DWIDTH 8 0
BBX 7 9 1 0
BITMAP
F8
84
86
06
3E
06
04
8C
78
ENDCHAR
STARTCHAR uni044E
ENCODING 1102
SWIDTH 774 0
DWIDTH 14 0
BBX 12 9 1 0
BITMAP
F3C0
4630
4430
4410
7C10
4410
4430
4620
F3C0
ENDCHAR
STARTCHAR uni044F
ENCODING 1103
SWIDTH 518 0
DWIDTH 9 0
BBX 9 9 0 0
BITMAP
3F80
6200
6200
6200
1E00
1200
3200
2300
E780
ENDCHAR
STARTCHAR uni0450
ENCODING 1104
SWIDTH 464 0
DWIDTH 8 0
BBX 7 13 1 0
BITMAP
60
30
10
00
78
C4
86
FE
80
80
C2
E4
38
ENDCHAR
STARTCHAR uni0451
ENCODING 1105
SWIDTH 464 0
DWIDTH 8 0
BBX 7 12 1 0
BITMAP
CC
4C
00
78
C4
86
FE
80
80
C2
E4
38
ENDCHAR
STARTCHAR uni0452
ENCODING 1106
SWIDTH 563 0
DWIDTH 10 0
BBX 9 18 0 -4
BITMAP
1000
E000
2000
FC00
2000
2F00
3100
2180
2180
2180
2180
2180
2180
7980
0100
0100
1900
1E00
ENDCHAR
STARTCHAR uni0453
ENCODING 1107
SWIDTH 429 0
DWIDTH 8 0
BBX 6 13 1 0
BITMAP
18
10
20
00
FC
44
44
40
40
40
40
40
F0
ENDCHAR
STARTCHAR uni0454
ENCODING 1108
SWIDTH 460 0
DWIDTH 8 0
BBX 7 9 1 0
BITMAP
3C
C6
86
80
F8
80
80
C2
7C
ENDCHAR
STARTCHAR uni0455
ENCODING 1109
SWIDTH 394 0
DWIDTH 7 0
BBX 6 9 1 0
BITMAP
78
88
88
C0
70
18
8C
88
F8
ENDCHAR
STARTCHAR uni0456
ENCODING 1110
SWIDTH 285 0
DWIDTH 5 0
BBX 4 12 1 0
BITMAP
60
60
00
C0
40
40
40
40
40
40
40
F0
ENDCHAR
STARTCHAR uni0457
ENCODING 1111
SWIDTH 285 0
DWIDTH 5 0
BBX 6 12 -1 0
BITMAP
4C
EC
00
30
10
10
10
10
10
10
10
3C
ENDCHAR
STARTCHAR uni0458
ENCODING 1112
SWIDTH 263 0
DWIDTH 5 0
BBX 6 16 -2 -4
BITMAP
08
1C
00
38
08
08
08
08
08
08
08
08
08
08
C8
70
ENDCHAR
STARTCHAR uni0459
ENCODING 1113
SWIDTH 742 0
DWIDTH 13 0
BBX 13 9 0 0
BITMAP
3F80
1300
1300
1300
13F0
1318
1318
A318
C7F0
ENDCHAR
STARTCHAR uni045A
ENCODING 1114
SWIDTH 790 0
DWIDTH 14 0
BBX 13 9 1 0
BITMAP
F780
4300
4300
4300
7FF0
4318
4318
4318
F7F0
ENDCHAR
STARTCHAR uni045B
ENCODING 1115
SWIDTH 579 0
DWIDTH 10 0
BBX 10 13 0 0
BITMAP
E000
2000
FC00
2000
2F00
3100
2180
2180
2180
2180
2180
2180
7BC0
ENDCHAR
STARTCHAR uni045C
ENCODING 1116
SWIDTH 521 0
DWIDTH 9 0
BBX 9 13 1 0
BITMAP
0C00
1800
1000
0000
F300
4500
4400
4800
7800
4C00
4C00
4600
F380
ENDCHAR
STARTCHAR uni045D
ENCODING 1117
SWIDTH 609 0
DWIDTH 11 0
BBX 9 13 1 0
BITMAP
3000
1800
0800
0000
F780
4100
4300
4500
4900
5100
6100
4100
F780
ENDCHAR
STARTCHAR uni045E
ENCODING 1118
SWIDTH 483 0
DWIDTH 9 0
BBX 9 17 0 -4
BITMAP
3300
2300
1E00
0000
F380
6100
6200
2200
3200
1400
1C00
0C00
0800
0800
1000
D000
E000
ENDCHAR
STARTCHAR uni045F
ENCODING 1119
SWIDTH 587 0
DWIDTH 11 0
BBX 9 12 1 -3
BITMAP
F780
4300
4300
4300
4300
4300
4300
4300
FF80
0800
0800
1800
ENDCHAR
STARTCHAR uni0462
ENCODING 1122
SWIDTH 727 0
DWIDTH 13 0
BBX 12 14 0 0
BITMAP
1F00
0C00
0C00
FFE0
8C20
8C10
0C00
0FC0
0C30
0C30
0C30
0C30
0C30
1FC0
ENDCHAR
STARTCHAR uni0463
ENCODING 1123
SWIDTH 561 0
DWIDTH 10 0
BBX 10 13 0 0
BITMAP
3800
1800
1800
1800
FF00
9900
9900
1800
1F00
18C0
18C0
1880
3F00
ENDCHAR
STARTCHAR uni046A
ENCODING 1130
SWIDTH 881 0
DWIDTH 16 0
BBX 16 12 0 0
BITMAP
1FF8
0C10
0C20
0620
0340
0380
07E0
19B0
1998
318C
318C
E3C7
ENDCHAR
STARTCHAR uni046B
ENCODING 1131
SWIDTH 667 0
DWIDTH 12 0
BBX 12 9 0 0
BITMAP
3FC0
1880
1900
0D00
0F00
1680
36C0
6660
EF70
ENDCHAR
STARTCHAR uni0472
ENCODING 1138
SWIDTH 737 0
DWIDTH 13 0
BBX 11 12 1 0
BITMAP
1F00
20C0
6060
C060
DC60
EE60
C7A0
C060
C060
6040
20C0
1F00
ENDCHAR
STARTCHAR uni0473
ENCODING 1139
SWIDTH 514 0
DWIDTH 9 0
BBX 8 9 1 0
BITMAP
3C
46
82
F3
9F
83
C2
C6
3C
ENDCHAR
STARTCHAR uni0474
ENCODING 1140
SWIDTH 705 0
DWIDTH 13 0
BBX 13 12 0 0
BITMAP
F838
6038
3040
3040
1880
1880
1880
0D00
0D00
0500
0600
0200
ENDCHAR
STARTCHAR uni0475
ENCODING 1141
SWIDTH 520 0
DWIDTH 9 0
BBX 10 9 0 0
BITMAP
F1C0
61C0
6200
2200
3200
1400
1400
1800
0800
ENDCHAR
STARTCHAR uni0490
ENCODING 1168
SWIDTH 525 0
DWIDTH 9 0
BBX 8 15 1 0
BITMAP
01
01
01
FF
60
60
60
60
60
60
60
60
60
60
F8
ENDCHAR
STARTCHAR uni0491
ENCODING 1169
SWIDTH 404 0
DWIDTH 7 0
BBX 6 12 1 0
BITMAP
04
04
04
FC
40
40
40
40
40
40
40
F0
ENDCHAR
STARTCHAR uni1D00
ENCODING 7424
SWIDTH 511 0
DWIDTH 9 0
BBX 9 9 0 0
BITMAP
0800
1C00
1C00
2600
2600
3E00
4300
4300
E780
ENDCHAR
STARTCHAR uni1D07
ENCODING 7431
SWIDTH 495 0
DWIDTH 9 0
BBX 7 9 1 0
BITMAP
FE
42
42
44
7C
44
42
42
FE
ENDCHAR
STARTCHAR uni1D1C
ENCODING 7452
SWIDTH 584 0
DWIDTH 11 0
BBX 10 9 0 0
BITMAP
F1C0
2080
2080
2080
2080
2080
2080
3080
1F00
ENDCHAR
STARTCHAR uni1D81
ENCODING 7553
SWIDTH 539 0
DWIDTH 10 0
BBX 8 17 1 -4
BITMAP
0E
06
06
06
3E
46
86
86
86
86
86
C6
7B
01
01
0D
07
ENDCHAR
STARTCHAR uni1D84
ENCODING 7556
SWIDTH 542 0
DWIDTH 10 0
BBX 10 17 0 -4
BITMAP
E000
2000
2000
2000
2780
2200
2400
2800
3800
2C00
2600
2300
7BC0
0040
0040
0240
0380
ENDCHAR
STARTCHAR uni1D85
ENCODING 7557
SWIDTH 283 0
DWIDTH 5 0
BBX 5 17 0 -4
BITMAP
E0
20
20
20
20
20
20
20
20
20
20
20
78
08
08
48
70
ENDCHAR
STARTCHAR uni1D8A
ENCODING 7562
SWIDTH 395 0
DWIDTH 7 0
BBX 6 13 1 -4
BITMAP
78
88
88
E0
70
18
8C
88
F8
08
08
68
30
ENDCHAR
STARTCHAR uni1D8D
ENCODING 7565
SWIDTH 479 0
DWIDTH 9 0
BBX 9 13 0 -4
BITMAP
F700
2200
3400
1800
0800
1C00
2600
4200
E780
0080
0080
0480
0700
ENDCHAR
STARTCHAR uni1D8E
ENCODING 7566
SWIDTH 458 0
DWIDTH 8 0
BBX 7 13 1 -4
BITMAP
FE
8C
98
18
30
20
62
C2
FC
02
02
14
1C
ENDCHAR
STARTCHAR uni1D98
ENCODING 7576
SWIDTH 368 0
DWIDTH 7 0
BBX 9 17 0 -4
BITMAP
0700
0980
0800
0800
0800
0800
0800
0800
0800
0800
0800
C800
F000
8000
8000
9000
7000
ENDCHAR
STARTCHAR uni1D9B
ENCODING 7579
SWIDTH 462 0
DWIDTH 8 0
BBX 8 7 0 5
BITMAP
FE
62
63
63
63
62
7C
ENDCHAR
STARTCHAR uni1DA3
ENCODING 7587
SWIDTH 488 0
DWIDTH 9 0
BBX 8 10 0 2
BITMAP
F7
62
62
62
62
26
3A
02
02
03
ENDCHAR
STARTCHAR uni1E00
ENCODING 7680
SWIDTH 718 0
DWIDTH 13 0
BBX 13 17 0 -5
BITMAP
0200
0600
0700
0900
0980
0980
10C0
1FC0
2040
2060
6060
F0F8
0000
0600
0900
0900
0600
ENDCHAR
STARTCHAR uni1E01
ENCODING 7681
SWIDTH 480 0
DWIDTH 9 0
BBX 8 14 1 -5
BITMAP
78
CC
CC
0C
3C
CC
8C
8C
F7
00
30
48
48
30
ENDCHAR
STARTCHAR uni1E02
ENCODING 7682
SWIDTH 618 0
DWIDTH 11 0
BBX 10 15 1 0
BITMAP
1800
1800
0000
FF00
6180
6180
6180
6100
7E00
6100
6180
60C0
6080
6180
FF00
ENDCHAR
STARTCHAR uni1E03
ENCODING 7683
SWIDTH 522 0
DWIDTH 9 0
BBX 9 16 0 0
BITMAP
0C00
0800
0000
E000
6000
6000
6000
6E00
7300
6180
6180
6180
6180
6100
6300
3E00
ENDCHAR
STARTCHAR uni1E04
ENCODING 7684
SWIDTH 618 0
DWIDTH 11 0
BBX 10 15 1 -3
BITMAP
FF00
6180
6180
6180
6100
7E00
6100
6180
60C0
6080
6180
FF00
0000
1800
1800
ENDCHAR
STARTCHAR uni1E05
ENCODING 7685
SWIDTH 522 0
DWIDTH 9 0
BBX 9 16 0 -3
BITMAP
E000
6000
6000
6000
6E00
7300
6180
6180
6180
6180
6100
6300
3E00
0000
0C00
0800
ENDCHAR
STARTCHAR uni1E06
ENCODING 7686
SWIDTH 618 0
DWIDTH 11 0
BBX 10 15 1 -3
BITMAP
FF00
6180
6180
6180
6100
7E00
6100
6180
60C0
6080
6180
FF00
0000
0000
3E00
ENDCHAR
STARTCHAR uni1E07
ENCODING 7687
SWIDTH 522 0
DWIDTH 9 0
BBX 9 16 0 -3
BITMAP
E000
6000
6000
6000
6E00
7300
6180
6180
6180
6180
6100
6300
3E00
0000
0000
3E00
ENDCHAR
STARTCHAR uni1E08
ENCODING 7688
SWIDTH 670 0
DWIDTH 12 0
BBX 10 20 1 -4
BITMAP
0300
0600
0C00
0000
1FC0
20C0
6040
C040
C000
C000
C000
C000
C000
6040
3040
1F80
0400
0E00
0200
0E00
ENDCHAR
STARTCHAR uni1E09
ENCODING 7689
SWIDTH 446 0
DWIDTH 8 0
BBX 7 17 1 -4
BITMAP
18
10
30
00
3C
4C
84
80
80
80
C2
C4
78
10
18
08
38
ENDCHAR
STARTCHAR uni1E0A
ENCODING 7690
SWIDTH 730 0
DWIDTH 13 0
BBX 11 15 1 0
BITMAP
0C00
0C00
0000
FF00
61C0
60C0
6060
6060
6060
6060
6060
6060
6040
60C0
FF00
ENDCHAR
STARTCHAR uni1E0B
ENCODING 7691
SWIDTH 539 0
DWIDTH 10 0
BBX 8 16 1 0
BITMAP
18
18
00
0E
06
06
06
3E
46
86
86
86
86
86
C6
7B
ENDCHAR
STARTCHAR uni1E0C
ENCODING 7692
SWIDTH 730 0
DWIDTH 13 0
BBX 11 15 1 -3
BITMAP
FF00
61C0
60C0
6060
6060
6060
6060
6060
6060
6040
60C0
FF00
0000
0C00
0C00
ENDCHAR
STARTCHAR uni1E0D
ENCODING 7693
SWIDTH 539 0
DWIDTH 10 0
BBX 8 16 1 -3
BITMAP
0E
06
06
06
3E
46
86
86
86
86
86
C6
7B
00
18
18
ENDCHAR
STARTCHAR uni1E0E
ENCODING 7694
SWIDTH 730 0
DWIDTH 13 0
BBX 11 15 1 -3
BITMAP
FF00
61C0
60C0
6060
6060
6060
6060
6060
6060
6040
60C0
FF00
0000
0000
3E00
ENDCHAR
STARTCHAR uni1E0F
ENCODING 7695
SWIDTH 539 0
DWIDTH 10 0
BBX 8 16 1 -3
BITMAP
0E
06
06
06
3E
46
86
86
86
86
86
C6
7B
00
00
7C
ENDCHAR
STARTCHAR uni1E10
ENCODING 7696
SWIDTH 730 0
DWIDTH 13 0
BBX 11 17 1 -5
BITMAP
FF00
61C0
60C0
6060
6060
6060
6060
6060
6060
6040
60C0
FF00
0000
0C00
0C00
0400
0800
ENDCHAR
STARTCHAR uni1E11
ENCODING 7697
SWIDTH 539 0
DWIDTH 10 0
BBX 8 18 1 -5
BITMAP
0E
06
06
06
3E
46
86
86
86
86
86
C6
7B
00
18
18
08
10
ENDCHAR
STARTCHAR uni1E12
ENCODING 7698
SWIDTH 730 0
DWIDTH 13 0
BBX 11 16 1 -4
BITMAP
FF00
61C0
60C0
6060
6060
6060
6060
6060
6060
6040
60C0
FF00
0000
0C00
1400
3200
ENDCHAR
STARTCHAR uni1E13
ENCODING 7699
SWIDTH 539 0
DWIDTH 10 0
BBX 8 17 1 -4
BITMAP
0E
06
06
06
3E
46
86
86
86
86
86
C6
7B
00
18
28
64
ENDCHAR
STARTCHAR uni1E14
ENCODING 7700
SWIDTH 626 0
DWIDTH 11 0
BBX 10 18 1 0
BITMAP
1800
0800
0600
0000
3E00
0000
FF80
6080
6080
6100
6100
7F00
6100
6000
6040
6040
6080
FF80
ENDCHAR
STARTCHAR uni1E15
ENCODING 7701
SWIDTH 464 0
DWIDTH 8 0
BBX 7 16 1 0
BITMAP
60
30
10
00
00
7C
00
78
C4
86
FE
80
80
C2
E4
38
ENDCHAR
STARTCHAR uni1E16
ENCODING 7702
SWIDTH 626 0
DWIDTH 11 0
BBX 10 18 1 0
BITMAP
0600
0C00
1800
0000
3E00
0000
FF80
6080
6080
6100
6100
7F00
6100
6000
6040
6040
6080
FF80
ENDCHAR
STARTCHAR uni1E17
ENCODING 7703
SWIDTH 464 0
DWIDTH 8 0
BBX 7 16 1 0
BITMAP
18
10
30
00
00
7C
00
78
C4
86
FE
80
80
C2
E4
38
ENDCHAR
STARTCHAR uni1E18
ENCODING 7704
SWIDTH 626 0
DWIDTH 11 0
BBX 10 16 1 -4
BITMAP
FF80
6080
6080
6100
6100
7F00
6100
6000
6040
6040
6080
FF80
0000
0C00
1400
2200
ENDCHAR
STARTCHAR uni1E19
ENCODING 7705
SWIDTH 464 0
DWIDTH 8 0
BBX 7 13 1 -4
BITMAP
78
C4
86
FE
80
80
C2
E4
38
00
30
28
44
ENDCHAR
STARTCHAR uni1E1A
ENCODING 7706
SWIDTH 626 0
DWIDTH 11 0
BBX 10 15 1 -3
BITMAP
FF80
6080
6080
6100
6100
7F00
6100
6000
6040
6040
6080
FF80
0000
1900
2600
ENDCHAR
STARTCHAR uni1E1B
ENCODING 7707
SWIDTH 464 0
DWIDTH 8 0
BBX 7 12 1 -3
BITMAP
78
C4
86
FE
80
80
C2
E4
38
00
74
98
ENDCHAR
STARTCHAR uni1E1C
ENCODING 7708
SWIDTH 626 0
DWIDTH 11 0
BBX 10 20 1 -4
BITMAP
2100
2200
1C00
0000
FF80
6080
6080
6100
6100
7F00
6100
6000
6040
6040
6080
FF80
0800
0C00
0200
1C00
ENDCHAR
STARTCHAR uni1E1D
ENCODING 7709
SWIDTH 464 0
DWIDTH 8 0
BBX 7 17 1 -4
BITMAP
44
44
38
00
78
C4
86
FE
80
80
C2
E4
38
20
38
08
38
ENDCHAR
STARTCHAR uni1E1E
ENCODING 7710
SWIDTH 588 0
DWIDTH 11 0
BBX 9 15 1 0
BITMAP
0C00
0C00
0000
FF80
6080
6080
6100
6100
7F00
6100
6000
6000
6000
6000
F800
ENDCHAR
STARTCHAR uni1E1F
ENCODING 7711
SWIDTH 307 0
DWIDTH 6 0
BBX 7 16 0 0
BITMAP
30
30
00
1E
26
20
20
FC
20
20
20
20
20
20
20
F8
ENDCHAR
STARTCHAR uni1E20
ENCODING 7712
SWIDTH 720 0
DWIDTH 13 0
BBX 11 14 1 0
BITMAP
1F00
0000
1FC0
20C0
6040
C040
C000
C000
C1E0
C0C0
C0C0
60C0
60C0
1F80
ENDCHAR
STARTCHAR uni1E21
ENCODING 7713
SWIDTH 484 0
DWIDTH 9 0
BBX 9 15 0 -4
BITMAP
3E00
0000
3F80
6600
6200
6200
6200
3C00
4000
4000
7F00
4100
4100
C100
7E00
ENDCHAR
STARTCHAR uni1E22
ENCODING 7714
SWIDTH 777 0
DWIDTH 14 0
BBX 12 15 1 0
BITMAP
0600
0600
0000
F9F0
6060
6060
6060
6060
7FE0
6060
6060
6060
6060
6060
F9F0
ENDCHAR
STARTCHAR uni1E23
ENCODING 7715
SWIDTH 577 0
DWIDTH 10 0
BBX 10 16 0 0
BITMAP
0C00
0C00
0000
E000
2000
2000
2000
2F00
3100
2180
2180
2180
2180
2180
2180
7BC0
ENDCHAR
STARTCHAR uni1E24
ENCODING 7716
SWIDTH 777 0
DWIDTH 14 0
BBX 12 15 1 -3
BITMAP
F9F0
6060
6060
6060
6060
7FE0
6060
6060
6060
6060
6060
F9F0
0000
0600
0600
ENDCHAR
STARTCHAR uni1E25
ENCODING 7717
SWIDTH 577 0
DWIDTH 10 0
BBX 10 16 0 -3
BITMAP
E000
2000
2000
2000
2F00
3100
2180
2180
2180
2180
2180
2180
7BC0
0000
0C00
0C00
ENDCHAR
STARTCHAR uni1E26
ENCODING 7718
SWIDTH 777 0
DWIDTH 14 0
BBX 12 15 1 0
BITMAP
1980
1980
0000
F9F0
6060
6060
6060
6060
7FE0
6060
6060
6060
6060
6060
F9F0
ENDCHAR
STARTCHAR uni1E27
ENCODING 7719
SWIDTH 577 0
DWIDTH 10 0
BBX 10 16 0 0
BITMAP
3300
3300
0000
E000
2000
2000
2000
2F00
3100
2180
2180
2180
2180
2180
2180
7BC0
ENDCHAR
STARTCHAR uni1E28
ENCODING 7720
SWIDTH 777 0
DWIDTH 14 0
BBX 12 16 1 -4
BITMAP
F9F0
6060
6060
6060
6060
7FE0
6060
6060
6060
6060
6060
F9F0
4000
7000
1000
6000
ENDCHAR
STARTCHAR uni1E29
ENCODING 7721
SWIDTH 577 0
DWIDTH 10 0
BBX 10 17 0 -4
BITMAP
E000
2000
2000
2000
2F00
3100
2180
2180
2180
2180
2180
2180
7BC0
2000
3000
1000
7000
ENDCHAR
STARTCHAR uni1E2A
ENCODING 7722
SWIDTH 777 0
DWIDTH 14 0
BBX 12 16 1 -4
BITMAP
F9F0
6060
6060
6060
6060
7FE0
6060
6060
6060
6060
6060
F9F0
0000
1080
0900
0600
ENDCHAR
STARTCHAR uni1E2B
ENCODING 7723
SWIDTH 577 0
DWIDTH 10 0
BBX 10 17 0 -4
BITMAP
E000
2000
2000
2000
2F00
3100
2180
2180
2180
2180
2180
2180
7BC0
0000
2100
1100
0E00
ENDCHAR
STARTCHAR uni1E2C
ENCODING 7724
SWIDTH 357 0
DWIDTH 6 0
BBX 6 15 0 -3
BITMAP
7C
30
30
30
30
30
30
30
30
30
30
7C
00
64
98
ENDCHAR
STARTCHAR uni1E2D
ENCODING 7725
SWIDTH 285 0
DWIDTH 5 0
BBX 5 15 0 -3
BITMAP
30
30
00
60
20
20
20
20
20
20
20
78
00
E8
B8
ENDCHAR
STARTCHAR uni1E2E
ENCODING 7726
SWIDTH 357 0
DWIDTH 6 0
BBX 6 19 0 0
BITMAP
18
10
20
40
CC
CC
00
7C
30
30
30
30
30
30
30
30
30
30
7C
ENDCHAR
STARTCHAR uni1E2F
ENCODING 7727
SWIDTH 285 0
DWIDTH 5 0
BBX 6 16 -1 0
BITMAP
18
10
20
00
4C
EC
00
30
10
10
10
10
10
10
10
3C
ENDCHAR
STARTCHAR uni1E30
ENCODING 7728
SWIDTH 702 0
DWIDTH 13 0
BBX 12 16 1 0
BITMAP
0200
0600
0800
0000
FBE0
6180
6100
6200
6400
6800
7800
6E00
6700
6380
61C0
FBF0
ENDCHAR
STARTCHAR uni1E31
ENCODING 7729
SWIDTH 542 0
DWIDTH 10 0
BBX 10 17 0 0
BITMAP
0600
0C00
1800
0000
E000
2000
2000
2000
2780
2200
2400
2800
3800
2C00
2600
2300
7BC0
ENDCHAR
STARTCHAR uni1E32
ENCODING 7730
SWIDTH 702 0
DWIDTH 13 0
BBX 12 15 1 -3
BITMAP
FBE0
6180
6100
6200
6400
6800
7800
6E00
6700
6380
61C0
FBF0
0000
0C00
0C00
ENDCHAR
STARTCHAR uni1E33
ENCODING 7731
SWIDTH 542 0
DWIDTH 10 0
BBX 10 16 0 -3
BITMAP
E000
2000
2000
2000
2780
2200
2400
2800
3800
2C00
2600
2300
7BC0
0000
0C00
0C00
ENDCHAR
STARTCHAR uni1E34
ENCODING 7732
SWIDTH 702 0
DWIDTH 13 0
BBX 12 15 1 -3
BITMAP
FBE0
6180
6100
6200
6400
6800
7800
6E00
6700
6380
61C0
FBF0
0000
0000
1F00
ENDCHAR
STARTCHAR uni1E35
ENCODING 7733
SWIDTH 542 0
DWIDTH 10 0
BBX 10 16 0 -3
BITMAP
E000
2000
2000
2000
2780
2200
2400
2800
3800
2C00
2600
2300
7BC0
0000
0000
3F00
ENDCHAR
STARTCHAR uni1E36
ENCODING 7734
SWIDTH 585 0
DWIDTH 11 0
BBX 9 15 1 -3
BITMAP
F800
6000
6000
6000
6000
6000
6000
6000
6080
6080
6080
FF80
0000
1800
1800
ENDCHAR
STARTCHAR uni1E37
ENCODING 7735
SWIDTH 283 0
DWIDTH 5 0
BBX 5 16 0 -3
BITMAP
E0
20
20
20
20
20
20
20
20
20
20
20
78
00
70
20
ENDCHAR
STARTCHAR uni1E38
ENCODING 7736
SWIDTH 585 0
DWIDTH 11 0
BBX 9 17 1 -3
BITMAP
F800
0000
F800
6000
6000
6000
6000
6000
6000
6000
6080
6080
6080
FF80
0000
1800
1800
ENDCHAR
STARTCHAR uni1E39
ENCODING 7737
SWIDTH 283 0
DWIDTH 5 0
BBX 5 18 0 -3
BITMAP
F8
00
E0
20
20
20
20
20
20
20
20
20
20
20
78
00
70
20
ENDCHAR
STARTCHAR uni1E3A
ENCODING 7738
SWIDTH 585 0
DWIDTH 11 0
BBX 9 15 1 -3
BITMAP
F800
6000
6000
6000
6000
6000
6000
6000
6080
6080
6080
FF80
0000
0000
3E00
ENDCHAR
STARTCHAR uni1E3B
ENCODING 7739
SWIDTH 283 0
DWIDTH 5 0
BBX 5 16 0 -3
BITMAP
E0
20
20
20
20
20
20
20
20
20
20
20
78
00
00
F8
ENDCHAR
STARTCHAR uni1E3C
ENCODING 7740
SWIDTH 585 0
DWIDTH 11 0
BBX 9 16 1 -4
BITMAP
F800
6000
6000
6000
6000
6000
6000
6000
6080
6080
6080
FF80
0000
1800
1400
2200
ENDCHAR
STARTCHAR uni1E3D
ENCODING 7741
SWIDTH 283 0
DWIDTH 5 0
BBX 5 17 0 -4
BITMAP
E0
20
20
20
20
20
20
20
20
20
20
20
78
00
20
50
88
ENDCHAR
STARTCHAR uni1E3E
ENCODING 7742
SWIDTH 895 0
DWIDTH 16 0
BBX 15 16 0 0
BITMAP
00C0
0180
0300
0000
700E
381C
381C
2C2C
2C2C
262C
264C
264C
238C
238C
210C
F91E
ENDCHAR
STARTCHAR uni1E3F
ENCODING 7743
SWIDTH 852 0
DWIDTH 15 0
BBX 14 13 1 0
BITMAP
0180
0300
0200
0000
DEF0
6310
4318
4318
4318
4318
4318
4318
F7BC
ENDCHAR
STARTCHAR uni1E40
ENCODING 7744
SWIDTH 895 0
DWIDTH 16 0
BBX 15 15 0 0
BITMAP
0180
0180
0000
700E
381C
381C
2C2C
2C2C
262C
264C
264C
238C
238C
210C
F91E
ENDCHAR
STARTCHAR uni1E41
ENCODING 7745
SWIDTH 852 0
DWIDTH 15 0
BBX 14 12 1 0
BITMAP
0300
0300
0000
DEF0
6310
4318
4318
4318
4318
4318
4318
F7BC
ENDCHAR
STARTCHAR uni1E42
ENCODING 7746
SWIDTH 895 0
DWIDTH 16 0
BBX 15 15 0 -3
BITMAP
700E
381C
381C
2C2C
2C2C
262C
264C
264C
238C
238C
210C
F91E
0000
0180
0180
ENDCHAR
STARTCHAR uni1E43
ENCODING 7747
SWIDTH 852 0
DWIDTH 15 0
BBX 14 12 1 -3
BITMAP
DEF0
6310
4318
4318
4318
4318
4318
4318
F7BC
0000
0300
0300
ENDCHAR
STARTCHAR uni1E44
ENCODING 7748
SWIDTH 742 0
DWIDTH 13 0
BBX 12 15 1 0
BITMAP
0600
0600
0000
E0F0
7040
7040
5840
4C40
4E40
4740
4340
41C0
40C0
40C0
F040
ENDCHAR
STARTCHAR uni1E45
ENCODING 7749
SWIDTH 576 0
DWIDTH 10 0
BBX 9 12 1 0
BITMAP
1800
0800
0000
DE00
6200
4300
4300
4300
4300
4300
4300
F780
ENDCHAR
STARTCHAR uni1E46
ENCODING 7750
SWIDTH 742 0
DWIDTH 13 0
BBX 12 15 1 -3
BITMAP
E0F0
7040
7040
5840
4C40
4E40
4740
4340
41C0
40C0
40C0
F040
0000
0C00
0400
ENDCHAR
STARTCHAR uni1E47
ENCODING 7751
SWIDTH 576 0
DWIDTH 10 0
BBX 9 12 1 -3
BITMAP
DE00
6200
4300
4300
4300
4300
4300
4300
F780
0000
1800
1800
ENDCHAR
STARTCHAR uni1E48
ENCODING 7752
SWIDTH 742 0
DWIDTH 13 0
BBX 12 15 1 -3
BITMAP
E0F0
7040
7040
5840
4C40
4E40
4740
4340
41C0
40C0
40C0
F040
0000
0000
1F00
ENDCHAR
STARTCHAR uni1E49
ENCODING 7753
SWIDTH 576 0
DWIDTH 10 0
BBX 9 12 1 -3
BITMAP
DE00
6200
4300
4300
4300
4300
4300
4300
F780
0000
0000
3E00
ENDCHAR
STARTCHAR uni1E4A
ENCODING 7754
SWIDTH 742 0
DWIDTH 13 0
BBX 12 16 1 -4
BITMAP
E0F0
7040
7040
5840
4C40
4E40
4740
4340
41C0
40C0
40C0
F040
0000
0400
0A00
1100
ENDCHAR
STARTCHAR uni1E4B
ENCODING 7755
SWIDTH 576 0
DWIDTH 10 0
BBX 9 13 1 -4
BITMAP
DE00
6200
4300
4300
4300
4300
4300
4300
F780
0000
1800
1400
2200
ENDCHAR
STARTCHAR uni1E4C
ENCODING 7756
SWIDTH 738 0
DWIDTH 13 0
BBX 11 18 1 0
BITMAP
0300
0600
0800
0C80
1300
0000
1F00
20C0
6060
C060
C060
C060
C060
C060
C060
6040
20C0
1F00
ENDCHAR
STARTCHAR uni1E4D
ENCODING 7757
SWIDTH 514 0
DWIDTH 9 0
BBX 8 16 1 0
BITMAP
0C
18
10
00
32
4C
00
3C
C6
82
83
83
83
C2
C6
3C
ENDCHAR
STARTCHAR uni1E4E
ENCODING 7758
SWIDTH 738 0
DWIDTH 13 0
BBX 11 17 1 0
BITMAP
1980
1980
0C80
1300
0000
1F00
20C0
6060
C060
C060
C060
C060
C060
C060
6040
20C0
1F00
ENDCHAR
STARTCHAR uni1E4F
ENCODING 7759
SWIDTH 514 0
DWIDTH 9 0
BBX 8 14 1 0
BITMAP
66
66
32
4C
00
3C
C6
82
83
83
83
C2
C6
3C
ENDCHAR
STARTCHAR uni1E50
ENCODING 7760
SWIDTH 738 0
DWIDTH 13 0
BBX 11 18 1 0
BITMAP
0C00
0C00
0200
0000
1F00
0000
1F00
20C0
6060
C060
C060
C060
C060
C060
C060
6040
20C0
1F00
ENDCHAR
STARTCHAR uni1E51
ENCODING 7761
SWIDTH 514 0
DWIDTH 9 0
BBX 8 16 1 0
BITMAP
30
10
18
00
00
7C
00
3C
C6
82
83
83
83
C2
C6
3C
ENDCHAR
STARTCHAR uni1E52
ENCODING 7762
SWIDTH 738 0
DWIDTH 13 0
BBX 11 18 1 0
BITMAP
0300
0600
0800
0000
1F00
0000
1F00
20C0
6060
C060
C060
C060
C060
C060
C060
6040
20C0
1F00
ENDCHAR
STARTCHAR uni1E53
ENCODING 7763
SWIDTH 514 0
DWIDTH 9 0
BBX 8 16 1 0
BITMAP
0C
18
10
00
00
7C
00
3C
C6
82
83
83
83
C2
C6
3C
ENDCHAR
STARTCHAR uni1E54
ENCODING 7764
SWIDTH 569 0
DWIDTH 10 0
BBX 9 16 1 0
BITMAP
0C00
0800
1000
0000
FE00
6300
6180
6180
6180
6300
7C00
6000
6000
6000
6000
F800
ENDCHAR
STARTCHAR uni1E55
ENCODING 7765
SWIDTH 537 0
DWIDTH 10 0
BBX 9 17 0 -4
BITMAP
0600
0400
0800
0000
EF00
3100
2180
2180
2180
2180
2180
3100
3E00
2000
2000
2000
F800
ENDCHAR
STARTCHAR uni1E56
ENCODING 7766
SWIDTH 569 0
DWIDTH 10 0
BBX 9 15 1 0
BITMAP
1800
1800
0000
FE00
6300
6180
6180
6180
6300
7C00
6000
6000
6000
6000
F800
ENDCHAR
STARTCHAR uni1E57
ENCODING 7767
SWIDTH 537 0
DWIDTH 10 0
BBX 9 16 0 -4
BITMAP
0C00
0C00
0000
EF00
3100
2180
2180
2180
2180
2180
3100
3E00
2000
2000
2000
F800
ENDCHAR
STARTCHAR uni1E58
ENCODING 7768
SWIDTH 659 0
DWIDTH 12 0
BBX 11 15 1 0
BITMAP
0C00
0800
0000
FE00
6300
6180
6180
6180
6300
7C00
6600
6300
6300
6180
F8E0
ENDCHAR
STARTCHAR uni1E59
ENCODING 7769
SWIDTH 380 0
DWIDTH 7 0
BBX 6 12 1 0
BITMAP
70
20
00
CC
5C
60
40
40
40
40
40
F0
ENDCHAR
STARTCHAR uni1E5A
ENCODING 7770
SWIDTH 659 0
DWIDTH 12 0
BBX 11 15 1 -3
BITMAP
FE00
6300
6180
6180
6180
6300
7C00
6600
6300
6300
6180
F8E0
0000
0C00
0C00
ENDCHAR
STARTCHAR uni1E5B
ENCODING 7771
SWIDTH 380 0
DWIDTH 7 0
BBX 6 12 1 -3
BITMAP
CC
5C
60
40
40
40
40
40
F0
00
60
60
ENDCHAR
STARTCHAR uni1E5C
ENCODING 7772
SWIDTH 659 0
DWIDTH 12 0
BBX 11 17 1 -3
BITMAP
3E00
0000
FE00
6300
6180
6180
6180
6300
7C00
6600
6300
6300
6180
F8E0
0000
0C00
0C00
ENDCHAR
STARTCHAR uni1E5D
ENCODING 7773
SWIDTH 380 0
DWIDTH 7 0
BBX 6 14 1 -3
BITMAP
F8
00
CC
5C
60
40
40
40
40
40
F0
00
60
60
ENDCHAR
STARTCHAR uni1E5E
ENCODING 7774
SWIDTH 659 0
DWIDTH 12 0
BBX 11 15 1 -3
BITMAP
FE00
6300
6180
6180
6180
6300
7C00
6600
6300
6300
6180
F8E0
0000
0000
3F00
ENDCHAR
STARTCHAR uni1E5F
ENCODING 7775
SWIDTH 380 0
DWIDTH 7 0
BBX 7 12 0 -3
BITMAP
66
2E
30
20
20
20
20
20
78
00
00
F8
ENDCHAR
STARTCHAR uni1E60
ENCODING 7776
SWIDTH 504 0
DWIDTH 9 0
BBX 7 15 1 0
BITMAP
18
10
00
7E
C6
82
C2
E0
78
1C
06
82
82
86
FC
ENDCHAR
STARTCHAR uni1E61
ENCODING 7777
SWIDTH 394 0
DWIDTH 7 0
BBX 6 12 1 0
BITMAP
30
20
00
78
88
88
C0
70
18
8C
88
F8
ENDCHAR
STARTCHAR uni1E62
ENCODING 7778
SWIDTH 504 0
DWIDTH 9 0
BBX 7 15 1 -3
BITMAP
7E
C6
82
C2
E0
78
1C
06
82
82
86
FC
00
30
10
ENDCHAR
STARTCHAR uni1E63
ENCODING 7779
SWIDTH 394 0
DWIDTH 7 0
BBX 6 12 1 -3
BITMAP
78
88
88
C0
70
18
8C
88
F8
00
70
20
ENDCHAR
STARTCHAR uni1E64
ENCODING 7780
SWIDTH 504 0
DWIDTH 9 0
BBX 7 16 1 0
BITMAP
24
6C
10
00
7E
C6
82
C2
E0
78
1C
06
82
82
86
FC
ENDCHAR
STARTCHAR uni1E65
ENCODING 7781
SWIDTH 394 0
DWIDTH 7 0
BBX 6 14 1 0
BITMAP
40
D8
10
20
00
78
88
88
C0
70
18
8C
88
F8
ENDCHAR
STARTCHAR uni1E66
ENCODING 7782
SWIDTH 504 0
DWIDTH 9 0
BBX 7 17 1 0
BITMAP
18
54
28
18
00
7E
C6
82
C2
E0
78
1C
06
82
82
86
FC
ENDCHAR
STARTCHAR uni1E67
ENCODING 7783
SWIDTH 394 0
DWIDTH 7 0
BBX 6 14 1 0
BITMAP
20
B8
50
20
00
78
88
88
C0
70
18
8C
88
F8
ENDCHAR
STARTCHAR uni1E68
ENCODING 7784
SWIDTH 504 0
DWIDTH 9 0
BBX 7 18 1 -3
BITMAP
18
10
00
7E
C6
82
C2
E0
78
1C
06
82
82
86
FC
00
30
10
ENDCHAR
STARTCHAR uni1E69
ENCODING 7785
SWIDTH 394 0
DWIDTH 7 0
BBX 6 15 1 -3
BITMAP
30
20
00
78
88
88
C0
70
18
8C
88
F8
00
70
20
ENDCHAR
STARTCHAR uni1E6A
ENCODING 7786
SWIDTH 603 0
DWIDTH 11 0
BBX 11 15 0 0
BITMAP
0C00
0400
0000
FFC0
8440
8420
0400
0400
0400
0400
0400
0400
0400
0400
1F00
ENDCHAR
STARTCHAR uni1E6B
ENCODING 7787
SWIDTH 315 0
DWIDTH 6 0
BBX 5 14 1 0
BITMAP
60
60
40
40
40
F0
40
40
40
40
40
40
48
70
ENDCHAR
STARTCHAR uni1E6C
ENCODING 7788
SWIDTH 603 0
DWIDTH 11 0
BBX 11 15 0 -3
BITMAP
FFC0
8440
8420
0400
0400
0400
0400
0400
0400
0400
0400
1F00
0000
0C00
0400
ENDCHAR
STARTCHAR uni1E6D
ENCODING 7789
SWIDTH 315 0
DWIDTH 6 0
BBX 5 15 1 -3
BITMAP
40
40
40
F0
40
40
40
40
40
40
48
70
00
60
60
ENDCHAR
STARTCHAR uni1E6E
ENCODING 7790
SWIDTH 603 0
DWIDTH 11 0
BBX 11 15 0 -3
BITMAP
FFC0
8440
8420
0400
0400
0400
0400
0400
0400
0400
0400
1F00
0000
0000
1F00
ENDCHAR
STARTCHAR uni1E6F
ENCODING 7791
SWIDTH 315 0
DWIDTH 6 0
BBX 5 15 1 -3
BITMAP
40
40
40
F0
40
40
40
40
40
40
48
70
00
00
F8
ENDCHAR
STARTCHAR uni1E70
ENCODING 7792
SWIDTH 603 0
DWIDTH 11 0
BBX 11 16 0 -4
BITMAP
FFC0
8440
8420
0400
0400
0400
0400
0400
0400
0400
0400
1F00
0000
0400
0A00
1100
ENDCHAR
STARTCHAR uni1E71
ENCODING 7793
SWIDTH 315 0
DWIDTH 6 0
BBX 5 16 1 -4
BITMAP
40
40
40
F0
40
40
40
40
40
40
48
70
00
60
50
88
ENDCHAR
STARTCHAR uni1E72
ENCODING 7794
SWIDTH 752 0
DWIDTH 14 0
BBX 13 15 0 -3
BITMAP
FC78
3030
3030
3030
3030
3030
3030
3030
3020
3020
1820
0FC0
0000
0CC0
0CC0
ENDCHAR
STARTCHAR uni1E73
ENCODING 7795
SWIDTH 570 0
DWIDTH 10 0
BBX 10 12 0 -3
BITMAP
E300
2100
2100
2100
2100
2100
2100
2300
3DC0
0000
3300
3300
ENDCHAR
STARTCHAR uni1E74
ENCODING 7796
SWIDTH 752 0
DWIDTH 14 0
BBX 13 15 0 -3
BITMAP
FC78
3030
3030
3030
3030
3030
3030
3030
3020
3020
1820
0FC0
0000
0640
0980
ENDCHAR
STARTCHAR uni1E75
ENCODING 7797
SWIDTH 570 0
DWIDTH 10 0
BBX 10 12 0 -3
BITMAP
E300
2100
2100
2100
2100
2100
2100
2300
3DC0
0000
1900
2600
ENDCHAR
STARTCHAR uni1E76
ENCODING 7798
SWIDTH 752 0
DWIDTH 14 0
BBX 13 16 0 -4
BITMAP
FC78
3030
3030
3030
3030
3030
3030
3030
3020
3020
1820
0FC0
0000
0300
0500
0C80
ENDCHAR
STARTCHAR uni1E77
ENCODING 7799
SWIDTH 570 0
DWIDTH 10 0
BBX 10 13 0 -4
BITMAP
E300
2100
2100
2100
2100
2100
2100
2300
3DC0
0000
0C00
1E00
3200
ENDCHAR
STARTCHAR uni1E78
ENCODING 7800
SWIDTH 752 0
DWIDTH 14 0
BBX 13 18 0 0
BITMAP
0180
0100
0200
0740
0980
0000
FC78
3030
3030
3030
3030
3030
3030
3030
3020
3020
1820
0FC0
ENDCHAR
STARTCHAR uni1E79
ENCODING 7801
SWIDTH 570 0
DWIDTH 10 0
BBX 10 16 0 0
BITMAP
0600
0400
0800
0000
1900
2600
0000
E300
2100
2100
2100
2100
2100
2100
2300
3DC0
ENDCHAR
STARTCHAR uni1E7A
ENCODING 7802
SWIDTH 752 0
DWIDTH 14 0
BBX 13 17 0 0
BITMAP
0CC0
0CC0
0000
07C0
0000
FC78
3030
3030
3030
3030
3030
3030
3030
3020
3020
1820
0FC0
ENDCHAR
STARTCHAR uni1E7B
ENCODING 7803
SWIDTH 570 0
DWIDTH 10 0
BBX 10 14 0 0
BITMAP
3300
3300
0000
3F00
0000
E300
2100
2100
2100
2100
2100
2100
2300
3DC0
ENDCHAR
STARTCHAR uni1E7C
ENCODING 7804
SWIDTH 680 0
DWIDTH 12 0
BBX 12 15 0 0
BITMAP
0C80
1300
0000
F870
6020
3060
3040
1840
1880
1880
0D00
0D00
0700
0600
0200
ENDCHAR
STARTCHAR uni1E7D
ENCODING 7805
SWIDTH 481 0
DWIDTH 9 0
BBX 9 12 0 0
BITMAP
3900
2600
0000
F380
6100
6200
2200
3200
1400
1400
1800
0800
ENDCHAR
STARTCHAR uni1E7E
ENCODING 7806
SWIDTH 680 0
DWIDTH 12 0
BBX 12 15 0 -3
BITMAP
F870
6020
3060
3040
1840
1880
1880
0D00
0D00
0700
0600
0200
0000
0600
0600
ENDCHAR
STARTCHAR uni1E7F
ENCODING 7807
SWIDTH 481 0
DWIDTH 9 0
BBX 9 12 0 -3
BITMAP
F380
6100
6200
2200
3200
1400
1400
1800
0800
0000
1800
1800
ENDCHAR
STARTCHAR Wgrave
ENCODING 7808
SWIDTH 944 0
DWIDTH 17 0
BBX 17 16 0 0
BITMAP
030000
018000
00C000
000000
F3E780
618300
30C200
30C200
10C200
18E400
196400
0D3400
0E3800
061800
061000
041000
ENDCHAR
STARTCHAR wgrave
ENCODING 7809
SWIDTH 749 0
DWIDTH 13 0
BBX 14 13 0 0
BITMAP
0600
0200
0100
0000
F79C
6308
6310
2310
3390
14A0
1CA0
18C0
0840
ENDCHAR
STARTCHAR Wacute
ENCODING 7810
SWIDTH 944 0
DWIDTH 17 0
BBX 17 16 0 0
BITMAP
00C000
008000
010000
000000
F3E780
618300
30C200
30C200
10C200
18E400
196400
0D3400
0E3800
061800
061000
041000
ENDCHAR
STARTCHAR wacute
ENCODING 7811
SWIDTH 749 0
DWIDTH 13 0
BBX 14 13 0 0
BITMAP
0180
0300
0200
0000
F79C
6308
6310
2310
3390
14A0
1CA0
18C0
0840
ENDCHAR
STARTCHAR Wdieresis
ENCODING 7812
SWIDTH 944 0
DWIDTH 17 0
BBX 17 15 0 0
BITMAP
066000
066000
000000
F3E780
618300
30C200
30C200
10C200
18E400
196400
0D3400
0E3800
061800
061000
041000
ENDCHAR
STARTCHAR wdieresis
ENCODING 7813
SWIDTH 749 0
DWIDTH 13 0
BBX 14 12 0 0
BITMAP
0CC0
0CC0
0000
F79C
6308
6310
2310
3390
14A0
1CA0
18C0
0840
ENDCHAR
STARTCHAR uni1E86
ENCODING 7814
SWIDTH 944 0
DWIDTH 17 0
BBX 17 15 0 0
BITMAP
018000
018000
000000
F3E780
618300
30C200
30C200
10C200
18E400
196400
0D3400
0E3800
061800
061000
041000
ENDCHAR
STARTCHAR uni1E87
ENCODING 7815
SWIDTH 749 0
DWIDTH 13 0
BBX 14 12 0 0
BITMAP
0300
0300
0000
F79C
6308
6310
2310
3390
14A0
1CA0
18C0
0840
ENDCHAR
STARTCHAR uni1E88
ENCODING 7816
SWIDTH 944 0
DWIDTH 17 0
BBX 17 15 0 -3
BITMAP
F3E780
618300
30C200
30C200
10C200
18E400
196400
0D3400
0E3800
061800
061000
041000
000000
00C000
00C000
ENDCHAR
STARTCHAR uni1E89
ENCODING 7817
SWIDTH 749 0
DWIDTH 13 0
BBX 14 12 0 -3
BITMAP
F79C
6308
6310
2310
3390
14A0
1CA0
18C0
0840
0000
0300
0300
ENDCHAR
STARTCHAR uni1E8A
ENCODING 7818
SWIDTH 664 0
DWIDTH 12 0
BBX 12 15 0 0
BITMAP
0600
0600
0000
F8F0
3040
1880
1900
0D00
0600
0600
0B00
1180
31C0
20C0
F1F0
ENDCHAR
STARTCHAR uni1E8B
ENCODING 7819
SWIDTH 479 0
DWIDTH 9 0
BBX 9 12 0 0
BITMAP
1800
0800
0000
F700
2200
3400
1800
0800
1C00
2600
4200
E780
ENDCHAR
STARTCHAR uni1E8C
ENCODING 7820
SWIDTH 664 0
DWIDTH 12 0
BBX 12 15 0 0
BITMAP
1980
1980
0000
F8F0
3040
1880
1900
0D00
0600
0600
0B00
1180
31C0
20C0
F1F0
ENDCHAR
STARTCHAR uni1E8D
ENCODING 7821
SWIDTH 479 0
DWIDTH 9 0
BBX 9 12 0 0
BITMAP
6600
2600
0000
F700
2200
3400
1800
0800
1C00
2600
4200
E780
ENDCHAR
STARTCHAR uni1E8E
ENCODING 7822
SWIDTH 647 0
DWIDTH 12 0
BBX 12 15 0 0
BITMAP
0600
0600
0000
F8F0
7040
3080
1880
1900
0D00
0600
0600
0600
0600
0600
1F80
ENDCHAR
STARTCHAR uni1E8F
ENCODING 7823
SWIDTH 483 0
DWIDTH 9 0
BBX 9 16 0 -4
BITMAP
0C00
0C00
0000
F380
6100
6200
3200
3200
1400
1C00
0800
0800
0800
1000
D000
E000
ENDCHAR
STARTCHAR uni1E90
ENCODING 7824
SWIDTH 594 0
DWIDTH 11 0
BBX 10 16 0 0
BITMAP
0400
0E00
1100
0000
7FC0
4180
4180
0300
0600
0600
0C00
1800
1800
3040
6040
FFC0
ENDCHAR
STARTCHAR uni1E91
ENCODING 7825
SWIDTH 458 0
DWIDTH 8 0
BBX 7 13 1 0
BITMAP
30
28
44
00
FE
8C
98
18
30
20
62
C2
FE
ENDCHAR
STARTCHAR uni1E92
ENCODING 7826
SWIDTH 594 0
DWIDTH 11 0
BBX 10 15 0 -3
BITMAP
7FC0
4180
4180
0300
0600
0600
0C00
1800
1800
3040
6040
FFC0
0000
0C00
0C00
ENDCHAR
STARTCHAR uni1E93
ENCODING 7827
SWIDTH 458 0
DWIDTH 8 0
BBX 7 12 1 -3
BITMAP
FE
8C
98
18
30
20
62
C2
FE
00
30
30
ENDCHAR
STARTCHAR uni1E94
ENCODING 7828
SWIDTH 594 0
DWIDTH 11 0
BBX 10 15 0 -3
BITMAP
7FC0
4180
4180
0300
0600
0600
0C00
1800
1800
3040
6040
FFC0
0000
0000
1F00
ENDCHAR
STARTCHAR uni1E95
ENCODING 7829
SWIDTH 458 0
DWIDTH 8 0
BBX 7 12 1 -3
BITMAP
FE
8C
98
18
30
20
62
C2
FE
00
00
7C
ENDCHAR
STARTCHAR uni1E96
ENCODING 7830
SWIDTH 577 0
DWIDTH 10 0
BBX 10 16 0 -3
BITMAP
E000
2000
2000
2000
2F00
3100
2180
2180
2180
2180
2180
2180
7BC0
0000
0000
1F00
ENDCHAR
STARTCHAR uni1E97
ENCODING 7831
SWIDTH 315 0
DWIDTH 6 0
BBX 6 14 0 0
BITMAP
CC
CC
20
20
20
78
20
20
20
20
20
20
24
38
ENDCHAR
STARTCHAR uni1E98
ENCODING 7832
SWIDTH 749 0
DWIDTH 13 0
BBX 14 14 0 0
BITMAP
0300
0480
0480
0300
0000
F79C
6308
6310
2310
3390
14A0
1CA0
18C0
0840
ENDCHAR
STARTCHAR uni1E99
ENCODING 7833
SWIDTH 483 0
DWIDTH 9 0
BBX 9 18 0 -4
BITMAP
1C00
1400
1400
1C00
0000
F380
6100
6200
3200
3200
1400
1C00
0800
0800
0800
1000
D000
E000
ENDCHAR
STARTCHAR uni1E9A
ENCODING 7834
SWIDTH 480 0
DWIDTH 9 0
BBX 8 14 1 0
BITMAP
30
08
08
30
00
78
CC
CC
0C
3C
CC
8C
8C
F7
ENDCHAR
STARTCHAR uni1E9B
ENCODING 7835
SWIDTH 285 0
DWIDTH 5 0
BBX 7 16 0 0
BITMAP
30
30
00
1E
26
20
20
E0
20
20
20
20
20
20
20
F8
ENDCHAR
STARTCHAR uni1E9C
ENCODING 7836
SWIDTH 300 0
DWIDTH 5 0
BBX 7 13 0 0
BITMAP
1E
36
30
30
70
38
30
70
B0
30
30
30
F8
ENDCHAR
STARTCHAR uni1E9D
ENCODING 7837
SWIDTH 285 0
DWIDTH 5 0
BBX 7 13 0 0
BITMAP
1E
26
F8
20
E0
20
20
20
20
20
20
20
F8
ENDCHAR
STARTCHAR uni1E9E
ENCODING 7838
SWIDTH 684 0
DWIDTH 12 0
BBX 12 12 0 0
BITMAP
0FE0
1860
30C0
3180
3180
3380
3060
3020
3030
3020
3460
F7C0
ENDCHAR
STARTCHAR uni1E9F
ENCODING 7839
SWIDTH 517 0
DWIDTH 9 0
BBX 8 14 1 0
BITMAP
3C
46
42
60
30
1C
6E
C6
83
83
83
C2
C6
3C
ENDCHAR
STARTCHAR uni1EA0
ENCODING 7840
SWIDTH 718 0
DWIDTH 13 0
BBX 13 15 0 -3
BITMAP
0200
0600
0700
0900
0980
0980
10C0
1FC0
2040
2060
6060
F0F8
0000
0600
0600
ENDCHAR
STARTCHAR uni1EA1
ENCODING 7841
SWIDTH 480 0
DWIDTH 9 0
BBX 8 12 1 -3
BITMAP
78
CC
CC
0C
3C
CC
8C
8C
F7
00
30
30
ENDCHAR
STARTCHAR uni1EA2
ENCODING 7842
SWIDTH 718 0
DWIDTH 13 0
BBX 13 17 0 0
BITMAP
0700
0500
0100
0200
0000
0200
0600
0700
0900
0980
0980
10C0
1FC0
2040
2060
6060
F0F8
ENDCHAR
STARTCHAR uni1EA3
ENCODING 7843
SWIDTH 480 0
DWIDTH 9 0
BBX 8 14 1 0
BITMAP
30
28
08
10
00
78
CC
CC
0C
3C
CC
8C
8C
F7
ENDCHAR
STARTCHAR uni1EA4
ENCODING 7844
SWIDTH 718 0
DWIDTH 13 0
BBX 13 17 0 0
BITMAP
0020
0260
0580
0880
0000
0200
0600
0700
0900
0980
0980
10C0
1FC0
2040
2060
6060
F0F8
ENDCHAR
STARTCHAR uni1EA5
ENCODING 7845
SWIDTH 480 0
DWIDTH 9 0
BBX 8 14 1 0
BITMAP
03
02
34
68
04
78
CC
CC
0C
3C
CC
8C
8C
F7
ENDCHAR
STARTCHAR uni1EA6
ENCODING 7846
SWIDTH 718 0
DWIDTH 13 0
BBX 13 17 0 0
BITMAP
0180
0240
0520
0880
0000
0200
0600
0700
0900
0980
0980
10C0
1FC0
2040
2060
6060
F0F8
ENDCHAR
STARTCHAR uni1EA7
ENCODING 7847
SWIDTH 480 0
DWIDTH 9 0
BBX 8 14 1 0
BITMAP
08
04
34
4C
00
78
CC
CC
0C
3C
CC
8C
8C
F7
ENDCHAR
STARTCHAR uni1EA8
ENCODING 7848
SWIDTH 718 0
DWIDTH 13 0
BBX 13 18 0 0
BITMAP
00C0
0160
0040
0780
0900
0080
0200
0600
0700
0900
0980
0980
10C0
1FC0
2040
2060
6060
F0F8
ENDCHAR
STARTCHAR uni1EA9
ENCODING 7849
SWIDTH 480 0
DWIDTH 9 0
BBX 8 15 1 0
BITMAP
0E
0A
02
34
48
04
78
CC
CC
0C
3C
CC
8C
8C
F7
ENDCHAR
STARTCHAR uni1EAA
ENCODING 7850
SWIDTH 718 0
DWIDTH 13 0
BBX 13 17 0 0
BITMAP
0F80
0200
0700
0880
0000
0200
0600
0700
0900
0980
0980
10C0
1FC0
2040
2060
6060
F0F8
ENDCHAR
STARTCHAR uni1EAB
ENCODING 7851
SWIDTH 480 0
DWIDTH 9 0
BBX 8 14 1 0
BITMAP
FC
00
30
28
4C
78
CC
CC
0C
3C
CC
8C
8C
F7
ENDCHAR
STARTCHAR uni1EAC
ENCODING 7852
SWIDTH 718 0
DWIDTH 13 0
BBX 13 19 0 -3
BITMAP
0200
0700
0880
0000
0200
0600
0700
0900
0980
0980
10C0
1FC0
2040
2060
6060
F0F8
0000
0600
0600
ENDCHAR
STARTCHAR uni1EAD
ENCODING 7853
SWIDTH 480 0
DWIDTH 9 0
BBX 8 16 1 -3
BITMAP
30
28
4C
00
78
CC
CC
0C
3C
CC
8C
8C
F7
00
30
30
ENDCHAR
STARTCHAR uni1EAE
ENCODING 7854
SWIDTH 718 0
DWIDTH 13 0
BBX 13 17 0 0
BITMAP
0100
0A80
0C80
0700
0000
0200
0600
0700
0900
0980
0980
10C0
1FC0
2040
2060
6060
F0F8
ENDCHAR
STARTCHAR uni1EAF
ENCODING 7855
SWIDTH 480 0
DWIDTH 9 0
BBX 8 14 1 0
BITMAP
08
10
B4
44
78
78
CC
CC
0C
3C
CC
8C
8C
F7
ENDCHAR
STARTCHAR uni1EB0
ENCODING 7856
SWIDTH 718 0
DWIDTH 13 0
BBX 13 17 0 0
BITMAP
0C00
0A80
0880
0700
0000
0200
0600
0700
0900
0980
0980
10C0
1FC0
2040
2060
6060
F0F8
ENDCHAR
STARTCHAR uni1EB1
ENCODING 7857
SWIDTH 480 0
DWIDTH 9 0
BBX 8 14 1 0
BITMAP
60
20
94
44
78
78
CC
CC
0C
3C
CC
8C
8C
F7
ENDCHAR
STARTCHAR uni1EB2
ENCODING 7858
SWIDTH 718 0
DWIDTH 13 0
BBX 13 19 0 0
BITMAP
0700
0500
0100
0A80
0880
0700
0000
0200
0600
0700
0900
0980
0980
10C0
1FC0
2040
2060
6060
F0F8
ENDCHAR
STARTCHAR uni1EB3
ENCODING 7859
SWIDTH 480 0
DWIDTH 9 0
BBX 8 15 1 0
BITMAP
30
28
18
A4
44
38
78
CC
CC
0C
3C
CC
8C
8C
F7
ENDCHAR
STARTCHAR uni1EB4
ENCODING 7860
SWIDTH 718 0
DWIDTH 13 0
BBX 13 18 0 0
BITMAP
0E80
1380
0880
0880
0700
0000
0200
0600
0700
0900
0980
0980
10C0
1FC0
2040
2060
6060
F0F8
ENDCHAR
STARTCHAR uni1EB5
ENCODING 7861
SWIDTH 480 0
DWIDTH 9 0
BBX 8 14 1 0
BITMAP
FC
00
84
44
38
78
CC
CC
0C
3C
CC
8C
8C
F7
ENDCHAR
STARTCHAR uni1EB6
ENCODING 7862
SWIDTH 718 0
DWIDTH 13 0
BBX 13 19 0 -3
BITMAP
0880
0880
0700
0000
0200
0600
0700
0900
0980
0980
10C0
1FC0
2040
2060
6060
F0F8
0000
0600
0600
ENDCHAR
STARTCHAR uni1EB7
ENCODING 7863
SWIDTH 480 0
DWIDTH 9 0
BBX 8 16 1 -3
BITMAP
84
44
38
00
78
CC
CC
0C
3C
CC
8C
8C
F7
00
30
30
ENDCHAR
STARTCHAR uni1EB8
ENCODING 7864
SWIDTH 626 0
DWIDTH 11 0
BBX 10 15 1 -3
BITMAP
FF80
6080
6080
6100
6100
7F00
6100
6000
6040
6040
6080
FF80
0000
0C00
0C00
ENDCHAR
STARTCHAR uni1EB9
ENCODING 7865
SWIDTH 464 0
DWIDTH 8 0
BBX 7 12 1 -3
BITMAP
78
C4
86
FE
80
80
C2
E4
38
00
30
30
ENDCHAR
STARTCHAR uni1EBA
ENCODING 7866
SWIDTH 626 0
DWIDTH 11 0
BBX 10 17 1 0
BITMAP
0C00
1600
0400
0800
0000
FF80
6080
6080
6100
6100
7F00
6100
6000
6040
6040
6080
FF80
ENDCHAR
STARTCHAR uni1EBB
ENCODING 7867
SWIDTH 464 0
DWIDTH 8 0
BBX 7 14 1 0
BITMAP
38
28
08
10
00
78
C4
86
FE
80
80
C2
E4
38
ENDCHAR
STARTCHAR uni1EBC
ENCODING 7868
SWIDTH 626 0
DWIDTH 11 0
BBX 10 15 1 0
BITMAP
1900
2600
0000
FF80
6080
6080
6100
6100
7F00
6100
6000
6040
6040
6080
FF80
ENDCHAR
STARTCHAR uni1EBD
ENCODING 7869
SWIDTH 464 0
DWIDTH 8 0
BBX 7 12 1 0
BITMAP
74
9C
00
78
C4
86
FE
80
80
C2
E4
38
ENDCHAR
STARTCHAR uni1EBE
ENCODING 7870
SWIDTH 626 0
DWIDTH 11 0
BBX 10 17 1 0
BITMAP
00C0
0980
1E00
2200
0000
FF80
6080
6080
6100
6100
7F00
6100
6000
6040
6040
6080
FF80
ENDCHAR
STARTCHAR uni1EBF
ENCODING 7871
SWIDTH 464 0
DWIDTH 8 0
BBX 8 14 1 0
BITMAP
03
02
34
28
44
78
C4
86
FE
80
80
C2
E4
38
ENDCHAR
STARTCHAR uni1EC0
ENCODING 7872
SWIDTH 626 0
DWIDTH 11 0
BBX 10 17 1 0
BITMAP
0300
0D00
1C80
2200
0000
FF80
6080
6080
6100
6100
7F00
6100
6000
6040
6040
6080
FF80
ENDCHAR
STARTCHAR uni1EC1
ENCODING 7873
SWIDTH 464 0
DWIDTH 8 0
BBX 7 14 1 0
BITMAP
0C
04
32
4C
00
78
C4
86
FE
80
80
C2
E4
38
ENDCHAR
STARTCHAR uni1EC2
ENCODING 7874
SWIDTH 626 0
DWIDTH 11 0
BBX 10 18 1 0
BITMAP
0300
0280
0080
0D00
1200
2000
FF80
6080
6080
6100
6100
7F00
6100
6000
6040
6040
6080
FF80
ENDCHAR
STARTCHAR uni1EC3
ENCODING 7875
SWIDTH 464 0
DWIDTH 8 0
BBX 7 15 1 0
BITMAP
0E
0A
02
34
48
04
78
C4
86
FE
80
80
C2
E4
38
ENDCHAR
STARTCHAR uni1EC4
ENCODING 7876
SWIDTH 626 0
DWIDTH 11 0
BBX 10 17 1 0
BITMAP
3F00
0C00
1C00
3200
0000
FF80
6080
6080
6100
6100
7F00
6100
6000
6040
6040
6080
FF80
ENDCHAR
STARTCHAR uni1EC5
ENCODING 7877
SWIDTH 464 0
DWIDTH 8 0
BBX 7 14 1 0
BITMAP
7C
00
30
28
44
78
C4
86
FE
80
80
C2
E4
38
ENDCHAR
STARTCHAR uni1EC6
ENCODING 7878
SWIDTH 626 0
DWIDTH 11 0
BBX 10 19 1 -3
BITMAP
0800
1C00
3200
0000
FF80
6080
6080
6100
6100
7F00
6100
6000
6040
6040
6080
FF80
0000
0C00
0C00
ENDCHAR
STARTCHAR uni1EC7
ENCODING 7879
SWIDTH 464 0
DWIDTH 8 0
BBX 7 16 1 -3
BITMAP
30
28
44
00
78
C4
86
FE
80
80
C2
E4
38
00
30
30
ENDCHAR
STARTCHAR uni1EC8
ENCODING 7880
SWIDTH 357 0
DWIDTH 6 0
BBX 5 17 1 0
BITMAP
70
50
10
20
00
F8
60
60
60
60
60
60
60
60
60
60
F8
ENDCHAR
STARTCHAR uni1EC9
ENCODING 7881
SWIDTH 285 0
DWIDTH 5 0
BBX 4 14 1 0
BITMAP
E0
A0
20
40
00
C0
40
40
40
40
40
40
40
F0
ENDCHAR
STARTCHAR uni1ECA
ENCODING 7882
SWIDTH 357 0
DWIDTH 6 0
BBX 5 15 1 -3
BITMAP
F8
60
60
60
60
60
60
60
60
60
60
F8
00
60
60
ENDCHAR
STARTCHAR uni1ECB
ENCODING 7883
SWIDTH 285 0
DWIDTH 5 0
BBX 4 15 1 -3
BITMAP
60
60
00
C0
40
40
40
40
40
40
40
F0
00
60
40
ENDCHAR
STARTCHAR uni1ECC
ENCODING 7884
SWIDTH 738 0
DWIDTH 13 0
BBX 11 15 1 -3
BITMAP
1F00
20C0
6060
C060
C060
C060
C060
C060
C060
6040
20C0
1F00
0000
0600
0600
ENDCHAR
STARTCHAR uni1ECD
ENCODING 7885
SWIDTH 514 0
DWIDTH 9 0
BBX 8 12 1 -3
BITMAP
3C
C6
82
83
83
83
C2
C6
3C
00
18
18
ENDCHAR
STARTCHAR uni1ECE
ENCODING 7886
SWIDTH 738 0
DWIDTH 13 0
BBX 11 17 1 0
BITMAP
0600
0B00
0200
0400
0000
1F00
20C0
6060
C060
C060
C060
C060
C060
C060
6040
20C0
1F00
ENDCHAR
STARTCHAR uni1ECF
ENCODING 7887
SWIDTH 514 0
DWIDTH 9 0
BBX 8 14 1 0
BITMAP
18
2C
08
10
00
3C
C6
82
83
83
83
C2
C6
3C
ENDCHAR
STARTCHAR uni1ED0
ENCODING 7888
SWIDTH 738 0
DWIDTH 13 0
BBX 11 17 1 0
BITMAP
0060
04C0
0B00
1100
0000
1F00
20C0
6060
C060
C060
C060
C060
C060
C060
6040
20C0
1F00
ENDCHAR
STARTCHAR uni1ED1
ENCODING 7889
SWIDTH 514 0
DWIDTH 9 0
BBX 8 14 1 0
BITMAP
01
02
1C
2C
40
3C
C6
82
83
83
83
C2
C6
3C
ENDCHAR
STARTCHAR uni1ED2
ENCODING 7890
SWIDTH 738 0
DWIDTH 13 0
BBX 11 17 1 0
BITMAP
0300
0680
0A40
1100
0000
1F00
20C0
6060
C060
C060
C060
C060
C060
C060
6040
20C0
1F00
ENDCHAR
STARTCHAR uni1ED3
ENCODING 7891
SWIDTH 514 0
DWIDTH 9 0
BBX 8 14 1 0
BITMAP
0C
04
1A
64
00
3C
C6
82
83
83
83
C2
C6
3C
ENDCHAR
STARTCHAR uni1ED4
ENCODING 7892
SWIDTH 738 0
DWIDTH 13 0
BBX 11 18 1 0
BITMAP
0180
0240
00C0
0700
0900
1000
1F00
20C0
6060
C060
C060
C060
C060
C060
C060
6040
20C0
1F00
ENDCHAR
STARTCHAR uni1ED5
ENCODING 7893
SWIDTH 514 0
DWIDTH 9 0
BBX 8 15 1 0
BITMAP
06
09
03
1C
24
40
3C
C6
82
83
83
83
C2
C6
3C
ENDCHAR
STARTCHAR uni1ED6
ENCODING 7894
SWIDTH 738 0
DWIDTH 13 0
BBX 11 17 1 0
BITMAP
1F80
0400
0E00
1100
0000
1F00
20C0
6060
C060
C060
C060
C060
C060
C060
6040
20C0
1F00
ENDCHAR
STARTCHAR uni1ED7
ENCODING 7895
SWIDTH 514 0
DWIDTH 9 0
BBX 8 14 1 0
BITMAP
7E
00
18
28
44
3C
C6
82
83
83
83
C2
C6
3C
ENDCHAR
STARTCHAR uni1ED8
ENCODING 7896
SWIDTH 738 0
DWIDTH 13 0
BBX 11 19 1 -3
BITMAP
0400
0E00
1100
0000
1F00
20C0
6060
C060
C060
C060
C060
C060
C060
6040
20C0
1F00
0000
0600
0600
ENDCHAR
STARTCHAR uni1ED9
ENCODING 7897
SWIDTH 514 0
DWIDTH 9 0
BBX 8 16 1 -3
BITMAP
18
28
44
00
3C
C6
82
83
83
83
C2
C6
3C
00
18
18
ENDCHAR
STARTCHAR uni1EDA
ENCODING 7898
SWIDTH 737 0
DWIDTH 13 0
BBX 12 16 1 0
BITMAP
0300
0630
0830
0030
1FE0
20C0
6060
C060
C060
C060
C060
C060
C060
6040
20C0
1F00
ENDCHAR
STARTCHAR uni1EDB
ENCODING 7899
SWIDTH 516 0
DWIDTH 9 0
BBX 8 13 1 0
BITMAP
0C
1B
11
01
3E
C6
82
83
83
83
C2
C6
3C
ENDCHAR
STARTCHAR uni1EDC
ENCODING 7900
SWIDTH 737 0
DWIDTH 13 0
BBX 12 16 1 0
BITMAP
0800
0C30
0230
0030
1FE0
20C0
6060
C060
C060
C060
C060
C060
C060
6040
20C0
1F00
ENDCHAR
STARTCHAR uni1EDD
ENCODING 7901
SWIDTH 516 0
DWIDTH 9 0
BBX 8 13 1 0
BITMAP
30
13
19
01
3E
C6
82
83
83
83
C2
C6
3C
ENDCHAR
STARTCHAR uni1EDE
ENCODING 7902
SWIDTH 737 0
DWIDTH 13 0
BBX 12 17 1 0
BITMAP
0600
0A00
0230
0430
0030
1FE0
20C0
6060
C060
C060
C060
C060
C060
C060
6040
20C0
1F00
ENDCHAR
STARTCHAR uni1EDF
ENCODING 7903
SWIDTH 516 0
DWIDTH 9 0
BBX 8 14 1 0
BITMAP
18
2C
0B
11
01
3E
C6
82
83
83
83
C2
C6
3C
ENDCHAR
STARTCHAR uni1EE0
ENCODING 7904
SWIDTH 737 0
DWIDTH 13 0
BBX 12 15 1 0
BITMAP
0CB0
1330
0030
1FE0
20C0
6060
C060
C060
C060
C060
C060
C060
6040
20C0
1F00
ENDCHAR
STARTCHAR uni1EE1
ENCODING 7905
SWIDTH 516 0
DWIDTH 9 0
BBX 8 12 1 0
BITMAP
73
4D
01
3E
C6
82
83
83
83
C2
C6
3C
ENDCHAR
STARTCHAR uni1EE2
ENCODING 7906
SWIDTH 737 0
DWIDTH 13 0
BBX 12 18 1 -3
BITMAP
0030
0030
0030
1FE0
20C0
6060
C060
C060
C060
C060
C060
C060
6040
20C0
1F00
0000
0600
0600
ENDCHAR
STARTCHAR uni1EE3
ENCODING 7907
SWIDTH 516 0
DWIDTH 9 0
BBX 8 15 1 -3
BITMAP
03
01
01
3E
C6
82
83
83
83
C2
C6
3C
00
18
18
ENDCHAR
STARTCHAR uni1EE4
ENCODING 7908
SWIDTH 752 0
DWIDTH 14 0
BBX 13 15 0 -3
BITMAP
FC78
3030
3030
3030
3030
3030
3030
3030
3020
3020
1820
0FC0
0000
0300
0300
ENDCHAR
STARTCHAR uni1EE5
ENCODING 7909
SWIDTH 570 0
DWIDTH 10 0
BBX 10 12 0 -3
BITMAP
E300
2100
2100
2100
2100
2100
2100
2300
3DC0
0000
0C00
0C00
ENDCHAR
STARTCHAR uni1EE6
ENCODING 7910
SWIDTH 752 0
DWIDTH 14 0
BBX 13 17 0 0
BITMAP
0380
0280
0080
0100
0000
FC78
3030
3030
3030
3030
3030
3030
3030
3020
3020
1820
0FC0
ENDCHAR
STARTCHAR uni1EE7
ENCODING 7911
SWIDTH 570 0
DWIDTH 10 0
BBX 10 14 0 0
BITMAP
0C00
0A00
0200
0C00
0000
E300
2100
2100
2100
2100
2100
2100
2300
3DC0
ENDCHAR
STARTCHAR uni1EE8
ENCODING 7912
SWIDTH 762 0
DWIDTH 14 0
BBX 15 16 0 0
BITMAP
0184
0106
0606
0004
FC78
3030
3030
3030
3030
3030
3030
3030
3020
3020
1820
0FC0
ENDCHAR
STARTCHAR uni1EE9
ENCODING 7913
SWIDTH 574 0
DWIDTH 10 0
BBX 10 13 0 0
BITMAP
0600
0C40
0840
0040
E3C0
2100
2100
2100
2100
2100
2100
2300
3DC0
ENDCHAR
STARTCHAR uni1EEA
ENCODING 7914
SWIDTH 762 0
DWIDTH 14 0
BBX 15 16 0 0
BITMAP
0604
0306
0186
0004
FC78
3030
3030
3030
3030
3030
3030
3030
3020
3020
1820
0FC0
ENDCHAR
STARTCHAR uni1EEB
ENCODING 7915
SWIDTH 574 0
DWIDTH 10 0
BBX 10 13 0 0
BITMAP
1800
0840
0440
0040
E3C0
2100
2100
2100
2100
2100
2100
2300
3DC0
ENDCHAR
STARTCHAR uni1EEC
ENCODING 7916
SWIDTH 762 0
DWIDTH 14 0
BBX 15 17 0 0
BITMAP
0380
0284
0086
0106
0004
FC78
3030
3030
3030
3030
3030
3030
3030
3020
3020
1820
0FC0
ENDCHAR
STARTCHAR uni1EED
ENCODING 7917
SWIDTH 574 0
DWIDTH 10 0
BBX 10 14 0 0
BITMAP
0C00
1200
0640
0840
0040
E3C0
2100
2100
2100
2100
2100
2100
2300
3DC0
ENDCHAR
STARTCHAR uni1EEE
ENCODING 7918
SWIDTH 762 0
DWIDTH 14 0
BBX 15 16 0 0
BITMAP
0004
0746
09C6
0004
FC78
3030
3030
3030
3030
3030
3030
3030
3020
3020
1820
0FC0
ENDCHAR
STARTCHAR uni1EEF
ENCODING 7919
SWIDTH 574 0
DWIDTH 10 0
BBX 10 12 0 0
BITMAP
1940
2640
0040
E3C0
2100
2100
2100
2100
2100
2100
2300
3DC0
ENDCHAR
STARTCHAR uni1EF0
ENCODING 7920
SWIDTH 762 0
DWIDTH 14 0
BBX 15 19 0 -3
BITMAP
0004
0006
0006
0004
FC78
3030
3030
3030
3030
3030
3030
3030
3020
3020
1820
0FC0
0000
0300
0300
ENDCHAR
STARTCHAR uni1EF1
ENCODING 7921
SWIDTH 574 0
DWIDTH 10 0
BBX 10 15 0 -3
BITMAP
0040
0040
0040
E3C0
2100
2100
2100
2100
2100
2100
2300
3DC0
0000
0C00
0C00
ENDCHAR
STARTCHAR Ygrave
ENCODING 7922
SWIDTH 647 0
DWIDTH 12 0
BBX 12 16 0 0
BITMAP
0C00
0600
0300
0000
F8F0
7040
3080
1880
1900
0D00
0600
0600
0600
0600
0600
1F80
ENDCHAR
STARTCHAR ygrave
ENCODING 7923
SWIDTH 483 0
DWIDTH 9 0
BBX 9 17 0 -4
BITMAP
1800
0800
0C00
0000
F380
6100
6200
3200
3200
1400
1C00
0800
0800
0800
1000
D000
E000
ENDCHAR
STARTCHAR uni1EF4
ENCODING 7924
SWIDTH 647 0
DWIDTH 12 0
BBX 12 15 0 -3
BITMAP
F8F0
7040
3080
1880
1900
0D00
0600
0600
0600
0600
0600
1F80
0000
0600
0600
ENDCHAR
STARTCHAR uni1EF5
ENCODING 7925
SWIDTH 483 0
DWIDTH 9 0
BBX 9 13 0 -4
BITMAP
F380
6100
6200
3200
3200
1400
1C00
0800
0800
0800
1600
D600
E000
ENDCHAR
STARTCHAR uni1EF6
ENCODING 7926
SWIDTH 647 0
DWIDTH 12 0
BBX 12 17 0 0
BITMAP
0600
0500
0100
0200
0000
F8F0
7040
3080
1880
1900
0D00
0600
0600
0600
0600
0600
1F80
ENDCHAR
STARTCHAR uni1EF7
ENCODING 7927
SWIDTH 483 0
DWIDTH 9 0
BBX 9 18 0 -4
BITMAP
0C00
1600
0400
0800
0000
F380
6100
6200
3200
3200
1400
1C00
0800
0800
0800
1000
D000
E000
ENDCHAR
STARTCHAR uni1EF8
ENCODING 7928
SWIDTH 647 0
DWIDTH 12 0
BBX 12 15 0 0
BITMAP
0C80
1300
0000
F8F0
7040
3080
1880
1900
0D00
0600
0600
0600
0600
0600
1F80
ENDCHAR
STARTCHAR uni1EF9
ENCODING 7929
SWIDTH 483 0
DWIDTH 9 0
BBX 9 16 0 -4
BITMAP
1900
2600
0000
F380
6100
6200
3200
3200
1400
1C00
0800
0800
0800
1000
D000
E000
ENDCHAR
STARTCHAR uni2000
ENCODING 8192
SWIDTH 500 0
DWIDTH 9 0
BBX 1 1 0 0
BITMAP
00
ENDCHAR
STARTCHAR uni2001
ENCODING 8193
SWIDTH 1000 0
DWIDTH 18 0
BBX 1 1 0 0
BITMAP
00
ENDCHAR
STARTCHAR uni2002
ENCODING 8194
SWIDTH 500 0
DWIDTH 9 0
BBX 1 1 0 0
BITMAP
00
ENDCHAR
STARTCHAR uni2003
ENCODING 8195
SWIDTH 1000 0
DWIDTH 18 0
BBX 1 1 0 0
BITMAP
00
ENDCHAR
STARTCHAR uni2004
ENCODING 8196
SWIDTH 334 0
DWIDTH 6 0
BBX 1 1 0 0
BITMAP
00
ENDCHAR
STARTCHAR uni2005
ENCODING 8197
SWIDTH 250 0
DWIDTH 5 0
BBX 1 1 0 0
BITMAP
00
ENDCHAR
STARTCHAR uni2006
ENCODING 8198
SWIDTH 167 0
DWIDTH 3 0
BBX 1 1 0 0
BITMAP
00
ENDCHAR
STARTCHAR uni2007
ENCODING 8199
SWIDTH 560 0
DWIDTH 10 0
BBX 1 1 0 0
BITMAP
00
ENDCHAR
STARTCHAR uni2008
ENCODING 8200
SWIDTH 297 0
DWIDTH 5 0
BBX 1 1 0 0
BITMAP
00
ENDCHAR
STARTCHAR uni2009
ENCODING 8201
SWIDTH 125 0
DWIDTH 2 0
BBX 1 1 0 0
BITMAP
00
ENDCHAR
STARTCHAR uni200A
ENCODING 8202
SWIDTH 63 0
DWIDTH 1 0
BBX 1 1 0 0
BITMAP
00
ENDCHAR
STARTCHAR uni200B
ENCODING 8203
SWIDTH 0 0
DWIDTH 0 0
BBX 1 1 0 0
BITMAP
00
ENDCHAR
STARTCHAR uni200C
ENCODING 8204
SWIDTH 0 0
DWIDTH 0 0
BBX 1 19 0 -5
BITMAP
80
80
80
80
80
80
80
80
80
80
80
80
80
80
80
80
80
80
80
ENDCHAR
STARTCHAR uni200D
ENCODING 8205
SWIDTH 0 0
DWIDTH 0 0
BBX 4 21 -2 -5
BITMAP
90
60
90
D0
40
40
40
40
40
40
40
40
40
40
40
40
40
40
40
40
40
ENDCHAR
STARTCHAR uni2010
ENCODING 8208
SWIDTH 315 0
DWIDTH 6 0
BBX 4 1 1 4
BITMAP
F0
ENDCHAR
STARTCHAR uni2011
ENCODING 8209
SWIDTH 315 0
DWIDTH 6 0
BBX 4 1 1 4
BITMAP
F0
ENDCHAR
STARTCHAR figuredash
ENCODING 8210
SWIDTH 495 0
DWIDTH 9 0
BBX 7 1 1 4
BITMAP
FE
ENDCHAR
STARTCHAR endash
ENCODING 8211
SWIDTH 500 0
DWIDTH 9 0
BBX 7 1 1 4
BITMAP
FE
ENDCHAR
STARTCHAR emdash
ENCODING 8212
SWIDTH 1000 0
DWIDTH 18 0
BBX 16 1 1 4
BITMAP
FFFF
ENDCHAR
STARTCHAR uni2015
ENCODING 8213
SWIDTH 940 0
DWIDTH 17 0
BBX 17 1 0 4
BITMAP
FFFF80
ENDCHAR
STARTCHAR uni2016
ENCODING 8214
SWIDTH 427 0
DWIDTH 8 0
BBX 4 17 2 -4
BITMAP
90
90
90
90
90
90
90
90
90
90
90
90
90
90
90
90
90
ENDCHAR
STARTCHAR underscoredbl
ENCODING 8215
SWIDTH 512 0
DWIDTH 9 0
BBX 9 3 0 -4
BITMAP
FF80
0000
FF80
ENDCHAR
STARTCHAR quoteleft
ENCODING 8216
SWIDTH 245 0
DWIDTH 4 0
BBX 3 4 1 9
BITMAP
40
80
E0
C0
ENDCHAR
STARTCHAR quoteright
ENCODING 8217
SWIDTH 245 0
DWIDTH 4 0
BBX 2 5 1 8
BITMAP
C0
C0
40
40
80
ENDCHAR
STARTCHAR quotesinglbase
ENCODING 8218
SWIDTH 243 0
DWIDTH 4 0
BBX 2 4 1 -2
BITMAP
C0
C0
40
C0
ENDCHAR
STARTCHAR quotereversed
ENCODING 8219
SWIDTH 243 0
DWIDTH 4 0
BBX 3 5 1 8
BITMAP
C0
E0
80
40
20
ENDCHAR
STARTCHAR quotedblleft
ENCODING 8220
SWIDTH 435 0
DWIDTH 8 0
BBX 6 4 1 9
BITMAP
4C
88
FC
CC
ENDCHAR
STARTCHAR quotedblright
ENCODING 8221
SWIDTH 434 0
DWIDTH 8 0
BBX 6 5 1 8
BITMAP
D8
DC
44
48
90
ENDCHAR
STARTCHAR quotedblbase
ENCODING 8222
SWIDTH 433 0
DWIDTH 8 0
BBX 6 4 1 -2
BITMAP
DC
DC
44
D8
ENDCHAR
STARTCHAR uni201F
ENCODING 8223
SWIDTH 434 0
DWIDTH 8 0
BBX 6 5 1 8
BITMAP
CC
FC
88
48
24
ENDCHAR
STARTCHAR dagger
ENCODING 8224
SWIDTH 512 0
DWIDTH 9 0
BBX 7 16 1 -3
BITMAP
10
10
10
10
FE
D2
10
10
18
10
10
10
10
10
10
10
ENDCHAR
STARTCHAR daggerdbl
ENCODING 8225
SWIDTH 512 0
DWIDTH 9 0
BBX 7 15 1 -2
BITMAP
10
10
10
10
FE
D2
10
18
10
10
FE
D6
10
10
10
ENDCHAR
STARTCHAR bullet
ENCODING 8226
SWIDTH 457 0
DWIDTH 8 0
BBX 4 5 2 2
BITMAP
70
F0
F0
F0
70
ENDCHAR
STARTCHAR twodotenleader
ENCODING 8229
SWIDTH 500 0
DWIDTH 9 0
BBX 7 2 1 0
BITMAP
C6
C6
ENDCHAR
STARTCHAR ellipsis
ENCODING 8230
SWIDTH 887 0
DWIDTH 16 0
BBX 12 2 2 0
BITMAP
C630
C630
ENDCHAR
STARTCHAR uni202F
ENCODING 8239
SWIDTH 125 0
DWIDTH 2 0
BBX 1 1 0 0
BITMAP
00
ENDCHAR
STARTCHAR perthousand
ENCODING 8240
SWIDTH 1017 0
DWIDTH 18 0
BBX 17 12 1 0
BITMAP
70C000
CF8000
890000
8A0000
920000
640000
05C700
0B2C80
122880
122880
224900
638E00
ENDCHAR
STARTCHAR uni2031
ENCODING 8241
SWIDTH 1342 0
DWIDTH 24 0
BBX 22 12 1 0
BITMAP
70C000
CF8000
890000
8A0000
920000
640000
05C71C
0B2CA4
1228A4
1228E4
224964
638E38
ENDCHAR
STARTCHAR minute
ENCODING 8242
SWIDTH 296 0
DWIDTH 5 0
BBX 3 6 1 7
BITMAP
20
60
40
40
80
80
ENDCHAR
STARTCHAR second
ENCODING 8243
SWIDTH 436 0
DWIDTH 8 0
BBX 6 6 1 7
BITMAP
2C
68
48
50
90
90
ENDCHAR
STARTCHAR uni2034
ENCODING 8244
SWIDTH 576 0
DWIDTH 10 0
BBX 8 6 1 7
BITMAP
2D
6B
4A
52
94
94
ENDCHAR
STARTCHAR uni2035
ENCODING 8245
SWIDTH 296 0
DWIDTH 5 0
BBX 3 6 1 7
BITMAP
C0
C0
40
60
20
20
ENDCHAR
STARTCHAR uni2036
ENCODING 8246
SWIDTH 436 0
DWIDTH 8 0
BBX 6 6 1 7
BITMAP
D0
D8
58
68
28
24
ENDCHAR
STARTCHAR uni2037
ENCODING 8247
SWIDTH 576 0
DWIDTH 10 0
BBX 8 6 1 7
BITMAP
D6
DE
5A
6B
29
25
ENDCHAR
STARTCHAR uni2038
ENCODING 8248
SWIDTH 523 0
DWIDTH 9 0
BBX 8 5 1 -3
BITMAP
10
28
24
42
83
ENDCHAR
STARTCHAR guilsinglleft
ENCODING 8249
SWIDTH 307 0
DWIDTH 6 0
BBX 4 7 1 1
BITMAP
10
20
40
80
C0
40
30
ENDCHAR
STARTCHAR guilsinglright
ENCODING 8250
SWIDTH 307 0
DWIDTH 6 0
BBX 4 7 1 1
BITMAP
80
40
20
30
20
40
80
ENDCHAR
STARTCHAR uni203B
ENCODING 8251
SWIDTH 701 0
DWIDTH 13 0
BBX 11 11 1 0
BITMAP
8040
CC60
6C80
3100
1A00
ECC0
4EC0
1300
2180
6C80
CC60
ENDCHAR
STARTCHAR exclamdbl
ENCODING 8252
SWIDTH 565 0
DWIDTH 10 0
BBX 8 12 1 0
BITMAP
42
43
43
42
42
42
42
42
42
00
E3
43
ENDCHAR
STARTCHAR uni203E
ENCODING 8254
SWIDTH 512 0
DWIDTH 9 0
BBX 9 1 0 15
BITMAP
FF80
ENDCHAR
STARTCHAR uni2040
ENCODING 8256
SWIDTH 810 0
DWIDTH 15 0
BBX 12 3 1 10
BITMAP
1F80
2060
C010
ENDCHAR
STARTCHAR uni2043
ENCODING 8259
SWIDTH 352 0
DWIDTH 6 0
BBX 4 3 1 3
BITMAP
F0
F0
F0
ENDCHAR
STARTCHAR fraction
ENCODING 8260
SWIDTH 205 0
DWIDTH 4 0
BBX 8 13 -2 0
BITMAP
01
02
02
04
04
08
10
10
20
20
40
80
80
ENDCHAR
STARTCHAR uni2047
ENCODING 8263
SWIDTH 822 0
DWIDTH 15 0
BBX 13 12 1 0
BITMAP
78F0
8D18
8D88
8D08
0818
1810
1020
2020
2020
0000
3060
3060
ENDCHAR
STARTCHAR uni204B
ENCODING 8267
SWIDTH 605 0
DWIDTH 11 0
BBX 9 15 1 -3
BITMAP
FE00
2900
2980
2980
2980
2980
2B00
2C00
2800
2800
2800
2800
2800
2800
EE00
ENDCHAR
STARTCHAR uni204C
ENCODING 8268
SWIDTH 479 0
DWIDTH 9 0
BBX 6 5 2 2
BITMAP
FC
D0
D0
D0
FC
ENDCHAR
STARTCHAR uni204D
ENCODING 8269
SWIDTH 479 0
DWIDTH 9 0
BBX 6 5 1 2
BITMAP
F8
5C
5C
5C
F8
ENDCHAR
STARTCHAR uni204E
ENCODING 8270
SWIDTH 410 0
DWIDTH 7 0
BBX 6 7 1 -3
BITMAP
20
20
AC
78
78
AC
20
ENDCHAR
STARTCHAR uni204F
ENCODING 8271
SWIDTH 245 0
DWIDTH 4 0
BBX 2 12 1 -3
BITMAP
C0
C0
00
00
00
00
00
C0
C0
80
80
40
ENDCHAR
STARTCHAR uni2050
ENCODING 8272
SWIDTH 809 0
DWIDTH 15 0
BBX 12 13 1 0
BITMAP
1F80
2060
4010
8010
0000
0000
0000
0000
0000
8010
4010
2060
1F80
ENDCHAR
STARTCHAR uni2051
ENCODING 8273
SWIDTH 410 0
DWIDTH 7 0
BBX 6 14 1 -1
BITMAP
20
AC
78
78
AC
20
20
20
20
AC
78
78
AC
20
ENDCHAR
STARTCHAR uni2052
ENCODING 8274
SWIDTH 482 0
DWIDTH 9 0
BBX 7 17 1 -4
BITMAP
C6
C4
04
0C
08
08
18
10
10
30
20
20
60
40
44
CC
80
ENDCHAR
STARTCHAR uni2057
ENCODING 8279
SWIDTH 727 0
DWIDTH 13 0
BBX 11 6 1 7
BITMAP
2D60
6B60
4A40
52C0
9480
9480
ENDCHAR
STARTCHAR uni205F
ENCODING 8287
SWIDTH 222 0
DWIDTH 4 0
BBX 1 1 0 0
BITMAP
00
ENDCHAR
STARTCHAR uni2061
ENCODING 8289
SWIDTH 0 0
DWIDTH 0 0
BBX 1 1 0 0
BITMAP
00
ENDCHAR
STARTCHAR uni2062
ENCODING 8290
SWIDTH 0 0
DWIDTH 0 0
BBX 1 1 0 0
BITMAP
00
ENDCHAR
STARTCHAR uni2063
ENCODING 8291
SWIDTH 0 0
DWIDTH 0 0
BBX 1 1 0 0
BITMAP
00
ENDCHAR
STARTCHAR uni2064
ENCODING 8292
SWIDTH 0 0
DWIDTH 0 0
BBX 1 1 0 0
BITMAP
00
ENDCHAR
STARTCHAR zerosuperior
ENCODING 8304
SWIDTH 412 0
DWIDTH 7 0
BBX 6 8 1 5
BITMAP
70
88
8C
84
84
8C
88
70
ENDCHAR
STARTCHAR uni2071
ENCODING 8305
SWIDTH 245 0
DWIDTH 4 0
BBX 3 10 1 5
BITMAP
C0
40
00
C0
40
40
40
40
40
E0
ENDCHAR
STARTCHAR foursuperior
ENCODING 8308
SWIDTH 403 0
DWIDTH 7 0
BBX 7 8 0 5
BITMAP
0C
1C
2C
2C
4C
FE
0C
0C
ENDCHAR
STARTCHAR fivesuperior
ENCODING 8309
SWIDTH 358 0
DWIDTH 6 0
BBX 6 8 0 5
BITMAP
3C
40
78
0C
04
04
08
F0
ENDCHAR
STARTCHAR sixsuperior
ENCODING 8310
SWIDTH 390 0
DWIDTH 7 0
BBX 6 8 1 5
BITMAP
38
40
F0
88
8C
8C
88
70
ENDCHAR
STARTCHAR sevensuperior
ENCODING 8311
SWIDTH 364 0
DWIDTH 7 0
BBX 6 8 0 5
BITMAP
7C
44
88
08
08
10
10
20
ENDCHAR
STARTCHAR eightsuperior
ENCODING 8312
SWIDTH 374 0
DWIDTH 7 0
BBX 6 8 0 5
BITMAP
78
44
44
38
4C
44
C4
78
ENDCHAR
STARTCHAR ninesuperior
ENCODING 8313
SWIDTH 390 0
DWIDTH 7 0
BBX 6 8 0 5
BITMAP
78
44
C4
44
7C
04
08
70
ENDCHAR
STARTCHAR uni207A
ENCODING 8314
SWIDTH 536 0
DWIDTH 10 0
BBX 8 8 1 5
BITMAP
10
10
10
FF
10
10
10
10
ENDCHAR
STARTCHAR uni207B
ENCODING 8315
SWIDTH 536 0
DWIDTH 10 0
BBX 8 1 1 8
BITMAP
FF
ENDCHAR
STARTCHAR uni207C
ENCODING 8316
SWIDTH 534 0
DWIDTH 10 0
BBX 8 4 1 7
BITMAP
FF
00
00
FF
ENDCHAR
STARTCHAR parenleftsuperior
ENCODING 8317
SWIDTH 268 0
DWIDTH 5 0
BBX 4 13 0 2
BITMAP
10
20
40
40
40
C0
C0
40
40
40
20
10
10
ENDCHAR
STARTCHAR parenrightsuperior
ENCODING 8318
SWIDTH 268 0
DWIDTH 5 0
BBX 4 13 0 2
BITMAP
C0
20
20
10
10
10
10
10
10
10
20
40
80
ENDCHAR
STARTCHAR nsuperior
ENCODING 8319
SWIDTH 491 0
DWIDTH 9 0
BBX 7 7 1 5
BITMAP
DC
64
44
44
44
44
EE
ENDCHAR
STARTCHAR zeroinferior
ENCODING 8320
SWIDTH 412 0
DWIDTH 7 0
BBX 6 8 1 -4
BITMAP
70
88
8C
84
84
8C
88
70
ENDCHAR
STARTCHAR oneinferior
ENCODING 8321
SWIDTH 333 0
DWIDTH 6 0
BBX 4 8 1 -4
BITMAP
E0
60
60
60
60
60
60
F0
ENDCHAR
STARTCHAR twoinferior
ENCODING 8322
SWIDTH 373 0
DWIDTH 7 0
BBX 6 8 0 -4
BITMAP
78
8C
04
08
08
30
44
FC
ENDCHAR
STARTCHAR threeinferior
ENCODING 8323
SWIDTH 374 0
DWIDTH 7 0
BBX 5 8 1 -4
BITMAP
70
98
10
70
18
08
08
F0
ENDCHAR
STARTCHAR fourinferior
ENCODING 8324
SWIDTH 403 0
DWIDTH 7 0
BBX 7 8 0 -4
BITMAP
0C
1C
2C
2C
4C
FE
0C
0C
ENDCHAR
STARTCHAR fiveinferior
ENCODING 8325
SWIDTH 358 0
DWIDTH 6 0
BBX 6 8 0 -4
BITMAP
3C
40
78
0C
04
04
08
F0
ENDCHAR
STARTCHAR sixinferior
ENCODING 8326
SWIDTH 390 0
DWIDTH 7 0
BBX 6 8 1 -4
BITMAP
38
40
F0
88
8C
8C
88
70
ENDCHAR
STARTCHAR seveninferior
ENCODING 8327
SWIDTH 364 0
DWIDTH 7 0
BBX 6 8 0 -4
BITMAP
7C
44
88
08
08
10
10
20
ENDCHAR
STARTCHAR eightinferior
ENCODING 8328
SWIDTH 374 0
DWIDTH 7 0
BBX 6 8 0 -4
BITMAP
78
44
44
38
4C
44
C4
78
ENDCHAR
STARTCHAR nineinferior
ENCODING 8329
SWIDTH 390 0
DWIDTH 7 0
BBX 6 8 0 -4
BITMAP
78
44
C4
44
7C
04
08
70
ENDCHAR
STARTCHAR uni208A
ENCODING 8330
SWIDTH 536 0
DWIDTH 10 0
BBX 8 8 1 -4
BITMAP
10
10
10
FF
10
10
10
10
ENDCHAR
STARTCHAR uni208B
ENCODING 8331
SWIDTH 536 0
DWIDTH 10 0
BBX 8 1 1 -1
BITMAP
FF
ENDCHAR
STARTCHAR uni208C
ENCODING 8332
SWIDTH 534 0
DWIDTH 10 0
BBX 8 4 1 -2
BITMAP
FF
00
00
FF
ENDCHAR
STARTCHAR parenleftinferior
ENCODING 8333
SWIDTH 268 0
DWIDTH 5 0
BBX 4 13 0 -7
BITMAP
10
20
40
40
40
C0
C0
40
40
40
20
10
10
ENDCHAR
STARTCHAR parenrightinferior
ENCODING 8334
SWIDTH 268 0
DWIDTH 5 0
BBX 4 13 0 -7
BITMAP
C0
20
20
10
10
10
10
10
10
10
20
40
80
ENDCHAR
STARTCHAR uni20A3
ENCODING 8355
SWIDTH 495 0
DWIDTH 9 0
BBX 9 12 0 0
BITMAP
FF00
3100
3080
3080
3000
FE00
3000
FE00
3000
3000
3000
F800
ENDCHAR
STARTCHAR uni20A4
ENCODING 8356
SWIDTH 495 0
DWIDTH 9 0
BBX 9 12 0 0
BITMAP
0F00
1100
1000
3000
7E00
1000
7E00
1000
1000
7080
9900
EE00
ENDCHAR
STARTCHAR uni20A7
ENCODING 8359
SWIDTH 1193 0
DWIDTH 21 0
BBX 20 12 1 0
BITMAP
FE0000
632000
612000
6179F0
612310
632310
7C2180
6020E0
602070
602210
602610
F83BE0
ENDCHAR
STARTCHAR uni20AB
ENCODING 8363
SWIDTH 495 0
DWIDTH 9 0
BBX 7 12 1 0
BITMAP
1C
04
3E
7C
C4
84
84
84
CC
76
00
FE
ENDCHAR
STARTCHAR Euro
ENCODING 8364
SWIDTH 495 0
DWIDTH 9 0
BBX 9 12 0 0
BITMAP
1E80
3100
2100
6080
FE00
6000
FC00
6000
6000
2080
3080
1F00
ENDCHAR
STARTCHAR uni20B9
ENCODING 8377
SWIDTH 495 0
DWIDTH 9 0
BBX 8 12 1 0
BITMAP
FE
18
0C
FE
0C
18
F0
30
18
1C
0C
07
ENDCHAR
STARTCHAR uni20BA
ENCODING 8378
SWIDTH 495 0
DWIDTH 9 0
BBX 9 12 0 0
BITMAP
F800
3000
2000
2000
3C00
E000
3C00
E000
2180
2100
2300
FE00
ENDCHAR
STARTCHAR uni20BD
ENCODING 8381
SWIDTH 495 0
DWIDTH 9 0
BBX 8 12 0 0
BITMAP
7E
33
31
31
31
33
7C
30
7E
30
30
F8
ENDCHAR
STARTCHAR uni20D0
ENCODING 8400
SWIDTH 0 0
DWIDTH 0 0
BBX 8 3 -8 12
BITMAP
20
40
FF
ENDCHAR
STARTCHAR uni20D1
ENCODING 8401
SWIDTH 0 0
DWIDTH 0 0
BBX 8 3 -8 12
BITMAP
04
02
FF
ENDCHAR
STARTCHAR uni20D2
ENCODING 8402
SWIDTH 0 0
DWIDTH 0 0
BBX 1 15 -5 -2
BITMAP
80
80
80
80
80
80
80
80
80
80
80
80
80
80
80
ENDCHAR
STARTCHAR uni20D3
ENCODING 8403
SWIDTH 0 0
DWIDTH 0 0
BBX 1 12 -5 -3
BITMAP
80
80
80
80
80
80
80
80
80
80
80
80
ENDCHAR
STARTCHAR uni20D4
ENCODING 8404
SWIDTH 0 0
DWIDTH 0 0
BBX 10 5 -10 10
BITMAP
0F00
1080
A040
6040
7800
ENDCHAR
STARTCHAR uni20D5
ENCODING 8405
SWIDTH 0 0
DWIDTH 0 0
BBX 9 5 -8 10
BITMAP
3C00
4200
8280
8180
0700
ENDCHAR
STARTCHAR uni20D6
ENCODING 8406
SWIDTH 0 0
DWIDTH 0 0
BBX 8 5 -8 10
BITMAP
20
40
FF
40
20
ENDCHAR
STARTCHAR uni20D7
ENCODING 8407
SWIDTH 0 0
DWIDTH 0 0
BBX 8 5 -8 10
BITMAP
04
02
FF
02
04
ENDCHAR
STARTCHAR uni20D8
ENCODING 8408
SWIDTH 0 0
DWIDTH 0 0
BBX 6 6 -7 2
BITMAP
70
C8
84
84
C8
70
ENDCHAR
STARTCHAR uni20D9
ENCODING 8409
SWIDTH 0 0
DWIDTH 0 0
BBX 7 6 -7 2
BITMAP
70
CE
9C
84
C8
70
ENDCHAR
STARTCHAR uni20DA
ENCODING 8410
SWIDTH 0 0
DWIDTH 0 0
BBX 7 6 -7 2
BITMAP
70
C8
84
9C
CE
70
ENDCHAR
STARTCHAR uni20DB
ENCODING 8411
SWIDTH 0 0
DWIDTH 0 0
BBX 9 2 -9 10
BITMAP
CC80
CC80
ENDCHAR
STARTCHAR uni20DC
ENCODING 8412
SWIDTH 0 0
DWIDTH 0 0
BBX 13 2 -11 10
BITMAP
4C88
CCD8
ENDCHAR
STARTCHAR uni20DD
ENCODING 8413
SWIDTH 0 0
DWIDTH 0 0
BBX 18 17 -13 -4
BITMAP
03F000
0C0C00
100600
200300
600180
400080
C00080
8000C0
8000C0
8000C0
C00080
400080
600180
200300
100600
0C0C00
03F000
ENDCHAR
STARTCHAR uni20DE
ENCODING 8414
SWIDTH 0 0
DWIDTH 0 0
BBX 18 17 -13 -3
BITMAP
FFFFC0
8000C0
8000C0
8000C0
8000C0
8000C0
8000C0
8000C0
8000C0
8000C0
8000C0
8000C0
8000C0
8000C0
8000C0
8000C0
FFFFC0
ENDCHAR
STARTCHAR uni20DF
ENCODING 8415
SWIDTH 0 0
DWIDTH 0 0
BBX 22 22 -15 -6
BITMAP
002000
003000
007800
00CC00
018600
030300
060180
0C00C0
180060
300030
600018
C0000C
600018
300030
180060
0C00C0
060180
030300
018600
00CC00
007800
003000
ENDCHAR
STARTCHAR uni20E1
ENCODING 8417
SWIDTH 0 0
DWIDTH 0 0
BBX 9 5 -9 10
BITMAP
2200
4100
FF80
4100
2200
ENDCHAR
STARTCHAR uni20E4
ENCODING 8420
SWIDTH 0 0
DWIDTH 0 0
BBX 27 21 -18 -3
BITMAP
00040000
00060000
000F0000
001B0000
00118000
00308000
0060C000
00406000
00C02000
00803000
01801800
03000800
02000C00
06000400
0C000600
0C000300
18000100
10000180
300000C0
60000040
FFFFFFE0
ENDCHAR
STARTCHAR uni20E5
ENCODING 8421
SWIDTH 0 0
DWIDTH 0 0
BBX 7 15 -8 -3
BITMAP
80
40
40
20
20
10
10
10
08
08
04
04
04
02
02
ENDCHAR
STARTCHAR uni20E6
ENCODING 8422
SWIDTH 0 0
DWIDTH 0 0
BBX 4 15 -6 -3
BITMAP
90
90
90
90
90
90
90
90
90
90
90
90
90
90
90
ENDCHAR
STARTCHAR uni20E7
ENCODING 8423
SWIDTH 0 0
DWIDTH 0 0
BBX 15 17 -11 -4
BITMAP
FFFE
0002
0002
0002
0002
0002
0002
0002
0002
0002
0002
0002
0002
0002
0002
0002
0002
ENDCHAR
STARTCHAR uni20E8
ENCODING 8424
SWIDTH 0 0
DWIDTH 0 0
BBX 9 2 -9 -4
BITMAP
CC80
CC80
ENDCHAR
STARTCHAR uni20E9
ENCODING 8425
SWIDTH 0 0
DWIDTH 0 0
BBX 10 2 -9 11
BITMAP
FFC0
8040
ENDCHAR
STARTCHAR uni20EA
ENCODING 8426
SWIDTH 0 0
DWIDTH 0 0
BBX 14 6 -12 1
BITMAP
1000
2000
FFFC
2000
1000
1000
ENDCHAR
STARTCHAR uni20EB
ENCODING 8427
SWIDTH 0 0
DWIDTH 0 0
BBX 12 18 -10 -4
BITMAP
0110
0120
0220
0240
0240
0480
0480
0880
0900
1100
1200
1200
2200
2400
4400
4800
4800
9800
ENDCHAR
STARTCHAR uni20EC
ENCODING 8428
SWIDTH 0 0
DWIDTH 0 0
BBX 8 3 -8 -5
BITMAP
FF
02
04
ENDCHAR
STARTCHAR uni20ED
ENCODING 8429
SWIDTH 0 0
DWIDTH 0 0
BBX 8 3 -8 -5
BITMAP
FF
40
20
ENDCHAR
STARTCHAR uni20EE
ENCODING 8430
SWIDTH 0 0
DWIDTH 0 0
BBX 8 5 -8 -5
BITMAP
20
40
FF
40
20
ENDCHAR
STARTCHAR uni20EF
ENCODING 8431
SWIDTH 0 0
DWIDTH 0 0
BBX 8 5 -8 -5
BITMAP
04
02
FF
02
04
ENDCHAR
STARTCHAR uni20F0
ENCODING 8432
SWIDTH 0 0
DWIDTH 0 0
BBX 5 6 -7 10
BITMAP
20
20
E8
30
E8
20
ENDCHAR
STARTCHAR uni2100
ENCODING 8448
SWIDTH 939 0
DWIDTH 17 0
BBX 15 13 1 0
BITMAP
0008
7010
9820
8820
3840
C840
889E
FD22
0120
0220
0220
0432
081C
ENDCHAR
STARTCHAR uni2101
ENCODING 8449
SWIDTH 936 0
DWIDTH 17 0
BBX 15 13 1 0
BITMAP
0008
7010
9820
8820
3840
C840
889E
FD22
0130
020C
0222
0422
083E
ENDCHAR
STARTCHAR uni2102
ENCODING 8450
SWIDTH 695 0
DWIDTH 13 0
BBX 11 12 1 0
BITMAP
1F00
20C0
6020
A000
A000
A000
A000
A000
A000
6020
20C0
1F00
ENDCHAR
STARTCHAR uni2103
ENCODING 8451
SWIDTH 1028 0
DWIDTH 19 0
BBX 17 13 1 0
BITMAP
700000
883F00
88C100
898100
898080
730000
030000
030000
030000
018000
018080
00C100
007E00
ENDCHAR
STARTCHAR uni2104
ENCODING 8452
SWIDTH 646 0
DWIDTH 12 0
BBX 11 12 0 0
BITMAP
3E00
1800
1E00
7A00
5A00
D800
D800
5800
7E20
1820
1820
3FE0
ENDCHAR
STARTCHAR uni2105
ENCODING 8453
SWIDTH 953 0
DWIDTH 17 0
BBX 15 13 1 0
BITMAP
0010
7820
8820
8840
8080
8080
C53C
7A66
0242
0442
0442
0866
103C
ENDCHAR
STARTCHAR uni2106
ENCODING 8454
SWIDTH 1072 0
DWIDTH 19 0
BBX 18 13 1 0
BITMAP
001000
781000
C82000
884000
804000
808000
C53380
791180
021180
021180
041180
081980
080FC0
ENDCHAR
STARTCHAR uni2107
ENCODING 8455
SWIDTH 612 0
DWIDTH 11 0
BBX 10 13 0 0
BITMAP
1F40
30C0
6040
6040
6000
3000
0E00
7000
6000
E000
6040
70C0
1F00
ENDCHAR
STARTCHAR uni2108
ENCODING 8456
SWIDTH 669 0
DWIDTH 12 0
BBX 10 12 1 0
BITMAP
BE00
C380
8080
80C0
08C0
0FC0
08C0
08C0
00C0
8180
C300
3E00
ENDCHAR
STARTCHAR uni2109
ENCODING 8457
SWIDTH 949 0
DWIDTH 17 0
BBX 16 13 1 0
BITMAP
7000
8BFF
88C1
88C1
88C4
70C4
00FC
00C4
00C0
00C0
00C0
00C0
03E0
ENDCHAR
STARTCHAR uni210A
ENCODING 8458
SWIDTH 657 0
DWIDTH 12 0
BBX 12 13 -1 -4
BITMAP
01E0
0260
0460
0C40
0840
18D0
28E0
C940
0EC0
10C0
2180
2300
1E00
ENDCHAR
STARTCHAR uni210B
ENCODING 8459
SWIDTH 951 0
DWIDTH 17 0
BBX 18 12 0 0
BITMAP
07C1C0
198680
210400
210800
030800
03F800
021800
021000
021000
041000
C81200
701C00
ENDCHAR
STARTCHAR uni210C
ENCODING 8460
SWIDTH 728 0
DWIDTH 13 0
BBX 11 16 1 -4
BITMAP
0880
1F00
2E00
2000
6180
77C0
38E0
3860
1C60
0860
6860
F060
2040
1C80
3F00
2600
ENDCHAR
STARTCHAR uni210D
ENCODING 8461
SWIDTH 715 0
DWIDTH 13 0
BBX 11 12 1 0
BITMAP
E0E0
A0A0
A0A0
A0A0
A0A0
A0A0
BF20
A0A0
A0A0
A0A0
A0A0
E0E0
ENDCHAR
STARTCHAR uni210E
ENCODING 8462
SWIDTH 569 0
DWIDTH 10 0
BBX 9 13 1 0
BITMAP
7000
3000
2000
2000
2700
6B00
7300
5300
6300
4200
C200
C680
8700
ENDCHAR
STARTCHAR uni210F
ENCODING 8463
SWIDTH 569 0
DWIDTH 10 0
BBX 9 13 1 0
BITMAP
7000
3000
2E00
7000
A700
6B00
7300
5300
6300
4200
C200
C680
8700
ENDCHAR
STARTCHAR uni2110
ENCODING 8464
SWIDTH 496 0
DWIDTH 9 0
BBX 9 12 0 0
BITMAP
0F80
1100
2100
2300
2300
0200
0200
0200
0600
0400
C800
7000
ENDCHAR
STARTCHAR uni2111
ENCODING 8465
SWIDTH 673 0
DWIDTH 12 0
BBX 10 13 1 -1
BITMAP
3800
7E40
47C0
C380
C1C0
4340
3300
0180
0180
60C0
B0C0
3980
1F00
ENDCHAR
STARTCHAR uni2112
ENCODING 8466
SWIDTH 699 0
DWIDTH 13 0
BBX 11 12 0 0
BITMAP
03C0
0660
0C40
0C00
0800
0800
1800
1000
3020
7020
DC40
87C0
ENDCHAR
STARTCHAR uni2113
ENCODING 8467
SWIDTH 529 0
DWIDTH 10 0
BBX 9 12 0 0
BITMAP
0380
0480
0C80
0880
1900
1600
3800
E000
2200
6200
6400
3800
ENDCHAR
STARTCHAR uni2114
ENCODING 8468
SWIDTH 787 0
DWIDTH 14 0
BBX 14 13 0 0
BITMAP
E700
2300
FFE0
2300
2370
2398
2308
230C
230C
2308
2308
2318
79E0
ENDCHAR
STARTCHAR uni2115
ENCODING 8469
SWIDTH 692 0
DWIDTH 12 0
BBX 10 12 1 0
BITMAP
E040
9040
D040
C840
A440
9240
8A40
8940
84C0
8240
8140
81C0
ENDCHAR
STARTCHAR uni2116
ENCODING 8470
SWIDTH 1070 0
DWIDTH 19 0
BBX 19 12 0 0
BITMAP
380E00
0C1600
0E1000
0E13C0
0B1640
099460
099660
08D640
0873C0
907000
D03000
E017C0
ENDCHAR
STARTCHAR uni2117
ENCODING 8471
SWIDTH 781 0
DWIDTH 14 0
BBX 12 13 1 0
BITMAP
0F80
30C0
4020
9F10
8990
8890
8990
8F10
8810
9C10
4020
30C0
0F80
ENDCHAR
STARTCHAR uni2118
ENCODING 8472
SWIDTH 846 0
DWIDTH 15 0
BBX 14 14 1 -4
BITMAP
1E00
70F8
438C
C70C
CC0C
D808
5818
3198
6D30
65E0
4400
4C00
4800
7000
ENDCHAR
STARTCHAR uni2119
ENCODING 8473
SWIDTH 665 0
DWIDTH 12 0
BBX 10 12 1 0
BITMAP
FF00
A180
A140
A140
A140
A140
A180
BF00
A000
A000
A000
E000
ENDCHAR
STARTCHAR uni211A
ENCODING 8474
SWIDTH 751 0
DWIDTH 14 0
BBX 12 13 1 -1
BITMAP
1F00
20C0
6060
A060
A050
A050
A050
A050
A060
6060
2E40
1F80
0070
ENDCHAR
STARTCHAR uni211B
ENCODING 8475
SWIDTH 789 0
DWIDTH 14 0
BBX 13 13 0 0
BITMAP
0080
07E0
1938
3318
3318
2310
0220
03C0
06C0
06C0
0440
C868
F030
ENDCHAR
STARTCHAR uni211C
ENCODING 8476
SWIDTH 778 0
DWIDTH 14 0
BBX 12 12 1 0
BITMAP
79C0
DAE0
8C60
CC60
6CC0
2D80
6EC0
8CC0
08C0
48C0
70F0
F060
ENDCHAR
STARTCHAR uni211D
ENCODING 8477
SWIDTH 729 0
DWIDTH 13 0
BBX 12 12 1 0
BITMAP
FF00
A1C0
A140
A140
A140
A1C0
BF00
A480
A280
A240
A120
E0F0
ENDCHAR
STARTCHAR uni211E
ENCODING 8478
SWIDTH 725 0
DWIDTH 13 0
BBX 11 13 1 -1
BITMAP
FE00
6380
6180
6180
6180
6300
7C00
6620
6340
6180
61C0
FAE0
0400
ENDCHAR
STARTCHAR uni211F
ENCODING 8479
SWIDTH 659 0
DWIDTH 12 0
BBX 11 19 1 -4
BITMAP
0E00
0A00
0200
FE00
6300
6580
6580
6580
6B00
7C00
7600
7300
6300
6180
F8E0
4000
4000
4800
3800
ENDCHAR
STARTCHAR uni2120
ENCODING 8480
SWIDTH 937 0
DWIDTH 17 0
BBX 15 8 1 4
BITMAP
7306
918C
898C
C294
32D4
9A64
8A64
F32E
ENDCHAR
STARTCHAR uni2121
ENCODING 8481
SWIDTH 1200 0
DWIDTH 22 0
BBX 21 8 0 4
BITMAP
FEFDC0
924480
924480
104880
107880
104088
104488
38FDF8
ENDCHAR
STARTCHAR trademark
ENCODING 8482
SWIDTH 881 0
DWIDTH 16 0
BBX 15 6 0 5
BITMAP
FD86
92CE
10CE
10F6
10B6
39A6
ENDCHAR
STARTCHAR uni2123
ENCODING 8483
SWIDTH 680 0
DWIDTH 12 0
BBX 12 19 0 -4
BITMAP
0700
0500
0100
F970
6120
3220
3240
1240
1C80
1C80
0D00
0D00
1700
1600
2200
2000
2000
2400
1C00
ENDCHAR
STARTCHAR uni2124
ENCODING 8484
SWIDTH 648 0
DWIDTH 12 0
BBX 11 12 0 0
BITMAP
7FE0
0120
0140
0280
0480
0900
0A00
1200
2400
4800
5000
FFE0
ENDCHAR
STARTCHAR uni2125
ENCODING 8485
SWIDTH 434 0
DWIDTH 8 0
BBX 6 16 1 -4
BITMAP
FC
98
20
FC
18
30
60
18
0C
0C
04
0C
0C
0C
98
F0
ENDCHAR
STARTCHAR uni2126
ENCODING 8486
SWIDTH 763 0
DWIDTH 14 0
BBX 12 12 1 0
BITMAP
1F80
30C0
6060
C060
C030
C030
C070
6060
60C0
9990
F9F0
F9F0
ENDCHAR
STARTCHAR uni2127
ENCODING 8487
SWIDTH 763 0
DWIDTH 14 0
BBX 12 12 1 0
BITMAP
F9F0
F9F0
8910
30C0
6060
C070
C030
C030
C060
6060
30C0
1F80
ENDCHAR
STARTCHAR uni2128
ENCODING 8488
SWIDTH 641 0
DWIDTH 12 0
BBX 10 16 1 -4
BITMAP
1E00
2380
4180
4180
0180
0180
1300
0E00
1180
2180
00C0
00C0
60C0
B080
3180
1E00
ENDCHAR
STARTCHAR uni2129
ENCODING 8489
SWIDTH 368 0
DWIDTH 7 0
BBX 4 8 1 1
BITMAP
E0
B0
30
30
30
30
30
30
ENDCHAR
STARTCHAR uni212A
ENCODING 8490
SWIDTH 702 0
DWIDTH 13 0
BBX 12 12 1 0
BITMAP
FBE0
6180
6100
6200
6400
6800
7800
6E00
6700
6380
61C0
FBF0
ENDCHAR
STARTCHAR uni212B
ENCODING 8491
SWIDTH 722 0
DWIDTH 13 0
BBX 13 15 0 0
BITMAP
0700
0500
0500
0700
0600
0700
0500
0980
0980
10C0
1FC0
2060
2060
6070
F0F8
ENDCHAR
STARTCHAR uni212C
ENCODING 8492
SWIDTH 754 0
DWIDTH 14 0
BBX 12 13 1 0
BITMAP
0200
0FE0
3630
6630
4620
4440
07C0
0C60
0820
0820
1060
20C0
FF00
ENDCHAR
STARTCHAR uni212D
ENCODING 8493
SWIDTH 639 0
DWIDTH 12 0
BBX 10 12 1 0
BITMAP
3B40
6780
C800
C800
CC00
C600
C600
C300
E200
6E80
7F00
1E00
ENDCHAR
STARTCHAR estimated
ENCODING 8494
SWIDTH 863 0
DWIDTH 16 0
BBX 14 13 1 -1
BITMAP
0F80
3060
6010
C018
C018
C01C
FFFC
C000
C000
C000
6018
3060
0FC0
ENDCHAR
STARTCHAR uni212F
ENCODING 8495
SWIDTH 527 0
DWIDTH 9 0
BBX 9 9 0 0
BITMAP
0700
1900
1100
3200
2C00
3000
E180
2200
3C00
ENDCHAR
STARTCHAR uni2130
ENCODING 8496
SWIDTH 572 0
DWIDTH 10 0
BBX 9 12 1 0
BITMAP
1F00
3180
2180
2000
1000
1E00
6000
C000
8000
8100
C200
7C00
ENDCHAR
STARTCHAR uni2131
ENCODING 8497
SWIDTH 713 0
DWIDTH 13 0
BBX 14 13 0 0
BITMAP
0040
07C4
19B8
3180
3100
0100
0FE0
0300
0300
0200
0400
CC00
7000
ENDCHAR
STARTCHAR uni2132
ENCODING 8498
SWIDTH 588 0
DWIDTH 11 0
BBX 10 12 0 0
BITMAP
07C0
0300
0100
0100
2100
2100
3F00
2100
0100
8100
8100
FFC0
ENDCHAR
STARTCHAR uni2133
ENCODING 8499
SWIDTH 1038 0
DWIDTH 19 0
BBX 19 12 0 0
BITMAP
1E00E0
2703A0
230500
058B00
058B00
049200
04A200
04A600
08C600
08C600
908680
E08700
ENDCHAR
STARTCHAR uni2134
ENCODING 8500
SWIDTH 691 0
DWIDTH 12 0
BBX 14 9 -1 0
BITMAP
01C0
0260
0464
0C78
1C20
3860
6C40
8CC0
0700
ENDCHAR
STARTCHAR uni2135
ENCODING 8501
SWIDTH 698 0
DWIDTH 13 0
BBX 11 13 1 0
BITMAP
8100
8180
C1C0
E0C0
70E0
38A0
5C80
C700
C380
61C0
30C0
3060
E020
ENDCHAR
STARTCHAR uni2136
ENCODING 8502
SWIDTH 654 0
DWIDTH 12 0
BBX 10 13 1 0
BITMAP
4000
C000
FF00
7F80
0180
0180
0080
0080
0080
0100
0100
7FC0
FF80
ENDCHAR
STARTCHAR uni2137
ENCODING 8503
SWIDTH 517 0
DWIDTH 9 0
BBX 8 13 1 0
BITMAP
20
60
7C
3C
04
04
04
04
04
0E
1E
73
E2
ENDCHAR
STARTCHAR uni2138
ENCODING 8504
SWIDTH 613 0
DWIDTH 11 0
BBX 8 13 1 0
BITMAP
80
80
FF
7F
01
02
02
06
06
06
03
03
06
ENDCHAR
STARTCHAR uni2139
ENCODING 8505
SWIDTH 361 0
DWIDTH 7 0
BBX 6 13 0 0
BITMAP
38
78
38
00
F8
38
38
38
38
38
38
38
FC
ENDCHAR
STARTCHAR uni213A
ENCODING 8506
SWIDTH 907 0
DWIDTH 16 0
BBX 15 12 1 0
BITMAP
0F02
3FC2
6062
C036
801C
801C
8010
8010
C030
6060
3FC0
1F80
ENDCHAR
STARTCHAR uni213B
ENCODING 8507
SWIDTH 1216 0
DWIDTH 22 0
BBX 21 8 1 4
BITMAP
FC4738
44C320
44E120
4960C0
7920C0
4BF160
421230
E73F78
ENDCHAR
STARTCHAR uni213C
ENCODING 8508
SWIDTH 689 0
DWIDTH 12 0
BBX 12 9 0 0
BITMAP
FFE0
2A80
2A80
2A80
2A80
2A80
2A80
2B90
39E0
ENDCHAR
STARTCHAR uni213D
ENCODING 8509
SWIDTH 552 0
DWIDTH 10 0
BBX 10 13 0 -4
BITMAP
2040
F080
5080
2900
1600
1600
0A00
0A00
0D00
0D00
1500
0D00
0E00
ENDCHAR
STARTCHAR uni213E
ENCODING 8510
SWIDTH 550 0
DWIDTH 10 0
BBX 9 12 1 0
BITMAP
FF80
A000
A000
A000
A000
A000
A000
A000
A000
A000
A000
E000
ENDCHAR
STARTCHAR uni213F
ENCODING 8511
SWIDTH 714 0
DWIDTH 13 0
BBX 11 12 1 0
BITMAP
FFE0
A0A0
A0A0
A0A0
A0A0
A0A0
A0A0
A0A0
A0A0
A0A0
A0A0
E0E0
ENDCHAR
STARTCHAR uni2140
ENCODING 8512
SWIDTH 945 0
DWIDTH 17 0
BBX 15 19 1 -5
BITMAP
FFF8
C800
4400
2600
2200
1100
1900
0880
04C0
0640
0440
0880
0980
1100
3200
2600
4400
C800
FFFE
ENDCHAR
STARTCHAR uni2141
ENCODING 8513
SWIDTH 711 0
DWIDTH 13 0
BBX 11 12 1 0
BITMAP
3F00
E180
C0C0
C060
C060
F020
0020
0020
8060
C0C0
6180
3F00
ENDCHAR
STARTCHAR uni2142
ENCODING 8514
SWIDTH 572 0
DWIDTH 10 0
BBX 9 12 0 0
BITMAP
FF80
0180
0180
0180
0180
0180
0180
0180
0180
0180
0180
0180
ENDCHAR
STARTCHAR uni2143
ENCODING 8515
SWIDTH 572 0
DWIDTH 10 0
BBX 9 12 0 0
BITMAP
0180
0180
0180
0180
0180
0180
0180
0180
0180
0180
0180
FF80
ENDCHAR
STARTCHAR uni2144
ENCODING 8516
SWIDTH 645 0
DWIDTH 12 0
BBX 11 12 0 0
BITMAP
0600
0600
0600
0600
0600
0600
0E00
1B00
1980
3080
60C0
C060
ENDCHAR
STARTCHAR uni2145
ENCODING 8517
SWIDTH 717 0
DWIDTH 13 0
BBX 12 12 0 0
BITMAP
1FC0
2420
2830
2830
2850
2850
5050
5050
50A0
50A0
90C0
FF00
ENDCHAR
STARTCHAR uni2146
ENCODING 8518
SWIDTH 607 0
DWIDTH 11 0
BBX 11 13 0 0
BITMAP
00E0
00A0
00A0
00A0
1D20
3340
5140
5140
9140
A240
6280
6680
3B80
ENDCHAR
STARTCHAR uni2147
ENCODING 8519
SWIDTH 520 0
DWIDTH 9 0
BBX 9 9 0 0
BITMAP
1E00
3300
5280
5280
9F80
A000
6100
6200
3C00
ENDCHAR
STARTCHAR uni2148
ENCODING 8520
SWIDTH 285 0
DWIDTH 5 0
BBX 5 13 0 0
BITMAP
18
28
38
00
00
38
50
50
50
50
50
A0
E0
ENDCHAR
STARTCHAR uni2149
ENCODING 8521
SWIDTH 284 0
DWIDTH 5 0
BBX 8 16 -3 -4
BITMAP
03
07
00
00
07
0A
0A
0A
0A
0A
14
14
14
14
18
F0
ENDCHAR
STARTCHAR uni214A
ENCODING 8522
SWIDTH 680 0
DWIDTH 12 0
BBX 10 13 1 0
BITMAP
1000
1000
1000
FF80
90C0
9040
9040
10C0
1F80
1000
1000
1000
1F80
ENDCHAR
STARTCHAR uni214B
ENCODING 8523
SWIDTH 736 0
DWIDTH 13 0
BBX 12 12 1 0
BITMAP
73E0
9C30
0C30
1630
1220
2340
2180
F380
0480
08C0
0C80
0780
ENDCHAR
STARTCHAR uni214C
ENCODING 8524
SWIDTH 794 0
DWIDTH 14 0
BBX 14 12 0 0
BITMAP
78F0
4918
8A0C
1F0C
2AD8
4A38
2A70
1F90
0910
0900
0A00
0E00
ENDCHAR
STARTCHAR uni214D
ENCODING 8525
SWIDTH 1010 0
DWIDTH 18 0
BBX 18 13 0 0
BITMAP
000200
080400
180400
1C0800
241000
241000
3E2780
422480
E74400
008300
008880
010CC0
020F80
ENDCHAR
STARTCHAR uni214E
ENCODING 8526
SWIDTH 473 0
DWIDTH 9 0
BBX 6 9 1 0
BITMAP
0C
0C
0C
0C
7C
0C
0C
0C
FC
ENDCHAR
STARTCHAR uni214F
ENCODING 8527
SWIDTH 1161 0
DWIDTH 21 0
BBX 21 8 0 0
BITMAP
1C7180
169240
229240
129240
12D240
1C73C0
0C6180
FFFFF8
ENDCHAR
STARTCHAR onethird
ENCODING 8531
SWIDTH 899 0
DWIDTH 16 0
BBX 14 13 1 0
BITMAP
0020
E040
6040
6080
6100
613C
6244
F204
0438
0804
0804
1004
3078
ENDCHAR
STARTCHAR twothirds
ENCODING 8532
SWIDTH 948 0
DWIDTH 17 0
BBX 15 13 1 0
BITMAP
0010
7020
9840
1840
1080
209C
4922
FA04
021C
0402
0402
0802
183C
ENDCHAR
STARTCHAR uni2155
ENCODING 8533
SWIDTH 867 0
DWIDTH 16 0
BBX 14 13 1 0
BITMAP
0020
E040
6040
6080
6100
613C
6240
F240
0478
0804
0804
1004
3078
ENDCHAR
STARTCHAR uni2156
ENCODING 8534
SWIDTH 916 0
DWIDTH 16 0
BBX 15 13 1 0
BITMAP
0010
F020
9840
1840
1080
249E
4920
FA20
023C
0406
0402
0802
183C
ENDCHAR
STARTCHAR uni2157
ENCODING 8535
SWIDTH 896 0
DWIDTH 16 0
BBX 14 13 1 0
BITMAP
0020
F020
9840
1080
7080
093C
8920
F220
0438
0404
0804
0804
1078
ENDCHAR
STARTCHAR uni2158
ENCODING 8536
SWIDTH 929 0
DWIDTH 17 0
BBX 15 13 1 0
BITMAP
0010
1020
3020
5040
9080
FC9E
1110
1120
023C
0402
0402
0802
183C
ENDCHAR
STARTCHAR uni2159
ENCODING 8537
SWIDTH 871 0
DWIDTH 16 0
BBX 14 13 1 0
BITMAP
0020
E040
6040
6080
6100
611C
6260
F278
04CC
08C4
08C4
1044
3038
ENDCHAR
STARTCHAR uni215A
ENCODING 8538
SWIDTH 871 0
DWIDTH 16 0
BBX 15 13 0 0
BITMAP
0010
3820
4020
7040
0C86
0498
C920
713C
0266
0462
0462
0822
181C
ENDCHAR
STARTCHAR oneeighth
ENCODING 8539
SWIDTH 887 0
DWIDTH 16 0
BBX 14 13 1 0
BITMAP
0020
E040
6040
6080
6100
6138
6244
F264
0438
082C
0844
1044
303C
ENDCHAR
STARTCHAR threeeighths
ENCODING 8540
SWIDTH 911 0
DWIDTH 16 0
BBX 15 13 1 0
BITMAP
0020
F020
9840
1080
7080
1938
8964
F224
0418
042C
0846
0846
103C
ENDCHAR
STARTCHAR fiveeighths
ENCODING 8541
SWIDTH 891 0
DWIDTH 16 0
BBX 15 13 0 0
BITMAP
0010
3820
4020
7040
0880
049C
4922
F132
021C
0416
0422
0822
181E
ENDCHAR
STARTCHAR seveneighths
ENCODING 8542
SWIDTH 847 0
DWIDTH 15 0
BBX 14 13 0 0
BITMAP
0020
7C40
8840
0880
1100
1138
2244
2244
4438
042C
0844
1044
303C
ENDCHAR
STARTCHAR uni2190
ENCODING 8592
SWIDTH 948 0
DWIDTH 17 0
BBX 15 7 1 1
BITMAP
0800
1000
2000
FFFE
2000
1000
0800
ENDCHAR
STARTCHAR uni2191
ENCODING 8593
SWIDTH 523 0
DWIDTH 9 0
BBX 7 15 1 -3
BITMAP
10
18
38
54
92
10
10
10
10
10
10
10
10
10
10
ENDCHAR
STARTCHAR uni2192
ENCODING 8594
SWIDTH 948 0
DWIDTH 17 0
BBX 15 7 1 1
BITMAP
0020
0010
0008
FFFE
0008
0010
0020
ENDCHAR
STARTCHAR uni2193
ENCODING 8595
SWIDTH 523 0
DWIDTH 9 0
BBX 7 15 1 -3
BITMAP
10
10
10
10
10
10
10
10
10
10
92
54
38
18
10
ENDCHAR
STARTCHAR uni2194
ENCODING 8596
SWIDTH 948 0
DWIDTH 17 0
BBX 15 7 1 1
BITMAP
1010
1010
600C
FFFE
600C
2008
1010
ENDCHAR
STARTCHAR uni2195
ENCODING 8597
SWIDTH 523 0
DWIDTH 9 0
BBX 7 18 1 -4
BITMAP
10
10
38
3C
D2
10
10
10
10
10
10
10
10
92
54
38
18
10
ENDCHAR
STARTCHAR uni2196
ENCODING 8598
SWIDTH 948 0
DWIDTH 17 0
BBX 15 16 1 -3
BITMAP
8000
7C00
6000
7000
5800
4C00
0600
0300
0180
00C0
0060
0020
0010
0008
0006
0004
ENDCHAR
STARTCHAR uni2197
ENCODING 8599
SWIDTH 948 0
DWIDTH 17 0
BBX 15 16 1 -3
BITMAP
0002
007C
000C
001C
0034
0064
00C0
0180
0300
0600
0400
0800
1000
2000
C000
4000
ENDCHAR
STARTCHAR uni2198
ENCODING 8600
SWIDTH 948 0
DWIDTH 17 0
BBX 15 15 1 -3
BITMAP
C000
6000
3000
1800
0C00
0600
0300
0180
00C0
0044
0024
0014
000C
007C
0002
ENDCHAR
STARTCHAR uni2199
ENCODING 8601
SWIDTH 948 0
DWIDTH 17 0
BBX 15 15 1 -3
BITMAP
0006
000C
0018
0030
0060
00C0
0180
0300
0200
4400
4800
5000
6000
7C00
8000
ENDCHAR
STARTCHAR uni219A
ENCODING 8602
SWIDTH 948 0
DWIDTH 17 0
BBX 15 7 1 1
BITMAP
0830
1020
2040
FFFE
2080
1080
0900
ENDCHAR
STARTCHAR uni219B
ENCODING 8603
SWIDTH 948 0
DWIDTH 17 0
BBX 15 7 1 1
BITMAP
0120
0210
0208
FFFE
0408
0810
1820
ENDCHAR
STARTCHAR uni219C
ENCODING 8604
SWIDTH 948 0
DWIDTH 17 0
BBX 15 6 1 2
BITMAP
FC00
6000
507C
4F86
4000
2000
ENDCHAR
STARTCHAR uni219D
ENCODING 8605
SWIDTH 948 0
DWIDTH 17 0
BBX 15 6 1 2
BITMAP
007E
000C
3C14
C3E4
0004
0008
ENDCHAR
STARTCHAR uni219E
ENCODING 8606
SWIDTH 948 0
DWIDTH 17 0
BBX 15 7 1 1
BITMAP
0880
1100
2200
FFFE
2200
1100
0880
ENDCHAR
STARTCHAR uni219F
ENCODING 8607
SWIDTH 523 0
DWIDTH 9 0
BBX 7 15 1 -3
BITMAP
10
18
38
54
92
18
38
54
92
10
10
10
10
10
10
ENDCHAR
STARTCHAR uni21A0
ENCODING 8608
SWIDTH 948 0
DWIDTH 17 0
BBX 15 7 1 1
BITMAP
0220
0110
0088
FFFE
0088
0110
0220
ENDCHAR
STARTCHAR uni21A1
ENCODING 8609
SWIDTH 523 0
DWIDTH 9 0
BBX 7 15 1 -3
BITMAP
10
10
10
10
10
10
92
54
38
18
92
54
38
18
10
ENDCHAR
STARTCHAR uni21A2
ENCODING 8610
SWIDTH 948 0
DWIDTH 17 0
BBX 15 7 1 1
BITMAP
0802
1004
2008
FFF8
2008
1004
0802
ENDCHAR
STARTCHAR uni21A3
ENCODING 8611
SWIDTH 948 0
DWIDTH 17 0
BBX 15 7 1 1
BITMAP
8020
4010
2008
3FFE
2008
4010
8020
ENDCHAR
STARTCHAR uni21A4
ENCODING 8612
SWIDTH 948 0
DWIDTH 17 0
BBX 15 7 1 1
BITMAP
0802
1002
2002
FFFE
2002
1002
0802
ENDCHAR
STARTCHAR uni21A5
ENCODING 8613
SWIDTH 523 0
DWIDTH 9 0
BBX 7 15 1 -3
BITMAP
10
18
38
54
92
10
10
10
10
10
10
10
10
10
FE
ENDCHAR
STARTCHAR uni21A6
ENCODING 8614
SWIDTH 948 0
DWIDTH 17 0
BBX 15 7 1 1
BITMAP
8020
8010
8008
FFFE
8008
8010
8020
ENDCHAR
STARTCHAR uni21A7
ENCODING 8615
SWIDTH 523 0
DWIDTH 9 0
BBX 7 15 1 -3
BITMAP
FE
10
10
10
10
10
10
10
10
10
92
54
38
18
10
ENDCHAR
STARTCHAR uni21A8
ENCODING 8616
SWIDTH 523 0
DWIDTH 9 0
BBX 7 15 1 -3
BITMAP
10
18
38
54
92
10
10
10
10
92
54
38
18
10
FE
ENDCHAR
STARTCHAR uni21A9
ENCODING 8617
SWIDTH 948 0
DWIDTH 17 0
BBX 15 9 1 1
BITMAP
0038
0004
0806
1002
2004
FFFC
2000
1000
0800
ENDCHAR
STARTCHAR uni21AA
ENCODING 8618
SWIDTH 948 0
DWIDTH 17 0
BBX 15 9 1 1
BITMAP
3800
4000
C020
C010
4008
7FFE
0008
0010
0020
ENDCHAR
STARTCHAR uni21AB
ENCODING 8619
SWIDTH 948 0
DWIDTH 17 0
BBX 15 10 1 0
BITMAP
0038
0064
0846
1042
2044
FFFC
2040
1040
0840
0040
ENDCHAR
STARTCHAR uni21AC
ENCODING 8620
SWIDTH 948 0
DWIDTH 17 0
BBX 15 10 1 0
BITMAP
3800
4C00
C420
C410
4408
7FFE
0408
0410
0420
0400
ENDCHAR
STARTCHAR uni21AD
ENCODING 8621
SWIDTH 1229 0
DWIDTH 22 0
BBX 20 7 1 1
BITMAP
080100
106080
209060
FC91F0
249260
130C80
080100
ENDCHAR
STARTCHAR uni21AE
ENCODING 8622
SWIDTH 948 0
DWIDTH 17 0
BBX 15 7 1 1
BITMAP
10D0
2088
610C
FFFE
610C
2208
1210
ENDCHAR
STARTCHAR uni21AF
ENCODING 8623
SWIDTH 523 0
DWIDTH 9 0
BBX 7 14 1 -2
BITMAP
02
04
0C
18
30
60
FE
04
0C
98
90
60
7C
E0
ENDCHAR
STARTCHAR uni21B0
ENCODING 8624
SWIDTH 474 0
DWIDTH 9 0
BBX 7 15 1 -3
BITMAP
10
10
60
FE
62
22
12
02
02
02
02
02
02
02
02
ENDCHAR
STARTCHAR uni21B1
ENCODING 8625
SWIDTH 474 0
DWIDTH 9 0
BBX 7 15 1 -3
BITMAP
20
10
08
FE
88
90
A0
80
80
80
80
80
80
80
80
ENDCHAR
STARTCHAR uni21B2
ENCODING 8626
SWIDTH 474 0
DWIDTH 9 0
BBX 8 15 0 -3
BITMAP
03
03
03
03
03
03
03
03
0B
0B
33
FF
30
10
08
ENDCHAR
STARTCHAR uni21B3
ENCODING 8627
SWIDTH 474 0
DWIDTH 9 0
BBX 7 15 1 -3
BITMAP
80
80
80
80
80
80
80
80
A0
90
88
FE
08
10
20
ENDCHAR
STARTCHAR uni21B4
ENCODING 8628
SWIDTH 948 0
DWIDTH 17 0
BBX 15 15 1 -3
BITMAP
FFF0
0010
0010
0010
0010
0010
0010
0010
0010
0010
0112
0094
0078
0030
0010
ENDCHAR
STARTCHAR uni21B5
ENCODING 8629
SWIDTH 948 0
DWIDTH 17 0
BBX 15 15 1 -3
BITMAP
0002
0002
0002
0002
0002
0002
0002
0002
0802
1002
2002
FFFE
2000
1000
0800
ENDCHAR
STARTCHAR uni21B6
ENCODING 8630
SWIDTH 948 0
DWIDTH 17 0
BBX 15 9 1 1
BITMAP
03E0
0618
0804
1006
1002
9602
7800
3000
1000
ENDCHAR
STARTCHAR uni21B7
ENCODING 8631
SWIDTH 948 0
DWIDTH 17 0
BBX 15 9 1 1
BITMAP
0F80
30C0
4020
C010
8010
80D2
003C
0018
0010
ENDCHAR
STARTCHAR uni21B8
ENCODING 8632
SWIDTH 948 0
DWIDTH 17 0
BBX 15 17 1 -4
BITMAP
FFFE
8000
FC00
6000
7000
5800
4C00
0600
0300
0180
00C0
0060
0030
0018
000C
0006
0002
ENDCHAR
STARTCHAR uni21B9
ENCODING 8633
SWIDTH 948 0
DWIDTH 17 0
BBX 15 13 1 -2
BITMAP
8400
8800
9000
FFFE
9000
8800
8442
0022
0012
FFFE
001A
0022
0062
ENDCHAR
STARTCHAR uni21BA
ENCODING 8634
SWIDTH 997 0
DWIDTH 18 0
BBX 14 15 2 -2
BITMAP
0008
00F0
18E0
3070
6058
4048
C02C
8004
8004
800C
4008
4008
2010
1860
0FC0
ENDCHAR
STARTCHAR uni21BB
ENCODING 8635
SWIDTH 997 0
DWIDTH 18 0
BBX 14 15 2 -2
BITMAP
4000
3C00
1C60
2830
6818
5008
D00C
8004
8004
800C
4008
4008
2010
1860
0FC0
ENDCHAR
STARTCHAR uni21BC
ENCODING 8636
SWIDTH 978 0
DWIDTH 18 0
BBX 16 5 1 4
BITMAP
0400
0800
1000
3000
FFFF
ENDCHAR
STARTCHAR uni21BD
ENCODING 8637
SWIDTH 978 0
DWIDTH 18 0
BBX 16 5 1 0
BITMAP
FFFF
3000
1000
0800
0400
ENDCHAR
STARTCHAR uni21BE
ENCODING 8638
SWIDTH 523 0
DWIDTH 9 0
BBX 4 15 4 -3
BITMAP
80
80
C0
A0
90
80
80
80
80
80
80
80
80
80
80
ENDCHAR
STARTCHAR uni21BF
ENCODING 8639
SWIDTH 523 0
DWIDTH 9 0
BBX 4 15 1 -3
BITMAP
10
10
30
50
90
10
10
10
10
10
10
10
10
10
10
ENDCHAR
STARTCHAR uni21C0
ENCODING 8640
SWIDTH 978 0
DWIDTH 18 0
BBX 16 5 1 4
BITMAP
0020
0020
0010
000C
FFFF
ENDCHAR
STARTCHAR uni21C1
ENCODING 8641
SWIDTH 978 0
DWIDTH 18 0
BBX 16 5 1 0
BITMAP
FFFF
000C
0008
0010
0020
ENDCHAR
STARTCHAR uni21C2
ENCODING 8642
SWIDTH 523 0
DWIDTH 9 0
BBX 4 15 4 -3
BITMAP
80
80
80
80
80
80
80
80
80
80
90
A0
C0
80
80
ENDCHAR
STARTCHAR uni21C3
ENCODING 8643
SWIDTH 523 0
DWIDTH 9 0
BBX 4 15 1 -3
BITMAP
10
10
10
10
10
10
10
10
10
10
90
50
30
10
10
ENDCHAR
STARTCHAR uni21C4
ENCODING 8644
SWIDTH 948 0
DWIDTH 17 0
BBX 15 13 1 -2
BITMAP
0020
0010
0008
FFFE
0008
0010
0820
1000
2000
FFFE
2000
1000
0800
ENDCHAR
STARTCHAR uni21C5
ENCODING 8645
SWIDTH 791 0
DWIDTH 14 0
BBX 13 15 1 -3
BITMAP
10C0
30C0
78C0
54C0
92C0
10C0
10C0
10C0
10C0
10C0
14C8
12D0
11E0
10C0
1040
ENDCHAR
STARTCHAR uni21C6
ENCODING 8646
SWIDTH 948 0
DWIDTH 17 0
BBX 15 13 1 -2
BITMAP
0800
1000
2000
FFFE
2000
1000
0820
0010
0008
FFFE
0008
0010
0020
ENDCHAR
STARTCHAR uni21C7
ENCODING 8647
SWIDTH 948 0
DWIDTH 17 0
BBX 15 13 1 -2
BITMAP
0800
1000
2000
FFFE
2000
1000
0800
1000
2000
FFFE
2000
1000
0800
ENDCHAR
STARTCHAR uni21C8
ENCODING 8648
SWIDTH 791 0
DWIDTH 14 0
BBX 12 15 1 -3
BITMAP
1040
30C0
39E0
56D0
92D0
10C0
10C0
10C0
10C0
10C0
10C0
10C0
10C0
10C0
10C0
ENDCHAR
STARTCHAR uni21C9
ENCODING 8649
SWIDTH 948 0
DWIDTH 17 0
BBX 15 13 1 -2
BITMAP
0020
0010
0008
FFFE
0008
0010
0020
0010
0008
FFFE
0008
0010
0020
ENDCHAR
STARTCHAR uni21CA
ENCODING 8650
SWIDTH 791 0
DWIDTH 14 0
BBX 12 15 1 -3
BITMAP
10C0
10C0
10C0
10C0
10C0
10C0
10C0
10C0
10C0
10C0
92D0
56D0
39E0
30C0
1040
ENDCHAR
STARTCHAR uni21CB
ENCODING 8651
SWIDTH 948 0
DWIDTH 17 0
BBX 15 11 1 -1
BITMAP
0800
1000
1000
7FFE
8000
0000
0000
FFFE
0008
0010
0020
ENDCHAR
STARTCHAR uni21CC
ENCODING 8652
SWIDTH 948 0
DWIDTH 17 0
BBX 15 11 1 -1
BITMAP
0020
0010
0010
FFFC
0002
0000
0000
FFFE
2000
1000
0800
ENDCHAR
STARTCHAR uni21CD
ENCODING 8653
SWIDTH 948 0
DWIDTH 17 0
BBX 15 11 1 -1
BITMAP
0204
0408
0808
1FFE
6010
C010
6020
3FFE
0840
0440
0280
ENDCHAR
STARTCHAR uni21CE
ENCODING 8654
SWIDTH 948 0
DWIDTH 17 0
BBX 17 10 0 -1
BITMAP
067000
084800
1FFC00
208200
C08180
608300
1FFC00
088800
051000
032000
ENDCHAR
STARTCHAR uni21CF
ENCODING 8655
SWIDTH 948 0
DWIDTH 17 0
BBX 15 11 1 -1
BITMAP
0280
0440
0420
FFF0
080C
1006
100C
FFF8
2020
2040
4080
ENDCHAR
STARTCHAR uni21D0
ENCODING 8656
SWIDTH 887 0
DWIDTH 16 0
BBX 15 11 1 -1
BITMAP
0200
0400
0800
1FFE
6000
C000
6000
3FFE
0800
0400
0200
ENDCHAR
STARTCHAR uni21D1
ENCODING 8657
SWIDTH 720 0
DWIDTH 13 0
BBX 11 15 1 -3
BITMAP
0400
0E00
1B00
1100
3180
5140
9120
1100
1100
1100
1100
1100
1100
1100
1100
ENDCHAR
STARTCHAR uni21D2
ENCODING 8658
SWIDTH 887 0
DWIDTH 16 0
BBX 15 11 0 -1
BITMAP
0080
0040
0020
FFF0
000C
0006
000C
FFF8
0060
0040
0080
ENDCHAR
STARTCHAR uni21D3
ENCODING 8659
SWIDTH 720 0
DWIDTH 13 0
BBX 11 15 1 -3
BITMAP
1100
1100
1100
1100
1100
1100
1100
1100
9120
71C0
3180
1100
0A00
0E00
0400
ENDCHAR
STARTCHAR uni21D4
ENCODING 8660
SWIDTH 948 0
DWIDTH 17 0
BBX 17 10 0 -1
BITMAP
063000
080800
1FFC00
200200
C00180
600300
1FFC00
080800
041000
022000
ENDCHAR
STARTCHAR uni21D5
ENCODING 8661
SWIDTH 720 0
DWIDTH 13 0
BBX 11 18 1 -4
BITMAP
0400
0E00
0A00
1100
3180
5140
9120
1100
1100
1100
1100
9120
5140
3180
1100
0A00
0E00
0400
ENDCHAR
STARTCHAR uni21D6
ENCODING 8662
SWIDTH 948 0
DWIDTH 17 0
BBX 15 15 1 -3
BITMAP
E000
FF80
8C00
C600
6300
7180
58C0
4C60
4630
0318
018C
00C6
0062
0030
0018
ENDCHAR
STARTCHAR uni21D7
ENCODING 8663
SWIDTH 948 0
DWIDTH 17 0
BBX 15 15 1 -3
BITMAP
000E
03FE
0062
00C2
0184
030C
0614
0C24
1844
3080
6100
C200
8400
0800
1000
ENDCHAR
STARTCHAR uni21D8
ENCODING 8664
SWIDTH 948 0
DWIDTH 17 0
BBX 15 15 1 -3
BITMAP
1000
0800
8400
C200
6100
3080
1844
0C24
0614
010C
0084
0042
0062
03FE
000E
ENDCHAR
STARTCHAR uni21D9
ENCODING 8665
SWIDTH 948 0
DWIDTH 17 0
BBX 15 15 1 -3
BITMAP
0018
0020
0042
0086
010C
0218
4430
4860
50C0
6180
4300
8600
8C00
FF80
E000
ENDCHAR
STARTCHAR uni21DA
ENCODING 8666
SWIDTH 872 0
DWIDTH 16 0
BBX 15 14 1 -2
BITMAP
0200
0400
0400
0FFE
1000
6000
FFFE
6000
2000
1000
0FFE
0400
0400
0200
ENDCHAR
STARTCHAR uni21DB
ENCODING 8667
SWIDTH 872 0
DWIDTH 16 0
BBX 15 14 0 -2
BITMAP
0080
0080
0040
FFE0
0010
0008
FFFE
000C
0008
0010
FFE0
0040
0080
0080
ENDCHAR
STARTCHAR uni21DC
ENCODING 8668
SWIDTH 948 0
DWIDTH 17 0
BBX 15 7 1 1
BITMAP
0800
1040
20C0
FDEE
2738
1210
0800
ENDCHAR
STARTCHAR uni21DD
ENCODING 8669
SWIDTH 948 0
DWIDTH 17 0
BBX 15 7 1 1
BITMAP
0020
0210
0608
EF7E
39C8
1090
0020
ENDCHAR
STARTCHAR uni21DE
ENCODING 8670
SWIDTH 523 0
DWIDTH 9 0
BBX 7 15 1 -3
BITMAP
10
18
38
54
92
10
10
10
FE
10
FE
10
10
10
10
ENDCHAR
STARTCHAR uni21DF
ENCODING 8671
SWIDTH 523 0
DWIDTH 9 0
BBX 7 15 1 -2
BITMAP
10
10
10
10
10
FE
10
FE
10
10
10
D2
3C
38
10
ENDCHAR
STARTCHAR uni21E0
ENCODING 8672
SWIDTH 948 0
DWIDTH 17 0
BBX 15 7 1 1
BITMAP
0800
1000
2000
FDB6
2000
1000
0800
ENDCHAR
STARTCHAR uni21E1
ENCODING 8673
SWIDTH 523 0
DWIDTH 9 0
BBX 7 15 1 -3
BITMAP
10
18
38
54
92
10
00
10
10
00
10
10
00
10
10
ENDCHAR
STARTCHAR uni21E2
ENCODING 8674
SWIDTH 948 0
DWIDTH 17 0
BBX 15 7 1 1
BITMAP
0020
0010
0008
DB7E
0008
0010
0020
ENDCHAR
STARTCHAR uni21E3
ENCODING 8675
SWIDTH 523 0
DWIDTH 9 0
BBX 7 14 1 -2
BITMAP
10
10
00
10
10
00
10
10
00
10
92
54
38
10
ENDCHAR
STARTCHAR uni21E4
ENCODING 8676
SWIDTH 948 0
DWIDTH 17 0
BBX 15 7 1 1
BITMAP
8400
8800
9000
FFFE
9000
8800
8400
ENDCHAR
STARTCHAR uni21E5
ENCODING 8677
SWIDTH 948 0
DWIDTH 17 0
BBX 15 7 1 1
BITMAP
0042
0022
0012
FFFE
001A
0022
0042
ENDCHAR
STARTCHAR uni21E6
ENCODING 8678
SWIDTH 948 0
DWIDTH 17 0
BBX 15 11 1 -1
BITMAP
0200
0600
0A00
13FE
6002
C002
6002
13FE
0A00
0600
0200
ENDCHAR
STARTCHAR uni21E7
ENCODING 8679
SWIDTH 720 0
DWIDTH 13 0
BBX 11 15 1 -3
BITMAP
0400
0E00
1B00
1100
2080
4040
F1E0
1100
1100
1100
1100
1100
1100
1100
1F00
ENDCHAR
STARTCHAR uni21E8
ENCODING 8680
SWIDTH 948 0
DWIDTH 17 0
BBX 15 11 1 -1
BITMAP
0080
00C0
00A0
FF90
800C
8006
800C
FF90
00A0
00C0
0080
ENDCHAR
STARTCHAR uni21E9
ENCODING 8681
SWIDTH 720 0
DWIDTH 13 0
BBX 11 15 1 -3
BITMAP
1F00
1100
1100
1100
1100
1100
1100
1100
F1E0
4040
2080
1100
0A00
0E00
0400
ENDCHAR
STARTCHAR uni21EA
ENCODING 8682
SWIDTH 720 0
DWIDTH 13 0
BBX 11 16 1 -3
BITMAP
0400
0E00
1B00
1100
2080
4040
F1E0
1100
1100
1100
1100
1F00
0000
1F00
1100
1F00
ENDCHAR
STARTCHAR uni21F4
ENCODING 8692
SWIDTH 948 0
DWIDTH 17 0
BBX 15 8 1 1
BITMAP
0020
0720
0910
0888
FFFE
0888
0F10
0020
ENDCHAR
STARTCHAR uni21F5
ENCODING 8693
SWIDTH 791 0
DWIDTH 14 0
BBX 13 15 1 -3
BITMAP
1040
10C0
11E0
12D0
14C8
10C0
10C0
10C0
10C0
10C0
92C0
94C0
78C0
30C0
10C0
ENDCHAR
STARTCHAR uni21F6
ENCODING 8694
SWIDTH 948 0
DWIDTH 17 0
BBX 15 18 1 -4
BITMAP
0020
0010
0008
FFFE
0008
0010
0030
0008
FFFE
000C
0010
0020
0010
0008
FFFE
0008
0010
0020
ENDCHAR
STARTCHAR uni21F7
ENCODING 8695
SWIDTH 948 0
DWIDTH 17 0
BBX 15 7 1 1
BITMAP
0880
1080
2080
FFFE
2080
1080
0880
ENDCHAR
STARTCHAR uni21F8
ENCODING 8696
SWIDTH 948 0
DWIDTH 17 0
BBX 15 7 1 1
BITMAP
0220
0210
0208
FFFE
0208
0210
0220
ENDCHAR
STARTCHAR uni21F9
ENCODING 8697
SWIDTH 948 0
DWIDTH 17 0
BBX 15 7 1 1
BITMAP
1930
1110
210C
FFFE
610C
1110
0930
ENDCHAR
STARTCHAR uni21FA
ENCODING 8698
SWIDTH 948 0
DWIDTH 17 0
BBX 15 7 1 1
BITMAP
0920
1120
2120
FFFE
2120
1120
0920
ENDCHAR
STARTCHAR uni21FB
ENCODING 8699
SWIDTH 948 0
DWIDTH 17 0
BBX 15 7 1 1
BITMAP
0920
0910
0908
FFFE
0908
0910
0920
ENDCHAR
STARTCHAR uni21FC
ENCODING 8700
SWIDTH 948 0
DWIDTH 17 0
BBX 15 7 1 1
BITMAP
1290
2288
628C
FFFE
628C
2288
1290
ENDCHAR
STARTCHAR uni21FD
ENCODING 8701
SWIDTH 948 0
DWIDTH 17 0
BBX 15 7 1 1
BITMAP
0800
1800
3800
CFFE
2800
1800
0800
ENDCHAR
STARTCHAR uni21FE
ENCODING 8702
SWIDTH 948 0
DWIDTH 17 0
BBX 15 7 1 1
BITMAP
0020
0030
0038
FFE6
0028
0030
0020
ENDCHAR
STARTCHAR uni21FF
ENCODING 8703
SWIDTH 948 0
DWIDTH 17 0
BBX 17 7 0 1
BITMAP
080800
080800
380E00
CFF980
380E00
180C00
080800
ENDCHAR
STARTCHAR uni2200
ENCODING 8704
SWIDTH 573 0
DWIDTH 10 0
BBX 10 13 0 0
BITMAP
8040
40C0
4080
6080
3F80
2100
3100
1300
1200
1A00
0E00
0C00
0400
ENDCHAR
STARTCHAR uni2201
ENCODING 8705
SWIDTH 474 0
DWIDTH 9 0
BBX 6 14 1 0
BITMAP
78
C4
84
84
80
80
80
80
80
80
84
84
C4
78
ENDCHAR
STARTCHAR partialdiff
ENCODING 8706
SWIDTH 478 0
DWIDTH 9 0
BBX 7 13 1 0
BITMAP
38
4C
04
04
3A
7E
C6
86
82
82
84
C4
78
ENDCHAR
STARTCHAR uni2203
ENCODING 8707
SWIDTH 573 0
DWIDTH 10 0
BBX 8 12 1 0
BITMAP
FF
01
01
01
01
7F
01
01
01
01
01
FF
ENDCHAR
STARTCHAR uni2204
ENCODING 8708
SWIDTH 573 0
DWIDTH 10 0
BBX 8 16 1 -2
BITMAP
02
04
FF
05
09
09
09
7F
11
11
21
21
21
FF
40
C0
ENDCHAR
STARTCHAR uni2205
ENCODING 8709
SWIDTH 780 0
DWIDTH 14 0
BBX 12 12 1 -1
BITMAP
0FB0
30E0
60E0
40B0
8110
8210
8410
8810
D830
7020
30C0
DF00
ENDCHAR
STARTCHAR uni2206
ENCODING 8710
SWIDTH 748 0
DWIDTH 13 0
BBX 11 13 1 0
BITMAP
0400
0400
0600
0E00
0B00
1300
1100
2180
2180
20C0
40C0
4060
FFE0
ENDCHAR
STARTCHAR uni2207
ENCODING 8711
SWIDTH 748 0
DWIDTH 13 0
BBX 11 12 1 0
BITMAP
FFE0
6020
6040
3040
3080
1080
1880
1900
0D00
0E00
0600
0400
ENDCHAR
STARTCHAR uni2208
ENCODING 8712
SWIDTH 720 0
DWIDTH 13 0
BBX 11 10 1 0
BITMAP
1FE0
3000
4000
4000
FFE0
C000
4000
6000
2000
1FE0
ENDCHAR
STARTCHAR uni2209
ENCODING 8713
SWIDTH 720 0
DWIDTH 13 0
BBX 11 15 1 -3
BITMAP
00C0
0080
1FE0
3100
4200
4200
FFE0
CC00
4800
6800
3000
1FE0
2000
2000
4000
ENDCHAR
STARTCHAR uni220A
ENCODING 8714
SWIDTH 497 0
DWIDTH 9 0
BBX 7 7 1 1
BITMAP
3E
40
C0
FE
C0
40
3E
ENDCHAR
STARTCHAR uni220B
ENCODING 8715
SWIDTH 720 0
DWIDTH 13 0
BBX 11 10 1 0
BITMAP
FF00
0180
0040
0040
FFE0
0060
0040
00C0
0180
FF00
ENDCHAR
STARTCHAR uni220C
ENCODING 8716
SWIDTH 720 0
DWIDTH 13 0
BBX 11 15 1 -3
BITMAP
00C0
0080
FF00
0180
0240
0240
FFE0
0460
0840
08C0
1180
FF00
2000
2000
4000
ENDCHAR
STARTCHAR uni220D
ENCODING 8717
SWIDTH 497 0
DWIDTH 9 0
BBX 7 7 1 1
BITMAP
F8
0C
06
FE
06
04
F8
ENDCHAR
STARTCHAR uni220E
ENCODING 8718
SWIDTH 558 0
DWIDTH 10 0
BBX 8 12 1 0
BITMAP
FF
FF
FF
FF
FF
FF
FF
FF
FF
FF
FF
FF
ENDCHAR
STARTCHAR uni220F
ENCODING 8719
SWIDTH 1135 0
DWIDTH 20 0
BBX 18 19 1 -5
BITMAP
FFFFC0
180700
180600
180600
180600
180600
180600
180600
180600
180600
180600
180600
180600
180600
180600
180600
180600
180700
FF1FC0
ENDCHAR
STARTCHAR uni2210
ENCODING 8720
SWIDTH 1135 0
DWIDTH 20 0
BBX 18 19 1 -5
BITMAP
FF1FC0
180700
180600
180600
180600
180600
180600
180600
180600
180600
180600
180600
180600
180600
180600
180600
180600
180700
FFFFC0
ENDCHAR
STARTCHAR uni2211
ENCODING 8721
SWIDTH 936 0
DWIDTH 17 0
BBX 15 19 1 -4
BITMAP
FFFC
700C
3004
1804
1C04
0E00
0600
0300
0380
0100
0200
0600
0400
0802
1804
3004
200C
7FFC
FFF8
ENDCHAR
STARTCHAR uni2212
ENCODING 8722
SWIDTH 720 0
DWIDTH 13 0
BBX 11 1 1 4
BITMAP
FFE0
ENDCHAR
STARTCHAR uni2213
ENCODING 8723
SWIDTH 720 0
DWIDTH 13 0
BBX 11 11 1 -2
BITMAP
FFE0
0000
0400
0400
0400
0400
FFE0
0400
0400
0400
0400
ENDCHAR
STARTCHAR uni2214
ENCODING 8724
SWIDTH 720 0
DWIDTH 13 0
BBX 11 14 1 -1
BITMAP
0E00
0C00
0000
0400
0400
0400
0400
0400
FFE0
0400
0400
0400
0400
0400
ENDCHAR
STARTCHAR uni2215
ENCODING 8725
SWIDTH 535 0
DWIDTH 10 0
BBX 8 17 1 -4
BITMAP
03
02
06
04
04
0C
08
08
10
10
30
20
20
60
40
C0
80
ENDCHAR
STARTCHAR uni2216
ENCODING 8726
SWIDTH 535 0
DWIDTH 10 0
BBX 8 17 1 -4
BITMAP
80
C0
40
60
20
20
30
10
10
08
08
0C
04
04
06
02
03
ENDCHAR
STARTCHAR uni2217
ENCODING 8727
SWIDTH 536 0
DWIDTH 10 0
BBX 7 8 1 1
BITMAP
18
92
D6
28
38
D6
92
18
ENDCHAR
STARTCHAR uni2218
ENCODING 8728
SWIDTH 436 0
DWIDTH 8 0
BBX 6 6 1 2
BITMAP
78
CC
84
84
CC
78
ENDCHAR
STARTCHAR uni2219
ENCODING 8729
SWIDTH 457 0
DWIDTH 8 0
BBX 4 5 2 2
BITMAP
70
F0
F0
F0
70
ENDCHAR
STARTCHAR uni221A
ENCODING 8730
SWIDTH 794 0
DWIDTH 14 0
BBX 15 21 0 -4
BITMAP
000E
0008
0010
0010
0010
0010
0020
0020
0020
3060
7040
9840
1840
08C0
0C80
0C80
0480
0700
0300
0300
0300
ENDCHAR
STARTCHAR uni221B
ENCODING 8731
SWIDTH 794 0
DWIDTH 14 0
BBX 15 21 0 -4
BITMAP
780E
4808
0810
3010
0C10
0410
0420
7820
0020
3060
7040
9840
1840
08C0
0C80
0C80
0480
0700
0300
0300
0300
ENDCHAR
STARTCHAR uni221C
ENCODING 8732
SWIDTH 794 0
DWIDTH 14 0
BBX 15 21 0 -4
BITMAP
080E
1808
1810
2810
4810
7E10
0820
0820
0020
3060
7040
9840
1840
08C0
0C80
0C80
0480
0700
0300
0300
0300
ENDCHAR
STARTCHAR uni221D
ENCODING 8733
SWIDTH 720 0
DWIDTH 13 0
BBX 11 8 1 0
BITMAP
3860
4CE0
8680
8300
8180
C380
FCE0
7860
ENDCHAR
STARTCHAR uni221E
ENCODING 8734
SWIDTH 953 0
DWIDTH 17 0
BBX 15 8 1 0
BITMAP
3C38
467C
4386
8306
C182
C2C2
7EC4
3C78
ENDCHAR
STARTCHAR uni221F
ENCODING 8735
SWIDTH 720 0
DWIDTH 13 0
BBX 11 11 1 0
BITMAP
8000
8000
8000
8000
8000
8000
8000
8000
8000
8000
FFE0
ENDCHAR
STARTCHAR uni2220
ENCODING 8736
SWIDTH 720 0
DWIDTH 13 0
BBX 11 10 1 0
BITMAP
0060
00C0
0180
0300
0600
0C00
1800
3000
6000
FFE0
ENDCHAR
STARTCHAR uni2221
ENCODING 8737
SWIDTH 720 0
DWIDTH 13 0
BBX 11 12 1 -2
BITMAP
0060
00C0
0180
0700
0700
0D00
1980
3080
6080
FFE0
0080
0040
ENDCHAR
STARTCHAR uni2222
ENCODING 8738
SWIDTH 720 0
DWIDTH 13 0
BBX 11 10 1 0
BITMAP
0080
01E0
01C0
0F80
38C0
F0C0
1CC0
0780
00E0
01A0
ENDCHAR
STARTCHAR uni2223
ENCODING 8739
SWIDTH 272 0
DWIDTH 5 0
BBX 1 16 2 -3
BITMAP
80
80
80
80
80
80
80
80
80
80
80
80
80
80
80
80
ENDCHAR
STARTCHAR uni2224
ENCODING 8740
SWIDTH 413 0
DWIDTH 7 0
BBX 7 16 0 -3
BITMAP
10
10
10
10
10
10
12
1C
30
D0
10
10
10
10
10
10
ENDCHAR
STARTCHAR uni2225
ENCODING 8741
SWIDTH 535 0
DWIDTH 10 0
BBX 5 16 2 -3
BITMAP
C8
C8
C8
C8
C8
C8
C8
C8
C8
C8
C8
C8
C8
C8
C8
C8
ENDCHAR
STARTCHAR uni2226
ENCODING 8742
SWIDTH 623 0
DWIDTH 11 0
BBX 11 16 0 -3
BITMAP
1100
1100
1100
1100
1100
1160
11C0
1700
1D00
7100
D100
1100
1100
1100
1100
1100
ENDCHAR
STARTCHAR uni2227
ENCODING 8743
SWIDTH 636 0
DWIDTH 11 0
BBX 10 11 1 -1
BITMAP
0800
0800
0C00
1400
1600
3200
2300
6100
4180
C080
80C0
ENDCHAR
STARTCHAR uni2228
ENCODING 8744
SWIDTH 636 0
DWIDTH 11 0
BBX 10 11 1 -1
BITMAP
8040
8080
4080
4100
2100
2200
3200
1600
1C00
0C00
0800
ENDCHAR
STARTCHAR uni2229
ENCODING 8745
SWIDTH 636 0
DWIDTH 11 0
BBX 10 10 1 0
BITMAP
3E00
6100
C080
8080
80C0
80C0
80C0
80C0
80C0
80C0
ENDCHAR
STARTCHAR uni222A
ENCODING 8746
SWIDTH 636 0
DWIDTH 11 0
BBX 10 11 1 0
BITMAP
80C0
80C0
80C0
80C0
80C0
80C0
80C0
8080
C080
6100
3E00
ENDCHAR
STARTCHAR uni222B
ENCODING 8747
SWIDTH 684 0
DWIDTH 12 0
BBX 11 17 1 -4
BITMAP
01C0
0360
0260
0600
0600
0600
0C00
0C00
0C00
0C00
0C00
0800
1800
1800
9000
B000
E000
ENDCHAR
STARTCHAR uni222C
ENCODING 8748
SWIDTH 1016 0
DWIDTH 18 0
BBX 17 17 1 -4
BITMAP
01C700
036D80
026980
061800
061800
061800
0C3000
0C3000
0C3000
0C3000
0C3000
086000
186000
186000
924000
B2C000
E38000
ENDCHAR
STARTCHAR uni222D
ENCODING 8749
SWIDTH 1348 0
DWIDTH 24 0
BBX 23 17 1 -4
BITMAP
01C71C
036DB6
0269A4
061860
061860
061840
0C30C0
0C30C0
0C30C0
0C30C0
0C3080
086180
186180
186180
924900
B2DB00
E38C00
ENDCHAR
STARTCHAR uni222E
ENCODING 8750
SWIDTH 684 0
DWIDTH 12 0
BBX 11 17 1 -4
BITMAP
01C0
0360
0240
0600
1E00
2500
4C80
4C80
4C80
4C80
2900
1E00
1800
1000
9000
A000
C000
ENDCHAR
STARTCHAR uni222F
ENCODING 8751
SWIDTH 1016 0
DWIDTH 18 0
BBX 17 17 1 -4
BITMAP
01C700
036D80
024900
061800
07F800
1C1C00
2C3600
4C3200
4C3200
4C3200
382C00
1FF000
186000
186000
924000
A28000
C30000
ENDCHAR
STARTCHAR uni2230
ENCODING 8752
SWIDTH 1348 0
DWIDTH 24 0
BBX 23 17 1 -4
BITMAP
01C71C
036DB6
024924
061860
07FFE0
1C1070
2C30C8
4C30C8
4C30C4
4C30C8
3820B0
1FFFC0
186180
104100
924900
A29A00
C30C00
ENDCHAR
STARTCHAR uni2231
ENCODING 8753
SWIDTH 684 0
DWIDTH 12 0
BBX 11 17 1 -4
BITMAP
01C0
0360
0260
0600
0600
0600
0E00
3D20
2CC0
4DC0
0C00
0800
1800
1800
9000
B000
E000
ENDCHAR
STARTCHAR uni2232
ENCODING 8754
SWIDTH 684 0
DWIDTH 12 0
BBX 11 17 1 -4
BITMAP
01C0
0360
0200
1E00
2720
44C0
4DC0
8C40
8C40
4C80
4C80
2900
1E00
1800
9000
B000
E000
ENDCHAR
STARTCHAR uni2233
ENCODING 8755
SWIDTH 684 0
DWIDTH 12 0
BBX 11 17 1 -4
BITMAP
01C0
0360
0240
0600
1E00
2500
4DE0
4D80
4C80
4C80
2900
1E00
1800
1000
9000
A000
C000
ENDCHAR
STARTCHAR uni2234
ENCODING 8756
SWIDTH 635 0
DWIDTH 11 0
BBX 10 10 1 0
BITMAP
0C00
0C00
0000
0000
0000
0000
0000
0000
C1C0
C0C0
ENDCHAR
STARTCHAR uni2235
ENCODING 8757
SWIDTH 635 0
DWIDTH 11 0
BBX 10 10 1 0
BITMAP
C0C0
C1C0
0000
0000
0000
0000
0000
0000
0C00
0C00
ENDCHAR
STARTCHAR uni2236
ENCODING 8758
SWIDTH 523 0
DWIDTH 9 0
BBX 2 10 4 0
BITMAP
C0
C0
00
00
00
00
00
00
C0
C0
ENDCHAR
STARTCHAR uni2237
ENCODING 8759
SWIDTH 720 0
DWIDTH 13 0
BBX 9 10 2 0
BITMAP
C180
C180
0000
0000
0000
0000
0000
0000
C180
C180
ENDCHAR
STARTCHAR uni2238
ENCODING 8760
SWIDTH 720 0
DWIDTH 13 0
BBX 11 5 1 4
BITMAP
0E00
0C00
0000
0000
FFE0
ENDCHAR
STARTCHAR uni2239
ENCODING 8761
SWIDTH 720 0
DWIDTH 13 0
BBX 11 9 1 0
BITMAP
0060
0060
0000
0000
FE00
0000
0000
0060
0060
ENDCHAR
STARTCHAR uni223A
ENCODING 8762
SWIDTH 720 0
DWIDTH 13 0
BBX 11 9 1 0
BITMAP
C0E0
C060
0000
0000
FFE0
0000
0000
C0E0
C060
ENDCHAR
STARTCHAR uni223B
ENCODING 8763
SWIDTH 720 0
DWIDTH 13 0
BBX 11 10 1 0
BITMAP
0600
0E00
0000
3020
4C20
8640
8180
0000
0E00
0600
ENDCHAR
STARTCHAR uni223C
ENCODING 8764
SWIDTH 720 0
DWIDTH 13 0
BBX 11 4 1 3
BITMAP
0020
7820
4E40
8380
ENDCHAR
STARTCHAR uni223D
ENCODING 8765
SWIDTH 720 0
DWIDTH 13 0
BBX 11 4 1 3
BITMAP
8000
83C0
4E40
3820
ENDCHAR
STARTCHAR uni223E
ENCODING 8766
SWIDTH 720 0
DWIDTH 13 0
BBX 11 6 1 2
BITMAP
70C0
8820
8420
8420
8220
61C0
ENDCHAR
STARTCHAR uni223F
ENCODING 8767
SWIDTH 720 0
DWIDTH 13 0
BBX 11 8 1 1
BITMAP
3800
4800
8400
8400
0420
0420
0240
0380
ENDCHAR
STARTCHAR uni2240
ENCODING 8768
SWIDTH 293 0
DWIDTH 5 0
BBX 4 11 1 -1
BITMAP
C0
20
20
20
20
40
C0
80
80
C0
30
ENDCHAR
STARTCHAR uni2241
ENCODING 8769
SWIDTH 720 0
DWIDTH 13 0
BBX 11 6 1 2
BITMAP
0300
0220
7A20
4E40
8B80
1800
ENDCHAR
STARTCHAR uni2242
ENCODING 8770
SWIDTH 720 0
DWIDTH 13 0
BBX 11 7 1 1
BITMAP
FFE0
0000
0000
0000
7820
4E40
8380
ENDCHAR
STARTCHAR uni2243
ENCODING 8771
SWIDTH 720 0
DWIDTH 13 0
BBX 11 7 1 1
BITMAP
3020
4C20
8640
8180
0000
0000
FFE0
ENDCHAR
STARTCHAR uni2244
ENCODING 8772
SWIDTH 720 0
DWIDTH 13 0
BBX 11 10 1 -1
BITMAP
0100
3A20
4E20
8640
87C0
0400
0800
FFE0
1000
1000
ENDCHAR
STARTCHAR uni2245
ENCODING 8773
SWIDTH 720 0
DWIDTH 13 0
BBX 11 10 1 0
BITMAP
3020
4C20
8640
83C0
0000
FFE0
0000
0000
0000
FFE0
ENDCHAR
STARTCHAR uni2246
ENCODING 8774
SWIDTH 720 0
DWIDTH 13 0
BBX 11 13 1 -2
BITMAP
7820
4E20
83C0
0000
0100
0100
FFE0
0600
0400
0800
FFE0
1000
3000
ENDCHAR
STARTCHAR uni2247
ENCODING 8775
SWIDTH 720 0
DWIDTH 13 0
BBX 11 15 1 -3
BITMAP
0080
0080
3920
4F40
83C0
0200
0400
FFE0
0400
0800
0800
FFE0
1000
1000
2000
ENDCHAR
STARTCHAR uni2248
ENCODING 8776
SWIDTH 720 0
DWIDTH 13 0
BBX 11 8 1 1
BITMAP
3020
4C20
8640
8180
0000
7820
4E40
8380
ENDCHAR
STARTCHAR uni2249
ENCODING 8777
SWIDTH 720 0
DWIDTH 13 0
BBX 11 11 1 0
BITMAP
0100
0100
3920
4E20
8640
8780
3C20
4C20
8E40
9380
1000
ENDCHAR
STARTCHAR uni224A
ENCODING 8778
SWIDTH 720 0
DWIDTH 13 0
BBX 11 11 1 -1
BITMAP
3020
4C20
8640
8180
0000
3820
4E40
83C0
0000
0000
FFE0
ENDCHAR
STARTCHAR uni224B
ENCODING 8779
SWIDTH 720 0
DWIDTH 13 0
BBX 11 10 1 0
BITMAP
7820
8E20
83C0
7820
8E20
83C0
0000
7820
8E20
83C0
ENDCHAR
STARTCHAR uni224C
ENCODING 8780
SWIDTH 720 0
DWIDTH 13 0
BBX 11 10 1 0
BITMAP
8180
8640
4C20
7820
0000
FFE0
0000
0000
0000
FFE0
ENDCHAR
STARTCHAR uni224D
ENCODING 8781
SWIDTH 720 0
DWIDTH 13 0
BBX 11 8 1 1
BITMAP
8020
60C0
1F00
0000
0000
1F00
60C0
8020
ENDCHAR
STARTCHAR uni224E
ENCODING 8782
SWIDTH 720 0
DWIDTH 13 0
BBX 11 8 1 1
BITMAP
0E00
1100
F1E0
0000
0000
F1E0
1900
0E00
ENDCHAR
STARTCHAR uni224F
ENCODING 8783
SWIDTH 720 0
DWIDTH 13 0
BBX 11 6 1 2
BITMAP
0E00
F1E0
0000
0000
0000
FFE0
ENDCHAR
STARTCHAR uni2250
ENCODING 8784
SWIDTH 720 0
DWIDTH 13 0
BBX 11 9 1 2
BITMAP
0C00
0E00
0000
0000
FFE0
0000
0000
0000
FFE0
ENDCHAR
STARTCHAR uni2251
ENCODING 8785
SWIDTH 720 0
DWIDTH 13 0
BBX 11 13 1 -2
BITMAP
0E00
0C00
0000
0000
FFE0
0000
0000
0000
FFE0
0000
0000
0E00
0C00
ENDCHAR
STARTCHAR uni2252
ENCODING 8786
SWIDTH 720 0
DWIDTH 13 0
BBX 11 13 1 -2
BITMAP
C000
C000
0000
0000
FFE0
0000
0000
0000
FFE0
0000
0000
0060
0060
ENDCHAR
STARTCHAR uni2253
ENCODING 8787
SWIDTH 720 0
DWIDTH 13 0
BBX 11 13 1 -2
BITMAP
0060
0060
0000
0000
FFE0
0000
0000
0000
FFE0
0000
0000
C000
C000
ENDCHAR
STARTCHAR uni2254
ENCODING 8788
SWIDTH 844 0
DWIDTH 15 0
BBX 13 6 1 2
BITMAP
C000
CFF8
0000
0000
CFF8
C000
ENDCHAR
STARTCHAR uni2255
ENCODING 8789
SWIDTH 844 0
DWIDTH 15 0
BBX 13 6 1 2
BITMAP
0018
FF98
0000
0000
FF98
0018
ENDCHAR
STARTCHAR uni2256
ENCODING 8790
SWIDTH 720 0
DWIDTH 13 0
BBX 11 6 1 2
BITMAP
FFE0
0E00
1100
1100
0E00
FFE0
ENDCHAR
STARTCHAR uni2257
ENCODING 8791
SWIDTH 720 0
DWIDTH 13 0
BBX 11 12 1 2
BITMAP
0E00
1A00
1100
1A00
0E00
0000
0000
FFE0
0000
0000
0000
FFE0
ENDCHAR
STARTCHAR uni2258
ENCODING 8792
SWIDTH 720 0
DWIDTH 13 0
BBX 11 11 1 2
BITMAP
1F00
2180
4040
0000
0000
0000
FFE0
0000
0000
0000
FFE0
ENDCHAR
STARTCHAR uni2259
ENCODING 8793
SWIDTH 720 0
DWIDTH 13 0
BBX 11 13 1 2
BITMAP
0400
0400
0A00
1B00
1100
2080
60C0
0000
FFE0
0000
0000
0000
FFE0
ENDCHAR
STARTCHAR uni225A
ENCODING 8794
SWIDTH 720 0
DWIDTH 13 0
BBX 11 13 1 2
BITMAP
6080
3100
1300
0A00
0C00
0400
0000
0000
FFE0
0000
0000
0000
FFE0
ENDCHAR
STARTCHAR uni225B
ENCODING 8795
SWIDTH 720 0
DWIDTH 13 0
BBX 11 12 1 2
BITMAP
0400
0400
0400
1F00
0E00
0A00
0000
FFE0
0000
0000
0000
FFE0
ENDCHAR
STARTCHAR uni225C
ENCODING 8796
SWIDTH 720 0
DWIDTH 13 0
BBX 11 14 1 2
BITMAP
0400
0400
0E00
0A00
1100
3180
3F80
4040
0000
FFE0
0000
0000
0000
FFE0
ENDCHAR
STARTCHAR uni225D
ENCODING 8797
SWIDTH 720 0
DWIDTH 13 0
BBX 13 13 0 2
BITMAP
1018
1020
7370
94A0
97A0
94A0
7BF0
0000
7FF0
0000
0000
0000
7FF0
ENDCHAR
ENDFONT
